<svg width="820" height="150" viewBox="0 0 761 128" fill="none" xmlns="http://www.w3.org/2000/svg" preserveAspectRatio="none">
<mask id="path-1-outside-1_11_32" maskUnits="userSpaceOnUse" x="-2" y="0" width="763" height="128" fill="black">
<rect fill="white" x="-2" width="763" height="128"/>
<path d="M95.9169 93.6595C95.9169 100.362 94.1841 106.004 90.7186 110.584C87.2531 115.052 82.5578 118.459 76.6329 120.805C70.8198 123.151 64.4477 124.324 57.5166 124.324H0V5.35135H63.721C69.3106 5.35135 74.1176 6.85946 78.1421 9.87567C82.2784 12.7802 85.4085 16.5784 87.5325 21.2703C89.7684 25.8505 90.8863 30.6541 90.8863 35.6811C90.8863 41.3784 89.433 46.7964 86.5264 51.9351C83.6199 57.0739 79.3718 60.8721 73.7822 63.3297C80.6015 65.3405 85.9675 68.9712 89.8802 74.2216C93.9046 79.4721 95.9169 85.9514 95.9169 93.6595ZM72.6084 89.3027C72.6084 86.2865 71.9936 83.6054 70.7639 81.2595C69.5341 78.8018 67.8573 76.9027 65.7333 75.5622C63.721 74.1099 61.3734 73.3838 58.6904 73.3838H23.1408V104.719H57.5166C60.3114 104.719 62.8267 104.049 65.0625 102.708C67.4101 101.256 69.2547 99.3568 70.5962 97.0108C71.9377 94.6649 72.6084 92.0955 72.6084 89.3027ZM23.1408 25.1243V55.1189H53.9952C56.5664 55.1189 58.914 54.5045 61.038 53.2757C63.162 52.0468 64.8389 50.3153 66.0686 48.0811C67.4101 45.8468 68.0809 43.1658 68.0809 40.0378C68.0809 37.0216 67.466 34.3964 66.2363 32.1622C65.1184 29.9279 63.5533 28.1964 61.5411 26.9676C59.6406 25.7387 57.4607 25.1243 55.0013 25.1243H23.1408Z"/>
<path d="M164.113 55.9568C157.294 55.9568 151.201 57.2973 145.835 59.9784C140.469 62.5477 136.612 66.2901 134.265 71.2054V124.324H111.795V36.5189H132.42V55.2865C135.55 49.2541 139.519 44.5063 144.326 41.0432C149.133 37.5802 154.219 35.6811 159.585 35.3459C160.815 35.3459 161.765 35.3459 162.436 35.3459C163.107 35.3459 163.666 35.4018 164.113 35.5135V55.9568Z"/>
<path d="M170.114 98.3513C170.114 92.6541 171.679 87.6829 174.81 83.4378C178.052 79.0811 182.523 75.7297 188.225 73.3838C193.926 71.0378 200.466 69.8649 207.844 69.8649C211.533 69.8649 215.278 70.1441 219.079 70.7027C222.88 71.2613 226.178 72.155 228.972 73.3838V68.6919C228.972 63.1063 227.296 58.8054 223.942 55.7892C220.7 52.773 215.837 51.2649 209.353 51.2649C204.546 51.2649 199.963 52.1027 195.603 53.7784C191.243 55.454 186.659 57.9117 181.852 61.1514L174.642 46.4054C180.455 42.6072 186.38 39.7586 192.417 37.8595C198.565 35.9604 204.993 35.0108 211.701 35.0108C224.221 35.0108 233.947 38.1387 240.878 44.3946C247.921 50.6504 251.443 59.5874 251.443 71.2054V99.1892C251.443 101.535 251.834 103.211 252.616 104.216C253.511 105.222 254.908 105.836 256.809 106.059V124.324C254.796 124.659 252.952 124.939 251.275 125.162C249.71 125.386 248.368 125.497 247.25 125.497C242.779 125.497 239.369 124.492 237.021 122.481C234.786 120.47 233.388 118.013 232.829 115.108L232.326 110.584C228.525 115.499 223.774 119.297 218.073 121.978C212.371 124.659 206.558 126 200.633 126C194.82 126 189.566 124.827 184.871 122.481C180.287 120.023 176.654 116.728 173.971 112.595C171.4 108.35 170.114 103.602 170.114 98.3513ZM224.78 102.876C226.01 101.535 227.016 100.195 227.799 98.854C228.581 97.5135 228.972 96.2847 228.972 95.1676V86.2865C226.289 85.1694 223.383 84.3315 220.253 83.773C217.123 83.1027 214.16 82.7676 211.365 82.7676C205.552 82.7676 200.745 84.0522 196.944 86.6216C193.255 89.0793 191.411 92.3748 191.411 96.5081C191.411 98.7423 192.025 100.865 193.255 102.876C194.485 104.886 196.274 106.506 198.621 107.735C200.969 108.964 203.764 109.578 207.005 109.578C210.359 109.578 213.657 108.964 216.899 107.735C220.141 106.395 222.768 104.775 224.78 102.876Z"/>
<path d="M272.44 124.324V36.5189H294.91V124.324H272.44ZM272.44 24.2865V2H294.91V24.2865H272.44Z"/>
<path d="M396.844 124.324H374.374V75.0595C374.374 68.0216 373.144 62.8829 370.685 59.6432C368.225 56.4036 364.816 54.7838 360.456 54.7838C357.438 54.7838 354.363 55.5658 351.233 57.1297C348.215 58.6937 345.476 60.8721 343.017 63.6649C340.557 66.3459 338.768 69.4739 337.651 73.0486V124.324H315.181V36.5189H335.471V52.773C337.706 48.9748 340.557 45.791 344.023 43.2216C347.488 40.5405 351.457 38.5297 355.928 37.1892C360.512 35.7369 365.319 35.0108 370.35 35.0108C375.827 35.0108 380.299 36.0162 383.764 38.027C387.342 39.9261 390.025 42.5513 391.813 45.9027C393.714 49.1423 394.999 52.8288 395.67 56.9622C396.453 61.0955 396.844 65.2847 396.844 69.5297V124.324Z"/>
<path d="M416.215 2H438.685V96.173C438.685 100.195 439.355 102.932 440.697 104.384C442.038 105.724 443.883 106.395 446.23 106.395C448.019 106.395 449.864 106.171 451.764 105.724C453.665 105.277 455.341 104.719 456.795 104.049L459.813 121.141C456.795 122.593 453.273 123.71 449.249 124.492C445.224 125.274 441.591 125.665 438.349 125.665C431.306 125.665 425.829 123.822 421.916 120.135C418.115 116.337 416.215 110.975 416.215 104.049V2Z"/>
<path d="M510.183 126C503.029 126 496.601 124.827 490.899 122.481C485.198 120.023 480.335 116.672 476.311 112.427C472.398 108.182 469.38 103.323 467.255 97.8486C465.131 92.3748 464.069 86.6216 464.069 80.5892C464.069 74.445 465.131 68.636 467.255 63.1622C469.38 57.6883 472.398 52.8288 476.311 48.5838C480.335 44.3387 485.198 41.0432 490.899 38.6973C496.601 36.2396 503.029 35.0108 510.183 35.0108C517.338 35.0108 523.71 36.2396 529.3 38.6973C535.001 41.0432 539.864 44.3387 543.888 48.5838C547.913 52.8288 550.931 57.6883 552.943 63.1622C555.068 68.636 556.13 74.445 556.13 80.5892C556.13 86.6216 555.068 92.3748 552.943 97.8486C550.931 103.323 547.913 108.182 543.888 112.427C539.976 116.672 535.169 120.023 529.467 122.481C523.766 124.827 517.338 126 510.183 126ZM487.21 80.5892C487.21 85.7279 488.216 90.3081 490.229 94.3297C492.241 98.2396 494.98 101.312 498.445 103.546C501.911 105.78 505.823 106.897 510.183 106.897C514.431 106.897 518.288 105.78 521.754 103.546C525.219 101.2 527.958 98.0721 529.97 94.1622C532.094 90.1405 533.156 85.5604 533.156 80.4216C533.156 75.3946 532.094 70.8703 529.97 66.8486C527.958 62.827 525.219 59.6991 521.754 57.4649C518.288 55.2306 514.431 54.1135 510.183 54.1135C505.823 54.1135 501.911 55.2865 498.445 57.6324C494.98 59.8667 492.241 62.9946 490.229 67.0162C488.216 70.9261 487.21 75.4505 487.21 80.5892Z"/>
<path d="M611.876 126C604.722 126 598.294 124.827 592.592 122.481C586.891 120.023 582.028 116.672 578.003 112.427C574.091 108.182 571.072 103.323 568.948 97.8486C566.824 92.3748 565.762 86.6216 565.762 80.5892C565.762 74.445 566.824 68.636 568.948 63.1622C571.072 57.6883 574.091 52.8288 578.003 48.5838C582.028 44.3387 586.891 41.0432 592.592 38.6973C598.294 36.2396 604.722 35.0108 611.876 35.0108C619.031 35.0108 625.403 36.2396 630.993 38.6973C636.694 41.0432 641.557 44.3387 645.581 48.5838C649.606 52.8288 652.624 57.6883 654.636 63.1622C656.76 68.636 657.822 74.445 657.822 80.5892C657.822 86.6216 656.76 92.3748 654.636 97.8486C652.624 103.323 649.606 108.182 645.581 112.427C641.669 116.672 636.862 120.023 631.16 122.481C625.459 124.827 619.031 126 611.876 126ZM588.903 80.5892C588.903 85.7279 589.909 90.3081 591.922 94.3297C593.934 98.2396 596.673 101.312 600.138 103.546C603.604 105.78 607.516 106.897 611.876 106.897C616.124 106.897 619.981 105.78 623.447 103.546C626.912 101.2 629.651 98.0721 631.663 94.1622C633.787 90.1405 634.849 85.5604 634.849 80.4216C634.849 75.3946 633.787 70.8703 631.663 66.8486C629.651 62.827 626.912 59.6991 623.447 57.4649C619.981 55.2306 616.124 54.1135 611.876 54.1135C607.516 54.1135 603.604 55.2865 600.138 57.6324C596.673 59.8667 593.934 62.9946 591.922 67.0162C589.909 70.9261 588.903 75.4505 588.903 80.5892Z"/>
<path d="M733.021 124.324L707.365 86.4541L695.459 98.1838V124.324H672.989V2H695.459V76.0649L730.841 36.6865H754.652L721.953 73.8865L757 124.324H733.021Z"/>
</mask>
<path d="M95.9169 93.6595C95.9169 100.362 94.1841 106.004 90.7186 110.584C87.2531 115.052 82.5578 118.459 76.6329 120.805C70.8198 123.151 64.4477 124.324 57.5166 124.324H0V5.35135H63.721C69.3106 5.35135 74.1176 6.85946 78.1421 9.87567C82.2784 12.7802 85.4085 16.5784 87.5325 21.2703C89.7684 25.8505 90.8863 30.6541 90.8863 35.6811C90.8863 41.3784 89.433 46.7964 86.5264 51.9351C83.6199 57.0739 79.3718 60.8721 73.7822 63.3297C80.6015 65.3405 85.9675 68.9712 89.8802 74.2216C93.9046 79.4721 95.9169 85.9514 95.9169 93.6595ZM72.6084 89.3027C72.6084 86.2865 71.9936 83.6054 70.7639 81.2595C69.5341 78.8018 67.8573 76.9027 65.7333 75.5622C63.721 74.1099 61.3734 73.3838 58.6904 73.3838H23.1408V104.719H57.5166C60.3114 104.719 62.8267 104.049 65.0625 102.708C67.4101 101.256 69.2547 99.3568 70.5962 97.0108C71.9377 94.6649 72.6084 92.0955 72.6084 89.3027ZM23.1408 25.1243V55.1189H53.9952C56.5664 55.1189 58.914 54.5045 61.038 53.2757C63.162 52.0468 64.8389 50.3153 66.0686 48.0811C67.4101 45.8468 68.0809 43.1658 68.0809 40.0378C68.0809 37.0216 67.466 34.3964 66.2363 32.1622C65.1184 29.9279 63.5533 28.1964 61.5411 26.9676C59.6406 25.7387 57.4607 25.1243 55.0013 25.1243H23.1408Z" stroke="#39E22B" stroke-width="4" mask="url(#path-1-outside-1_11_32)"/>
<path d="M164.113 55.9568C157.294 55.9568 151.201 57.2973 145.835 59.9784C140.469 62.5477 136.612 66.2901 134.265 71.2054V124.324H111.795V36.5189H132.42V55.2865C135.55 49.2541 139.519 44.5063 144.326 41.0432C149.133 37.5802 154.219 35.6811 159.585 35.3459C160.815 35.3459 161.765 35.3459 162.436 35.3459C163.107 35.3459 163.666 35.4018 164.113 35.5135V55.9568Z" stroke="#39E22B" stroke-width="4" mask="url(#path-1-outside-1_11_32)"/>
<path d="M170.114 98.3513C170.114 92.6541 171.679 87.6829 174.81 83.4378C178.052 79.0811 182.523 75.7297 188.225 73.3838C193.926 71.0378 200.466 69.8649 207.844 69.8649C211.533 69.8649 215.278 70.1441 219.079 70.7027C222.88 71.2613 226.178 72.155 228.972 73.3838V68.6919C228.972 63.1063 227.296 58.8054 223.942 55.7892C220.7 52.773 215.837 51.2649 209.353 51.2649C204.546 51.2649 199.963 52.1027 195.603 53.7784C191.243 55.454 186.659 57.9117 181.852 61.1514L174.642 46.4054C180.455 42.6072 186.38 39.7586 192.417 37.8595C198.565 35.9604 204.993 35.0108 211.701 35.0108C224.221 35.0108 233.947 38.1387 240.878 44.3946C247.921 50.6504 251.443 59.5874 251.443 71.2054V99.1892C251.443 101.535 251.834 103.211 252.616 104.216C253.511 105.222 254.908 105.836 256.809 106.059V124.324C254.796 124.659 252.952 124.939 251.275 125.162C249.71 125.386 248.368 125.497 247.25 125.497C242.779 125.497 239.369 124.492 237.021 122.481C234.786 120.47 233.388 118.013 232.829 115.108L232.326 110.584C228.525 115.499 223.774 119.297 218.073 121.978C212.371 124.659 206.558 126 200.633 126C194.82 126 189.566 124.827 184.871 122.481C180.287 120.023 176.654 116.728 173.971 112.595C171.4 108.35 170.114 103.602 170.114 98.3513ZM224.78 102.876C226.01 101.535 227.016 100.195 227.799 98.854C228.581 97.5135 228.972 96.2847 228.972 95.1676V86.2865C226.289 85.1694 223.383 84.3315 220.253 83.773C217.123 83.1027 214.16 82.7676 211.365 82.7676C205.552 82.7676 200.745 84.0522 196.944 86.6216C193.255 89.0793 191.411 92.3748 191.411 96.5081C191.411 98.7423 192.025 100.865 193.255 102.876C194.485 104.886 196.274 106.506 198.621 107.735C200.969 108.964 203.764 109.578 207.005 109.578C210.359 109.578 213.657 108.964 216.899 107.735C220.141 106.395 222.768 104.775 224.78 102.876Z" stroke="#39E22B" stroke-width="4" mask="url(#path-1-outside-1_11_32)"/>
<path d="M272.44 124.324V36.5189H294.91V124.324H272.44ZM272.44 24.2865V2H294.91V24.2865H272.44Z" stroke="#39E22B" stroke-width="4" mask="url(#path-1-outside-1_11_32)"/>
<path d="M396.844 124.324H374.374V75.0595C374.374 68.0216 373.144 62.8829 370.685 59.6432C368.225 56.4036 364.816 54.7838 360.456 54.7838C357.438 54.7838 354.363 55.5658 351.233 57.1297C348.215 58.6937 345.476 60.8721 343.017 63.6649C340.557 66.3459 338.768 69.4739 337.651 73.0486V124.324H315.181V36.5189H335.471V52.773C337.706 48.9748 340.557 45.791 344.023 43.2216C347.488 40.5405 351.457 38.5297 355.928 37.1892C360.512 35.7369 365.319 35.0108 370.35 35.0108C375.827 35.0108 380.299 36.0162 383.764 38.027C387.342 39.9261 390.025 42.5513 391.813 45.9027C393.714 49.1423 394.999 52.8288 395.67 56.9622C396.453 61.0955 396.844 65.2847 396.844 69.5297V124.324Z" stroke="#39E22B" stroke-width="4" mask="url(#path-1-outside-1_11_32)"/>
<path d="M416.215 2H438.685V96.173C438.685 100.195 439.355 102.932 440.697 104.384C442.038 105.724 443.883 106.395 446.23 106.395C448.019 106.395 449.864 106.171 451.764 105.724C453.665 105.277 455.341 104.719 456.795 104.049L459.813 121.141C456.795 122.593 453.273 123.71 449.249 124.492C445.224 125.274 441.591 125.665 438.349 125.665C431.306 125.665 425.829 123.822 421.916 120.135C418.115 116.337 416.215 110.975 416.215 104.049V2Z" stroke="#39E22B" stroke-width="4" mask="url(#path-1-outside-1_11_32)"/>
<path d="M510.183 126C503.029 126 496.601 124.827 490.899 122.481C485.198 120.023 480.335 116.672 476.311 112.427C472.398 108.182 469.38 103.323 467.255 97.8486C465.131 92.3748 464.069 86.6216 464.069 80.5892C464.069 74.445 465.131 68.636 467.255 63.1622C469.38 57.6883 472.398 52.8288 476.311 48.5838C480.335 44.3387 485.198 41.0432 490.899 38.6973C496.601 36.2396 503.029 35.0108 510.183 35.0108C517.338 35.0108 523.71 36.2396 529.3 38.6973C535.001 41.0432 539.864 44.3387 543.888 48.5838C547.913 52.8288 550.931 57.6883 552.943 63.1622C555.068 68.636 556.13 74.445 556.13 80.5892C556.13 86.6216 555.068 92.3748 552.943 97.8486C550.931 103.323 547.913 108.182 543.888 112.427C539.976 116.672 535.169 120.023 529.467 122.481C523.766 124.827 517.338 126 510.183 126ZM487.21 80.5892C487.21 85.7279 488.216 90.3081 490.229 94.3297C492.241 98.2396 494.98 101.312 498.445 103.546C501.911 105.78 505.823 106.897 510.183 106.897C514.431 106.897 518.288 105.78 521.754 103.546C525.219 101.2 527.958 98.0721 529.97 94.1622C532.094 90.1405 533.156 85.5604 533.156 80.4216C533.156 75.3946 532.094 70.8703 529.97 66.8486C527.958 62.827 525.219 59.6991 521.754 57.4649C518.288 55.2306 514.431 54.1135 510.183 54.1135C505.823 54.1135 501.911 55.2865 498.445 57.6324C494.98 59.8667 492.241 62.9946 490.229 67.0162C488.216 70.9261 487.21 75.4505 487.21 80.5892Z" stroke="#39E22B" stroke-width="4" mask="url(#path-1-outside-1_11_32)"/>
<path d="M611.876 126C604.722 126 598.294 124.827 592.592 122.481C586.891 120.023 582.028 116.672 578.003 112.427C574.091 108.182 571.072 103.323 568.948 97.8486C566.824 92.3748 565.762 86.6216 565.762 80.5892C565.762 74.445 566.824 68.636 568.948 63.1622C571.072 57.6883 574.091 52.8288 578.003 48.5838C582.028 44.3387 586.891 41.0432 592.592 38.6973C598.294 36.2396 604.722 35.0108 611.876 35.0108C619.031 35.0108 625.403 36.2396 630.993 38.6973C636.694 41.0432 641.557 44.3387 645.581 48.5838C649.606 52.8288 652.624 57.6883 654.636 63.1622C656.76 68.636 657.822 74.445 657.822 80.5892C657.822 86.6216 656.76 92.3748 654.636 97.8486C652.624 103.323 649.606 108.182 645.581 112.427C641.669 116.672 636.862 120.023 631.16 122.481C625.459 124.827 619.031 126 611.876 126ZM588.903 80.5892C588.903 85.7279 589.909 90.3081 591.922 94.3297C593.934 98.2396 596.673 101.312 600.138 103.546C603.604 105.78 607.516 106.897 611.876 106.897C616.124 106.897 619.981 105.78 623.447 103.546C626.912 101.2 629.651 98.0721 631.663 94.1622C633.787 90.1405 634.849 85.5604 634.849 80.4216C634.849 75.3946 633.787 70.8703 631.663 66.8486C629.651 62.827 626.912 59.6991 623.447 57.4649C619.981 55.2306 616.124 54.1135 611.876 54.1135C607.516 54.1135 603.604 55.2865 600.138 57.6324C596.673 59.8667 593.934 62.9946 591.922 67.0162C589.909 70.9261 588.903 75.4505 588.903 80.5892Z" stroke="#39E22B" stroke-width="4" mask="url(#path-1-outside-1_11_32)"/>
<path d="M733.021 124.324L707.365 86.4541L695.459 98.1838V124.324H672.989V2H695.459V76.0649L730.841 36.6865H754.652L721.953 73.8865L757 124.324H733.021Z" stroke="#39E22B" stroke-width="4" mask="url(#path-1-outside-1_11_32)"/>
</svg>
