<svg width="566" height="136" viewBox="0 0 566 136" fill="none" xmlns="http://www.w3.org/2000/svg">
<mask id="path-1-outside-1_11_36" maskUnits="userSpaceOnUse" x="0" y="0" width="567" height="136" fill="black">
<rect fill="white" width="567" height="136"/>
<path d="M1 133.149V1.74033H26.3647V54.674H39.3247L78.39 1.74033H106.902L59.1351 65.4088L110.605 133.149H79.686L38.9544 77.8094H26.3647V133.149H1Z"/>
<path d="M164.171 135C156.395 135 149.359 133.704 143.064 131.113C136.769 128.399 131.4 124.759 126.957 120.193C122.513 115.505 119.057 110.199 116.589 104.276C114.244 98.2302 113.071 91.8757 113.071 85.2127C113.071 75.9586 115.108 67.5064 119.181 59.8564C123.377 52.2063 129.302 46.0985 136.955 41.5331C144.731 36.8444 153.864 34.5 164.356 34.5C174.971 34.5 184.043 36.8444 191.572 41.5331C199.101 46.0985 204.841 52.2063 208.79 59.8564C212.863 67.3831 214.9 75.5267 214.9 84.2873C214.9 85.768 214.838 87.3103 214.715 88.9144C214.591 90.395 214.468 91.6289 214.345 92.616H139.361C139.855 97.5516 141.275 101.87 143.62 105.572C146.088 109.273 149.174 112.111 152.877 114.086C156.703 115.936 160.776 116.862 165.096 116.862C170.034 116.862 174.662 115.69 178.982 113.345C183.426 110.878 186.45 107.669 188.054 103.721L209.346 109.644C207.001 114.579 203.606 118.959 199.163 122.785C194.843 126.61 189.721 129.633 183.796 131.854C177.871 133.951 171.33 135 164.171 135ZM138.806 76.884H189.535C189.042 71.9484 187.622 67.6915 185.277 64.1133C183.055 60.4116 180.093 57.5737 176.39 55.5994C172.687 53.5018 168.552 52.453 163.986 52.453C159.542 52.453 155.469 53.5018 151.766 55.5994C148.187 57.5737 145.224 60.4116 142.879 64.1133C140.657 67.6915 139.3 71.9484 138.806 76.884Z"/>
<path d="M230.014 133.149V36.3508H254.823V100.019L298.332 36.1657H320.919V133.149H296.11V70.9613L253.157 133.149H230.014ZM275.559 27.0967C266.055 27.0967 258.588 24.6906 253.157 19.8785C247.726 14.9429 245.01 8.6501 245.01 1H260.377C260.377 4.70166 261.612 7.78638 264.08 10.2541C266.549 12.7219 270.375 13.9558 275.559 13.9558C280.743 13.9558 284.446 12.7836 286.668 10.4392C289.013 8.09484 290.432 4.94844 290.926 1H306.293C306.293 8.6501 303.577 14.9429 298.147 19.8785C292.716 24.6906 285.187 27.0967 275.559 27.0967Z"/>
<path d="M388.734 135C380.834 135 373.737 133.704 367.442 131.113C361.147 128.399 355.778 124.697 351.335 120.008C346.891 115.196 343.435 109.767 340.967 103.721C338.622 97.6749 337.449 91.3204 337.449 84.6575C337.449 75.5267 339.486 67.198 343.559 59.6713C347.755 52.0212 353.68 45.9134 361.333 41.3481C368.985 36.7827 378.057 34.5 388.549 34.5C399.04 34.5 408.05 36.7827 415.58 41.3481C423.109 45.9134 428.725 51.8978 432.428 59.3011L408.174 66.7044C406.076 63.1262 403.298 60.4116 399.842 58.5608C396.386 56.5866 392.56 55.5994 388.364 55.5994C383.673 55.5994 379.353 56.8333 375.404 59.3011C371.577 61.6455 368.553 65.0387 366.331 69.4807C364.11 73.7993 362.999 78.8582 362.999 84.6575C362.999 90.3333 364.11 95.3923 366.331 99.8343C368.677 104.153 371.762 107.608 375.589 110.199C379.415 112.667 383.673 113.901 388.364 113.901C391.326 113.901 394.103 113.407 396.695 112.42C399.41 111.433 401.817 110.076 403.916 108.348C406.014 106.621 407.557 104.646 408.544 102.425L432.798 109.829C430.576 114.641 427.305 118.959 422.985 122.785C418.789 126.61 413.79 129.633 407.989 131.854C402.311 133.951 395.893 135 388.734 135Z"/>
<path d="M448.064 133.149V36.1657H472.873V66.7044H489.906C501.632 66.7044 510.58 69.6657 516.752 75.5884C522.923 81.5111 526.009 89.3462 526.009 99.0939C526.009 105.634 524.651 111.494 521.936 116.677C519.344 121.859 515.518 125.931 510.457 128.892C505.396 131.73 499.102 133.149 491.572 133.149H448.064ZM472.873 114.271H487.684C491.14 114.271 493.918 113.592 496.016 112.235C498.114 110.878 499.657 109.088 500.644 106.867C501.755 104.646 502.311 102.117 502.311 99.279C502.311 96.5645 501.817 94.1584 500.83 92.0608C499.842 89.8398 498.238 88.1123 496.016 86.8785C493.918 85.5212 491.079 84.8425 487.499 84.8425H472.873V114.271ZM541.191 133.149V36.3508H566V133.149H541.191Z"/>
</mask>
<path d="M1 133.149V1.74033H26.3647V54.674H39.3247L78.39 1.74033H106.902L59.1351 65.4088L110.605 133.149H79.686L38.9544 77.8094H26.3647V133.149H1Z" stroke="#272827" stroke-width="2" mask="url(#path-1-outside-1_11_36)"/>
<path d="M164.171 135C156.395 135 149.359 133.704 143.064 131.113C136.769 128.399 131.4 124.759 126.957 120.193C122.513 115.505 119.057 110.199 116.589 104.276C114.244 98.2302 113.071 91.8757 113.071 85.2127C113.071 75.9586 115.108 67.5064 119.181 59.8564C123.377 52.2063 129.302 46.0985 136.955 41.5331C144.731 36.8444 153.864 34.5 164.356 34.5C174.971 34.5 184.043 36.8444 191.572 41.5331C199.101 46.0985 204.841 52.2063 208.79 59.8564C212.863 67.3831 214.9 75.5267 214.9 84.2873C214.9 85.768 214.838 87.3103 214.715 88.9144C214.591 90.395 214.468 91.6289 214.345 92.616H139.361C139.855 97.5516 141.275 101.87 143.62 105.572C146.088 109.273 149.174 112.111 152.877 114.086C156.703 115.936 160.776 116.862 165.096 116.862C170.034 116.862 174.662 115.69 178.982 113.345C183.426 110.878 186.45 107.669 188.054 103.721L209.346 109.644C207.001 114.579 203.606 118.959 199.163 122.785C194.843 126.61 189.721 129.633 183.796 131.854C177.871 133.951 171.33 135 164.171 135ZM138.806 76.884H189.535C189.042 71.9484 187.622 67.6915 185.277 64.1133C183.055 60.4116 180.093 57.5737 176.39 55.5994C172.687 53.5018 168.552 52.453 163.986 52.453C159.542 52.453 155.469 53.5018 151.766 55.5994C148.187 57.5737 145.224 60.4116 142.879 64.1133C140.657 67.6915 139.3 71.9484 138.806 76.884Z" stroke="#272827" stroke-width="2" mask="url(#path-1-outside-1_11_36)"/>
<path d="M230.014 133.149V36.3508H254.823V100.019L298.332 36.1657H320.919V133.149H296.11V70.9613L253.157 133.149H230.014ZM275.559 27.0967C266.055 27.0967 258.588 24.6906 253.157 19.8785C247.726 14.9429 245.01 8.6501 245.01 1H260.377C260.377 4.70166 261.612 7.78638 264.08 10.2541C266.549 12.7219 270.375 13.9558 275.559 13.9558C280.743 13.9558 284.446 12.7836 286.668 10.4392C289.013 8.09484 290.432 4.94844 290.926 1H306.293C306.293 8.6501 303.577 14.9429 298.147 19.8785C292.716 24.6906 285.187 27.0967 275.559 27.0967Z" stroke="#272827" stroke-width="2" mask="url(#path-1-outside-1_11_36)"/>
<path d="M388.734 135C380.834 135 373.737 133.704 367.442 131.113C361.147 128.399 355.778 124.697 351.335 120.008C346.891 115.196 343.435 109.767 340.967 103.721C338.622 97.6749 337.449 91.3204 337.449 84.6575C337.449 75.5267 339.486 67.198 343.559 59.6713C347.755 52.0212 353.68 45.9134 361.333 41.3481C368.985 36.7827 378.057 34.5 388.549 34.5C399.04 34.5 408.05 36.7827 415.58 41.3481C423.109 45.9134 428.725 51.8978 432.428 59.3011L408.174 66.7044C406.076 63.1262 403.298 60.4116 399.842 58.5608C396.386 56.5866 392.56 55.5994 388.364 55.5994C383.673 55.5994 379.353 56.8333 375.404 59.3011C371.577 61.6455 368.553 65.0387 366.331 69.4807C364.11 73.7993 362.999 78.8582 362.999 84.6575C362.999 90.3333 364.11 95.3923 366.331 99.8343C368.677 104.153 371.762 107.608 375.589 110.199C379.415 112.667 383.673 113.901 388.364 113.901C391.326 113.901 394.103 113.407 396.695 112.42C399.41 111.433 401.817 110.076 403.916 108.348C406.014 106.621 407.557 104.646 408.544 102.425L432.798 109.829C430.576 114.641 427.305 118.959 422.985 122.785C418.789 126.61 413.79 129.633 407.989 131.854C402.311 133.951 395.893 135 388.734 135Z" stroke="#272827" stroke-width="2" mask="url(#path-1-outside-1_11_36)"/>
<path d="M448.064 133.149V36.1657H472.873V66.7044H489.906C501.632 66.7044 510.58 69.6657 516.752 75.5884C522.923 81.5111 526.009 89.3462 526.009 99.0939C526.009 105.634 524.651 111.494 521.936 116.677C519.344 121.859 515.518 125.931 510.457 128.892C505.396 131.73 499.102 133.149 491.572 133.149H448.064ZM472.873 114.271H487.684C491.14 114.271 493.918 113.592 496.016 112.235C498.114 110.878 499.657 109.088 500.644 106.867C501.755 104.646 502.311 102.117 502.311 99.279C502.311 96.5645 501.817 94.1584 500.83 92.0608C499.842 89.8398 498.238 88.1123 496.016 86.8785C493.918 85.5212 491.079 84.8425 487.499 84.8425H472.873V114.271ZM541.191 133.149V36.3508H566V133.149H541.191Z" stroke="#272827" stroke-width="2" mask="url(#path-1-outside-1_11_36)"/>
</svg>
