<svg width="250" height="60" viewBox="0 0 576 95" fill="none" xmlns="http://www.w3.org/2000/svg">
<path d="M73.5008 70.287C73.5008 75.2833 72.186 79.4907 69.5564 82.975C66.9268 86.3935 63.3768 89.0231 58.9064 90.7981C54.4361 92.5731 49.5712 93.4935 44.312 93.4935H0.594376V2.96849H48.9795C53.2527 2.96849 56.8684 4.08609 60.024 6.32127C63.1138 8.55646 65.4805 11.449 67.1897 14.999C68.8333 18.549 69.6879 22.1648 69.6879 26.0435C69.6879 30.3824 68.5703 34.4583 66.4008 38.337C64.1657 42.2157 60.9444 45.1083 56.7369 47.0805C61.9305 48.5926 66.0064 51.3537 69.0305 55.3638C71.9888 59.374 73.5008 64.3046 73.5008 70.287ZM18.2129 18.0231V40.8352H41.6823C43.6546 40.8352 45.4296 40.375 47.0073 39.4546C48.6508 38.5342 49.8999 37.2194 50.886 35.5102C51.8722 33.8009 52.3324 31.8287 52.3324 29.5277C52.3324 27.1611 51.8722 25.1231 51.0175 23.4796C50.0972 21.8361 48.9138 20.5213 47.4675 19.5351C45.9555 18.549 44.312 18.0889 42.4055 18.0889H18.2129V18.0231ZM55.8166 66.8028C55.8166 64.5018 55.3564 62.4638 54.436 60.6231C53.5157 58.7824 52.2666 57.3361 50.6888 56.2185C49.1111 55.1009 47.336 54.575 45.2981 54.575H18.2129V78.5046H44.312C46.4157 78.5046 48.3879 77.9787 50.0971 76.9268C51.8064 75.875 53.187 74.4287 54.2388 72.6537C55.2907 70.8787 55.8166 68.9722 55.8166 66.8028Z" fill="white"/>
<path d="M125.502 41.4925C120.243 41.5583 115.575 42.5444 111.499 44.5166C107.423 46.4231 104.465 49.25 102.558 52.9972V93.4935H85.5971V27.3583H101.243V40.9666C103.61 36.3648 106.634 32.749 110.381 30.1194C114.063 27.4898 117.942 26.0435 122.018 25.7805C122.872 25.8462 123.53 25.912 124.055 25.8462C124.581 25.7805 125.042 25.8463 125.436 26.0435V41.4925H125.502Z" fill="white"/>
<path d="M129.972 73.9685C129.972 69.6953 131.156 65.9481 133.588 62.7925C136.02 59.5712 139.373 57.1389 143.646 55.2981C147.919 53.5231 152.916 52.6027 158.635 52.6027C161.462 52.6027 164.289 52.7999 167.182 53.2601C170.074 53.6546 172.572 54.3778 174.676 55.2981V51.6166C174.676 47.5407 173.427 44.3852 170.994 42.0842C168.562 39.849 164.815 38.7314 159.884 38.7314C156.137 38.7314 152.653 39.3888 149.3 40.6379C146.013 41.887 142.529 43.7278 138.847 46.0944L133.522 34.9842C137.861 32.0259 142.332 29.8564 146.933 28.4101C151.535 27.0296 156.4 26.3064 161.528 26.3064C171.06 26.3064 178.423 28.6074 183.748 33.275C189.073 37.9426 191.703 44.6481 191.703 53.4574V74.4287C191.703 76.2037 192.032 77.4527 192.689 78.1759C193.346 78.899 194.332 79.3592 195.779 79.5564V93.4277C194.267 93.6907 192.886 93.8879 191.637 94.0852C190.388 94.2824 189.336 94.2824 188.547 94.2166C185.129 94.2166 182.565 93.4935 180.856 91.9814C179.146 90.4694 178.094 88.6287 177.766 86.4592L177.371 83.0407C174.413 86.7879 170.732 89.6805 166.393 91.7185C162.054 93.7564 157.649 94.8083 153.113 94.8083C148.708 94.8083 144.698 93.8879 141.214 92.0472C137.664 90.2064 134.903 87.7083 132.931 84.5527C130.958 81.3315 129.972 77.7814 129.972 73.9685ZM171.455 77.1241C172.375 76.2694 173.164 75.349 173.756 74.2972C174.347 73.2453 174.676 72.325 174.676 71.5361V64.962C172.638 64.1074 170.403 63.5157 168.036 63.0555C165.669 62.5953 163.434 62.3981 161.265 62.3981C156.86 62.3981 153.244 63.3185 150.352 65.225C147.525 67.0657 146.079 69.5639 146.079 72.5879C146.079 74.2314 146.539 75.8092 147.459 77.387C148.38 78.899 149.76 80.1481 151.469 81.0685C153.179 81.9889 155.348 82.449 157.912 82.449C160.476 82.449 162.974 81.9231 165.407 80.937C167.97 79.8852 169.943 78.6361 171.455 77.1241Z" fill="white"/>
<path d="M207.678 17.2342V0.404633H224.639V17.2342H207.678ZM207.678 93.4278V26.7009H224.639V93.4278H207.678Z" fill="white"/>
<path d="M302.213 93.4278H285.12V56.5472C285.12 51.288 284.2 47.4093 282.359 44.9769C280.519 42.5445 277.889 41.3611 274.536 41.3611C272.235 41.3611 269.934 41.9528 267.568 43.0704C265.201 44.2537 263.163 45.8315 261.322 47.8695C259.481 49.9074 258.101 52.2741 257.049 54.9037V93.4278H240.088V27.3584H255.471V39.7176C257.181 36.8908 259.35 34.4584 261.98 32.5519C264.609 30.6454 267.633 29.1334 271.052 28.0158C274.47 26.8982 278.086 26.3723 282.031 26.3723C286.172 26.3723 289.591 27.0954 292.286 28.6074C294.981 30.1195 297.019 32.0917 298.4 34.5898C299.78 37.088 300.767 39.9148 301.358 42.9389C301.884 46.0287 302.213 49.1185 302.213 52.2084V93.4278Z" fill="white"/>
<path d="M316.939 0.470367H334.032V72.1935C334.032 75.3491 334.557 77.4528 335.544 78.5046C336.595 79.5565 337.91 80.0824 339.619 80.0824C341.132 80.0824 342.644 79.8852 344.024 79.5565C345.405 79.2278 346.654 78.7676 347.771 78.1759L350.072 91.3241C347.771 92.4417 345.142 93.2963 342.118 93.888C339.094 94.4797 336.332 94.8083 333.769 94.8083C328.444 94.8083 324.302 93.362 321.344 90.5352C318.385 87.7083 316.939 83.6324 316.939 78.4389V0.470367Z" fill="white"/>
<path d="M388.268 94.7426C382.811 94.7426 377.946 93.8222 373.673 91.9815C369.4 90.1408 365.719 87.6426 362.629 84.4213C359.539 81.2 357.238 77.5843 355.66 73.5084C354.082 69.4324 353.293 65.1593 353.293 60.6232C353.293 55.8898 354.082 51.4852 355.66 47.4093C357.238 43.2676 359.539 39.6519 362.563 36.4963C365.587 33.3408 369.268 30.8426 373.607 29.0676C377.946 27.2926 382.811 26.3723 388.136 26.3723C393.658 26.3723 398.589 27.2926 402.862 29.0676C407.135 30.8426 410.817 33.3408 413.906 36.4963C416.996 39.6519 419.297 43.2676 420.941 47.4093C422.584 51.551 423.373 55.9556 423.373 60.6232C423.373 65.1593 422.584 69.4324 420.941 73.5084C419.297 77.5843 416.996 81.2 413.906 84.4213C410.817 87.6426 407.201 90.1408 402.862 91.9815C398.589 93.8222 393.724 94.7426 388.268 94.7426ZM370.846 60.5574C370.846 64.3047 371.635 67.6574 373.147 70.6815C374.659 73.7056 376.763 76.0065 379.458 77.65C382.154 79.2935 385.112 80.1482 388.333 80.1482C391.555 80.1482 394.513 79.2935 397.143 77.5843C399.772 75.875 401.876 73.5741 403.454 70.6158C405.031 67.6574 405.82 64.2389 405.82 60.4259C405.82 56.6787 405.031 53.326 403.454 50.3676C401.876 47.4093 399.772 45.1084 397.143 43.3991C394.513 41.6898 391.555 40.8352 388.202 40.8352C384.981 40.8352 382.022 41.6898 379.393 43.3991C376.763 45.1084 374.659 47.4093 373.147 50.3676C371.635 53.326 370.846 56.7445 370.846 60.5574Z" fill="white"/>
<path d="M465.513 94.7426C460.056 94.7426 455.192 93.8222 450.918 91.9815C446.645 90.1408 442.964 87.6426 439.874 84.4213C436.784 81.2 434.483 77.5843 432.906 73.5084C431.328 69.4324 430.539 65.1593 430.539 60.6232C430.539 55.8898 431.328 51.4852 432.906 47.4093C434.483 43.2676 436.784 39.6519 439.808 36.4963C442.832 33.3408 446.514 30.8426 450.853 29.0676C455.192 27.2926 460.056 26.3723 465.381 26.3723C470.904 26.3723 475.834 27.2926 480.107 29.0676C484.381 30.8426 488.062 33.3408 491.152 36.4963C494.242 39.6519 496.543 43.2676 498.186 47.4093C499.83 51.551 500.619 55.9556 500.619 60.6232C500.619 65.1593 499.83 69.4324 498.186 73.5084C496.543 77.5843 494.242 81.2 491.152 84.4213C488.062 87.6426 484.446 90.1408 480.107 91.9815C475.768 93.8222 470.904 94.7426 465.513 94.7426ZM448.026 60.5574C448.026 64.3047 448.815 67.6574 450.327 70.6815C451.839 73.7056 453.943 76.0065 456.638 77.65C459.333 79.2935 462.292 80.1482 465.513 80.1482C468.734 80.1482 471.693 79.2935 474.322 77.5843C476.952 75.875 479.056 73.5741 480.633 70.6158C482.211 67.6574 483 64.2389 483 60.4259C483 56.6787 482.211 53.326 480.633 50.3676C479.056 47.4093 476.952 45.1084 474.322 43.3991C471.693 41.6898 468.734 40.8352 465.381 40.8352C462.16 40.8352 459.202 41.6898 456.572 43.3991C453.943 45.1084 451.839 47.4093 450.327 50.3676C448.815 53.326 448.026 56.7445 448.026 60.5574Z" fill="white"/>
<path d="M557.484 93.4278L538.025 64.8306L528.821 73.7056V93.4278H511.86V0.470367H528.821V57.0732L555.841 27.3583H573.92L549.069 55.4297L575.694 93.4935H557.484V93.4278Z" fill="white"/>
</svg>
