<svg width="110" height="150" viewBox="40 87 61 85" fill="none" xmlns="http://www.w3.org/2000/svg" preserveAspectRatio="none">
<mask id="mask0_3_115" style="mask-type:luminance" maskUnits="userSpaceOnUse" x="-49" y="0" width="461" height="260">
<path d="M412 0H-49V259.312H412V0Z" fill="white"/>
</mask>
<g mask="url(#mask0_3_115)">
<path d="M62.5764 152.634H79.3837C79.4558 152.634 79.5278 152.634 79.5998 152.634C79.6478 152.634 79.6718 152.634 79.7199 152.634H79.8879C82.6011 152.49 84.7861 150.233 84.7861 147.472V144.423C94.5103 139.429 101.161 129.32 101.161 117.675C101.161 101.084 87.6673 87.6143 71.1001 87.6143C54.533 87.5903 41.0391 101.084 41.0391 117.675C41.0391 134.243 54.533 147.736 71.1001 147.736C73.6693 147.736 76.1903 147.4 78.5674 146.8V128.144H74.4376V143.39C73.3331 143.535 72.2286 143.607 71.1001 143.607C66.4181 143.607 62.0242 142.358 58.2306 140.173L57.4382 139.717C50.067 135.131 45.1449 126.967 45.1449 117.675C45.1449 103.365 56.7899 91.7441 71.0761 91.7441C85.3623 91.7441 97.0074 103.389 97.0074 117.675C97.0074 128.6 90.2124 137.964 80.6323 141.782V146.176V147.472C80.6323 148.024 80.1761 148.505 79.6238 148.529H62.5284C59.6712 148.529 57.3422 150.858 57.3422 153.715C57.3422 156.572 59.6712 158.901 62.5284 158.901H78.8075H79.5998C80.1761 158.901 80.6563 159.381 80.6563 159.958C80.6563 160.534 80.1761 161.014 79.5998 161.014H78.8075H74.8938C74.9178 161.927 74.9178 163.631 74.9178 163.799C74.9178 164.28 74.8217 164.736 74.6777 165.144C74.1254 166.585 72.7328 167.617 71.1241 167.617C69.4914 167.617 68.0988 166.585 67.5706 165.144C67.4025 164.712 67.3305 164.28 67.3305 163.799C67.3305 163.631 67.3545 161.927 67.3545 161.014H63.2247C63.2247 161.927 63.2007 163.631 63.2007 163.799C63.2007 164.256 63.2487 164.712 63.3208 165.144C63.969 168.89 67.2104 171.723 71.1482 171.723C75.0619 171.723 78.3273 168.866 78.9756 165.144H79.6959C82.5531 165.144 84.8821 162.815 84.8821 159.958C84.8821 157.1 82.5531 154.771 79.6959 154.771H62.6245C62.0482 154.771 61.568 154.291 61.568 153.715C61.52 153.115 62.0002 152.634 62.5764 152.634Z" fill="white"/>
</g>
<mask id="mask1_3_115" style="mask-type:luminance" maskUnits="userSpaceOnUse" x="-49" y="0" width="461" height="260">
<path d="M412 0H-49V259.312H412V0Z" fill="white"/>
</mask>
<g mask="url(#mask1_3_115)">
<path d="M71.1242 134.795C61.7841 134.795 54.1968 127.207 54.1968 117.867C54.1968 108.527 61.7841 100.94 71.1242 100.94C80.4642 100.94 88.0515 108.527 88.0515 117.867C88.0275 127.207 80.4402 134.795 71.1242 134.795ZM71.1242 103.653C63.2968 103.653 56.91 110.04 56.91 117.867C56.91 125.695 63.2968 132.081 71.1242 132.081C78.9515 132.081 85.3383 125.695 85.3383 117.867C85.3143 110.04 78.9515 103.653 71.1242 103.653Z" fill="white"/>
</g>
<mask id="mask2_3_115" style="mask-type:luminance" maskUnits="userSpaceOnUse" x="-49" y="0" width="461" height="260">
<path d="M412 0H-49V259.312H412V0Z" fill="white"/>
</mask>
<g mask="url(#mask2_3_115)">
<path d="M86.6829 117.867C86.6829 126.463 79.7199 133.426 71.1241 133.426C62.5284 133.426 55.5654 126.463 55.5654 117.867C55.5654 109.272 62.5284 102.309 71.1241 102.309C79.7199 102.309 86.6829 109.272 86.6829 117.867Z" fill="#E0E0E0"/>
</g>
<mask id="mask3_3_115" style="mask-type:luminance" maskUnits="userSpaceOnUse" x="-49" y="0" width="461" height="260">
<path d="M412 0H-49V259.312H412V0Z" fill="white"/>
</mask>
<g mask="url(#mask3_3_115)">
<path d="M80.0079 117.867C80.0079 122.789 76.0222 126.751 71.1241 126.751C66.226 126.751 62.2402 122.765 62.2402 117.867C62.2402 112.969 66.226 108.983 71.1241 108.983C76.0222 108.983 80.0079 112.969 80.0079 117.867Z" fill="#272827"/>
</g>
<mask id="mask4_3_115" style="mask-type:luminance" maskUnits="userSpaceOnUse" x="-49" y="0" width="461" height="260">
<path d="M412 0H-49V259.312H412V0Z" fill="white"/>
</mask>
<g mask="url(#mask4_3_115)">
<path d="M70.0197 114.89C70.3318 115.586 69.9956 116.402 69.2753 116.714C68.555 117.027 67.7387 116.714 67.4505 116.018C67.1384 115.322 67.4745 114.506 68.1949 114.193C68.8912 113.881 69.7315 114.193 70.0197 114.89Z" fill="white"/>
</g>
<mask id="mask5_3_115" style="mask-type:luminance" maskUnits="userSpaceOnUse" x="-49" y="0" width="461" height="260">
<path d="M412 0H-49V259.312H412V0Z" fill="white"/>
</mask>
<g mask="url(#mask5_3_115)">
<g opacity="0.46">
<mask id="mask6_3_115" style="mask-type:luminance" maskUnits="userSpaceOnUse" x="62" y="117" width="11" height="10">
<path d="M72.9009 117.843H62.6244V126.751H72.9009V117.843Z" fill="white"/>
</mask>
<g mask="url(#mask6_3_115)">
<path d="M72.4447 121.061C71.2442 118.299 67.9787 117.075 65.1455 118.323C64.065 118.804 63.2007 119.572 62.6244 120.508C63.7529 124.134 67.1144 126.775 71.1241 126.775C71.2922 126.775 71.4603 126.775 71.6043 126.751C72.9009 125.19 73.3091 123.006 72.4447 121.061Z" fill="#39E22B"/>
</g>
</g>
</g>
</svg>
