<svg width="75%" height="99.5%" viewBox="0 0 929 768" fill="none" preserveAspectRatio="none" xmlns="http://www.w3.org/2000/svg">
<path fill-rule="evenodd" clip-rule="evenodd" d="M889.649 733.648V766.029C889.649 766.17 889.649 766.451 889.509 766.592C889.228 767.155 888.524 767.296 888.102 767.015L830.299 733.648V766.029C830.299 766.17 830.299 766.451 830.158 766.592C829.877 767.155 829.174 767.296 828.752 767.015L770.948 733.648V766.029C770.948 766.17 770.948 766.451 770.808 766.592C770.526 767.155 769.823 767.296 769.401 767.015L711.598 733.648V766.029C711.598 766.17 711.598 766.451 711.457 766.592C711.176 767.155 710.473 767.296 710.051 767.015L652.247 733.648V766.029C652.247 766.17 652.247 766.451 652.107 766.592C651.825 767.155 651.122 767.296 650.7 767.015L592.897 733.648V766.029C592.897 766.17 592.897 766.451 592.756 766.592C592.475 767.155 591.771 767.296 591.35 767.015L533.546 733.648V766.029C533.546 766.17 533.546 766.451 533.405 766.592C533.124 767.155 532.421 767.296 531.999 767.015L474.195 733.648V766.029C474.195 766.17 474.195 766.451 474.055 766.592C473.774 767.155 473.07 767.296 472.648 767.015L414.845 733.648V766.029C414.845 766.17 414.845 766.451 414.704 766.592C414.423 767.155 413.72 767.296 413.298 767.015L355.494 733.648V766.029C355.494 766.17 355.494 766.451 355.354 766.592C355.072 767.155 354.369 767.296 353.947 767.015L296.144 733.648V766.029C296.144 766.17 296.144 766.451 296.003 766.592C295.722 767.155 295.019 767.296 294.597 767.015L236.793 733.648V766.029C236.793 766.17 236.793 766.451 236.653 766.592C236.371 767.155 235.668 767.296 235.246 767.015L177.443 733.648V766.029C177.443 766.17 177.443 766.451 177.302 766.592C177.021 767.155 176.318 767.296 175.896 767.015L118.092 733.648V766.029C118.092 766.17 118.092 766.451 117.951 766.592C117.67 767.155 116.967 767.296 116.545 767.015L58.7415 733.648V766.029C58.7415 766.17 58.7415 766.451 58.6009 766.592C58.3196 767.155 57.6164 767.296 57.1945 767.015L-2.43738 732.522C-2.57806 732.381 -2.71869 732.24 -2.85931 732.1C-3.14056 731.536 -2.99994 730.973 -2.43738 730.692L25.9721 714.361L-2.43738 697.889C-2.57806 697.748 -2.71869 697.607 -2.85931 697.466C-3.14056 696.903 -2.99994 696.34 -2.43738 696.059L25.9721 679.587L-2.43738 663.115C-2.57806 662.974 -2.71869 662.833 -2.85931 662.692C-3.14056 662.129 -2.99994 661.566 -2.43738 661.284L26.1127 644.813L-2.43738 628.341C-2.57806 628.2 -2.71869 628.059 -2.85931 627.918C-3.14056 627.355 -2.99994 626.792 -2.43738 626.51L26.1127 610.038L-2.43738 593.567C-2.57806 593.426 -2.71869 593.285 -2.85931 593.144C-3.14056 592.581 -2.99994 592.018 -2.43738 591.736L25.8315 575.405L-2.43738 559.074C-2.57806 558.933 -2.71869 558.792 -2.85931 558.652C-3.14056 558.089 -2.99994 557.525 -2.43738 557.244L25.6909 541.053L-2.29669 524.863C-2.43738 524.722 -2.57806 524.582 -2.71869 524.441C-3 523.878 -2.85925 523.314 -2.29669 523.033L25.9721 506.42L-2.43738 489.948C-2.57806 489.807 -2.71869 489.667 -2.85931 489.526C-3.14056 488.963 -2.99994 488.4 -2.43738 488.118L25.9721 471.646L-2.43738 455.174C-2.57806 455.033 -2.71869 454.893 -2.85931 454.752C-3.14056 454.189 -2.99994 453.626 -2.43738 453.344L26.1127 437.013L-2.43738 420.541C-2.57806 420.4 -2.71869 420.259 -2.85931 420.119C-3.14056 419.555 -2.99994 418.992 -2.43738 418.711L26.1127 402.239L-2.43738 385.767C-2.57806 385.626 -2.71869 385.485 -2.85931 385.344C-3.14056 384.781 -2.99994 384.218 -2.43738 383.937L25.8315 367.605L-2.43738 351.274C-2.57806 351.134 -2.71869 350.993 -2.85931 350.852C-3.14056 350.289 -2.99994 349.726 -2.43738 349.444L25.6909 333.254L-2.29669 317.063C-2.43738 316.923 -2.57806 316.782 -2.71869 316.641C-3 316.078 -2.85925 315.515 -2.29669 315.233L25.9721 298.48L-2.43738 282.008C-2.57806 281.867 -2.71869 281.726 -2.85931 281.585C-3.14056 281.022 -2.99994 280.459 -2.43738 280.178L25.9721 263.846L-2.43738 247.374C-2.57806 247.234 -2.71869 247.093 -2.85931 246.952C-3.14056 246.389 -2.99994 245.826 -2.43738 245.544L26.1127 229.072L-2.43738 212.6C-2.57806 212.46 -2.71869 212.319 -2.85931 212.178C-3.14056 211.615 -2.99994 211.052 -2.43738 210.77L26.1127 194.298L-2.43738 177.826C-2.57806 177.686 -2.71869 177.545 -2.85931 177.404C-3.14056 176.841 -2.99994 176.278 -2.43738 175.996L25.8315 159.665L-2.43738 143.334C-2.57806 143.193 -2.71869 143.052 -2.85931 142.911C-3.14056 142.348 -2.99994 141.785 -2.43738 141.504L25.6909 125.313L-2.29669 109.123C-2.43738 108.982 -2.57806 108.841 -2.71869 108.701C-3 108.137 -2.85925 107.574 -2.29669 107.293L25.9721 90.5392L-2.43738 74.0673C-2.57806 73.9265 -2.71869 73.7857 -2.85931 73.6449C-3.14056 73.0818 -2.99994 72.5186 -2.43738 72.2371L25.9721 55.9059L-2.43738 39.434C-2.57806 39.2932 -2.71869 39.1524 -2.85931 39.0116C-3.14056 38.4485 -2.99994 37.8854 -2.43738 37.6038L26.1127 21.1319L-2.43738 4.65993C-2.57806 4.51914 -2.71869 4.37835 -2.85931 4.23756C-3.14056 3.67442 -2.99994 3.11128 -2.43738 2.8297L26.1127 -13.6422L-2.43738 -30.1141C-2.57806 -30.2549 -2.71869 -30.3957 -2.85931 -30.5365C-3.14056 -31.0996 -2.99994 -31.6628 -2.43738 -31.9444L26.8159 -48.8386C26.9566 -49.1202 27.0973 -49.261 27.2379 -49.4018L57.1945 -66.8592C57.3351 -67 57.4757 -67 57.757 -67C58.3196 -67 58.8822 -66.5776 58.8822 -65.8737V-33.2114L86.1665 -48.9794C86.3072 -49.261 86.4478 -49.4018 86.5884 -49.5426L116.545 -66.8592C116.686 -67 116.826 -67 117.108 -67C117.67 -67 118.233 -66.5776 118.233 -65.8737V-33.2114L145.517 -48.9794C145.658 -49.261 145.798 -49.4018 145.939 -49.5426L175.896 -66.8592C176.036 -67 176.177 -67 176.458 -67C177.021 -67 177.583 -66.5776 177.583 -65.8737V-33.2114L204.868 -48.9794C205.008 -49.261 205.149 -49.4018 205.29 -49.5426L235.246 -66.8592C235.387 -67 235.527 -67 235.809 -67C236.371 -67 236.934 -66.5776 236.934 -65.8737V-33.2114L264.218 -48.9794C264.359 -49.261 264.5 -49.4018 264.64 -49.5426L294.456 -66.8592C294.737 -67 294.878 -67 295.159 -67C295.722 -67 296.284 -66.5776 296.284 -65.8737V-33.2114L323.569 -48.9794C323.709 -49.261 323.85 -49.4018 323.991 -49.5426L353.807 -66.8592C354.088 -67 354.229 -67 354.369 -67C354.932 -67 355.494 -66.5776 355.494 -65.8737V-33.2114L382.779 -48.9794C382.919 -49.261 383.06 -49.4018 383.201 -49.5426L413.157 -66.8592C413.438 -67 413.579 -67 413.72 -67C414.282 -67 414.845 -66.5776 414.845 -65.8737V-33.2114L442.129 -48.9794C442.27 -49.261 442.411 -49.4018 442.551 -49.5426L472.508 -66.8592C472.789 -67 472.93 -67 473.07 -67C473.633 -67 474.195 -66.5776 474.195 -65.8737V-33.2114L501.48 -48.9794C501.621 -49.261 501.761 -49.4018 501.902 -49.5426L531.858 -66.8592C531.999 -67 532.28 -67 532.421 -67C532.983 -67 533.546 -66.5776 533.546 -65.8737V-33.2114L560.83 -48.9794C560.971 -49.261 561.112 -49.4018 561.252 -49.5426L591.209 -66.8592C591.35 -67 591.631 -67 591.771 -67C592.334 -67 592.897 -66.5776 592.897 -65.8737V-33.2114L620.181 -48.9794C620.322 -49.261 620.462 -49.4018 620.603 -49.5426L650.559 -66.8592C650.7 -67 650.981 -67 651.122 -67C651.685 -67 652.247 -66.5776 652.247 -65.8737V-33.2114L679.532 -48.9794C679.672 -49.261 679.813 -49.4018 679.953 -49.5426L709.91 -66.8592C710.051 -67 710.332 -67 710.473 -67C711.035 -67 711.598 -66.5776 711.598 -65.8737V-33.2114L738.882 -48.9794C739.023 -49.261 739.163 -49.4018 739.304 -49.5426L769.261 -66.8592C769.401 -67 769.683 -67 769.823 -67C770.386 -67 770.948 -66.5776 770.948 -65.8737V-33.2114L798.233 -48.9794C798.373 -49.261 798.514 -49.4018 798.655 -49.5426L828.611 -66.8592C828.752 -67 829.033 -67 829.174 -67C829.736 -67 830.299 -66.5776 830.299 -65.8737V-33.2114L857.443 -48.9794C857.583 -49.261 857.724 -49.4018 857.865 -49.5426L887.962 -66.8592C888.102 -67 888.384 -67 888.524 -67C889.087 -67 889.649 -66.5776 889.649 -65.8737V-33.2114L916.793 -48.9794C916.934 -49.261 917.074 -49.4018 917.215 -49.5426L947.312 -66.8592C947.453 -67 947.594 -67 947.875 -67C948.437 -67 949 -66.5776 949 -65.8737V3.53364V3.67442V38.4485V38.5893V211.615V211.756V246.53V246.671L949 419.696V419.837V454.611V454.752V627.777V627.918V662.692V662.833V766.874C949 767.015 949 767.296 948.859 767.437C948.578 768 947.875 768.141 947.453 767.859L889.649 733.648ZM889.649 699.015V729.565L916.09 714.361L889.649 699.015ZM889.649 664.382V694.932L916.09 679.587L889.649 664.382ZM889.649 629.467V660.158L916.231 644.813L889.649 629.467ZM889.649 594.693V625.384L916.231 610.038L889.649 594.693ZM889.649 560.06V590.61L916.09 575.405L889.649 560.06ZM889.649 525.849V556.118L915.809 541.053L889.649 525.849ZM889.649 491.075V521.625L916.09 506.279L889.649 491.075ZM889.649 456.441V486.992L916.09 471.646L889.649 456.441ZM889.649 421.526L889.649 452.218L916.231 437.013L889.649 421.526ZM889.649 386.752V417.444L916.231 402.098L889.649 386.752ZM889.649 352.119V382.67L916.09 367.465L889.649 352.119ZM887.399 348.459V317.486L860.677 332.972L887.399 348.459ZM889.649 317.908V348.036L915.809 332.972L889.649 317.908ZM889.649 283.134V313.685L916.09 298.339L889.649 283.134ZM889.649 248.501V279.051L916.09 263.846L889.649 248.501ZM889.649 213.727V244.418L916.231 229.072L889.649 213.727ZM889.649 178.812V209.503L916.231 194.157L889.649 178.812ZM889.649 144.179V174.729L916.09 159.524L889.649 144.179ZM889.649 109.968V140.237L915.809 125.172L889.649 109.968ZM919.325 611.869V642.56L945.906 627.214L919.325 611.869ZM88.4168 611.869V642.56L114.998 627.214L88.4168 611.869ZM889.649 -29.1286V1.56264L916.231 -13.783L889.649 -29.1286ZM889.649 5.78621V36.4775L916.231 21.1319L889.649 5.78621ZM889.649 40.5603V71.1108L916.09 55.9059L889.649 40.5603ZM889.649 75.1936V105.744L916.09 90.3984L889.649 75.1936ZM919.325 123.061L945.765 107.715L919.325 92.3694V123.061ZM917.074 123.342V92.3694L890.353 107.856L917.074 123.342ZM920.028 90.3984L946.75 105.885V74.912L920.028 90.3984ZM919.325 88.2866L945.765 73.0818L919.325 57.7361V88.2866ZM917.074 88.709V57.7361L890.353 73.2226L917.074 88.709ZM919.325 53.6533L945.906 38.3077L919.325 22.9621V53.6533ZM917.074 54.0757V23.1029L890.353 38.5893L917.074 54.0757ZM919.325 18.7385L945.906 3.39285L919.325 -11.9528V18.7385ZM917.074 19.1609V-11.812L890.353 3.67442L917.074 19.1609ZM919.325 -16.0356L945.625 -31.2404L919.325 -46.4453V-16.0356ZM917.074 -15.6132V-46.5861L890.353 -31.0996L917.074 -15.6132ZM919.325 157.272L945.484 142.208L919.325 127.143V157.272ZM920.028 125.032L946.75 140.518V109.545L920.028 125.032ZM917.074 157.694V126.721L890.353 142.208L917.074 157.694ZM919.325 330.86L945.765 315.656L919.325 300.31V330.86ZM917.074 331.283V300.31L890.353 315.796L917.074 331.283ZM920.028 298.339L946.75 313.825V282.852L920.028 298.339ZM919.325 296.227L945.765 280.882L919.325 265.536V296.227ZM917.074 296.649V265.677L890.353 281.163L917.074 296.649ZM919.325 261.594L945.906 246.248L919.325 230.903V261.594ZM917.074 261.875V230.903L890.353 246.389L917.074 261.875ZM919.325 226.679L945.906 211.333L919.325 195.988V226.679ZM917.074 227.101V196.128L890.353 211.615L917.074 227.101ZM919.325 191.905L945.625 176.559L919.325 161.354V191.905ZM917.074 192.186V161.214L890.353 176.7L917.074 192.186ZM919.325 365.212L945.484 350.148L919.325 335.084V365.212ZM920.028 332.972L946.75 348.459V317.486L920.028 332.972ZM917.074 365.634V334.662L890.353 350.148L917.074 365.634ZM919.325 538.801L945.765 523.596L919.325 508.25V538.801ZM917.074 539.223V508.25L890.353 523.737L917.074 539.223ZM920.028 506.139L946.75 521.625V490.652L920.028 506.139ZM919.325 504.168L945.765 488.822L919.325 473.617V504.168ZM917.074 504.59V473.617L890.353 489.104L917.074 504.59ZM919.325 469.534L945.906 454.189L919.325 438.843V469.534ZM917.074 469.816V438.843L890.353 454.329L917.074 469.816ZM919.325 434.619L945.906 419.274L919.325 403.928L919.325 434.619ZM917.074 435.042L917.074 404.069L890.353 419.555L917.074 435.042ZM919.325 399.845L945.765 384.641L919.465 369.436L919.325 399.845ZM917.074 400.127V369.154L890.353 384.641L917.074 400.127ZM919.325 573.153L945.343 558.089L919.184 543.024L919.325 573.153ZM920.028 540.913L946.75 556.399V525.426L920.028 540.913ZM917.074 573.575V542.602L890.353 558.089L917.074 573.575ZM919.325 746.741L945.765 731.396L919.325 716.05V746.741ZM917.074 747.164V716.191L890.353 731.677L917.074 747.164ZM920.028 714.079L946.75 729.565V698.593L920.028 714.079ZM919.325 712.108L945.765 696.762L919.325 681.417V712.108ZM917.074 712.53V681.558L890.353 697.044L917.074 712.53ZM919.325 677.334L945.906 661.988L919.325 646.643V677.334ZM917.074 677.756V646.784L890.353 662.27L917.074 677.756ZM917.074 642.982V612.009L890.353 627.496L917.074 642.982ZM919.325 577.235V607.786L945.765 592.581L919.325 577.235ZM917.074 608.067V577.095L890.353 592.581L917.074 608.067ZM946.75 -33.0706V-64.0435L920.028 -48.5571L946.75 -33.0706ZM946.75 71.1108V40.1379L920.028 55.6244L946.75 71.1108ZM946.75 36.3367V5.36385L920.028 20.8503L946.75 36.3367ZM946.75 1.42185V-29.551L920.028 -14.0646L946.75 1.42185ZM946.75 174.87V143.897L920.028 159.383L946.75 174.87ZM946.75 351.837L920.028 367.324L946.75 382.81V351.837ZM946.75 279.051V248.078L920.028 263.565L946.75 279.051ZM946.75 244.277V213.304L920.028 228.791L946.75 244.277ZM946.75 209.362V178.389L920.028 193.876L946.75 209.362ZM946.75 486.992V456.019L920.028 471.505L946.75 486.992ZM946.75 452.218V421.245L920.028 436.731L946.75 452.218ZM946.75 417.303L946.75 386.33L920.028 401.816L946.75 417.303ZM946.75 590.61V559.637L920.028 575.124L946.75 590.61ZM946.75 764.34V733.367L920.028 748.853L946.75 764.34ZM946.75 694.932V663.959L920.028 679.446L946.75 694.932ZM946.75 660.017V629.044L920.028 644.531L946.75 660.017ZM946.75 625.243V594.271L920.028 609.757L946.75 625.243ZM681.922 611.869L681.922 642.56L708.504 627.214L681.922 611.869ZM830.299 109.968V140.237L856.458 125.172L830.299 109.968ZM859.974 123.061L886.415 107.715L859.974 92.3694V123.061ZM856.739 90.5392L830.299 75.1936V105.744L856.739 90.5392ZM857.724 123.342V92.3694L831.002 107.856L857.724 123.342ZM860.677 90.3984L887.399 105.885V74.912L860.677 90.3984ZM859.974 88.2866L886.415 73.0818L859.974 57.7361V88.2866ZM856.739 55.9059L830.299 40.5603V71.1108L856.739 55.9059ZM857.724 88.709V57.7361L831.002 73.2226L857.724 88.709ZM859.974 53.6533L886.555 38.3077L859.974 22.8213V53.6533ZM856.88 21.1319L830.299 5.78621V36.4775L856.88 21.1319ZM857.724 54.0757V23.1029L831.002 38.5893L857.724 54.0757ZM859.974 18.7385L886.555 3.39285L859.974 -11.9528V18.7385ZM856.88 -13.783L830.299 -29.1286V1.56264L856.88 -13.783ZM857.724 19.1609V-11.812L831.002 3.67442L857.724 19.1609ZM859.974 -16.0356L886.274 -31.2404L859.974 -46.5861V-16.0356ZM622.572 -46.5861V-16.0356L649.012 -31.2404L622.572 -46.5861ZM622.572 -11.9528V18.7385L649.153 3.39285L622.572 -11.9528ZM622.572 22.8213V53.5126L649.153 38.1669L622.572 22.8213ZM622.572 57.7361V88.2866L649.012 73.0818L622.572 57.7361ZM622.572 92.3694V122.92L649.012 107.715L622.572 92.3694ZM622.572 127.143V157.412L648.731 142.348L622.572 127.143ZM622.572 161.354V191.905L648.872 176.559L622.572 161.354ZM622.572 195.988V226.679L649.153 211.333L622.572 195.988ZM622.572 230.762V261.453L649.153 246.107L622.572 230.762ZM622.572 265.677V296.227L649.012 280.882L622.572 265.677ZM622.572 300.31V330.86L649.012 315.656L622.572 300.31ZM622.572 334.943V365.212L648.731 350.148L622.572 334.943ZM622.572 369.295V399.845L649.012 384.641L622.572 369.295ZM622.572 403.928V434.619L649.153 419.274L622.572 403.928ZM622.572 438.702V469.394L649.153 454.048L622.572 438.702ZM622.572 473.617V504.168L649.012 488.822L622.572 473.617ZM622.572 508.25V538.801L649.012 523.596L622.572 508.25ZM622.572 542.884V573.153L648.731 558.089L622.572 542.884ZM622.572 577.235V607.786L649.012 592.581L622.572 577.235ZM622.572 611.869L622.572 642.56L649.153 627.214L622.572 611.869ZM622.572 646.643V677.334L649.153 661.988L622.572 646.643ZM622.572 681.558V712.108L649.012 696.762L622.572 681.558ZM622.572 716.191V746.741L649.012 731.396L622.572 716.191ZM857.724 -15.6132V-46.5861L831.002 -31.0996L857.724 -15.6132ZM830.299 144.179V174.729L856.739 159.524L830.299 144.179ZM859.974 157.272L886.133 142.208L859.974 127.143V157.272ZM860.677 125.032L887.399 140.518V109.545L860.677 125.032ZM857.724 157.694V126.721L831.002 142.208L857.724 157.694ZM830.299 317.908V348.036L856.458 332.972L830.299 317.908ZM859.974 330.86L886.415 315.515L859.974 300.31V330.86ZM856.739 298.48L830.299 283.134V313.685L856.739 298.48ZM857.724 331.283V300.31L831.002 315.796L857.724 331.283ZM860.677 298.339L887.399 313.825V282.852L860.677 298.339ZM859.974 296.227L886.415 280.882L859.974 265.677V296.227ZM856.739 263.846L830.299 248.501V279.051L856.739 263.846ZM857.724 296.649V265.677L831.002 281.163L857.724 296.649ZM859.974 261.594L886.555 246.248L859.974 230.762V261.594ZM856.88 229.072L830.299 213.727V244.418L856.88 229.072ZM857.724 261.875V230.903L831.002 246.389L857.724 261.875ZM859.974 226.679L886.555 211.333L859.974 195.988V226.679ZM856.88 194.157L830.299 178.812V209.503L856.88 194.157ZM857.724 227.101V196.128L831.002 211.615L857.724 227.101ZM859.974 191.905L886.274 176.559L859.974 161.354V191.905ZM857.724 192.186V161.214L831.002 176.7L857.724 192.186ZM830.299 352.119V382.67L856.739 367.465L830.299 352.119ZM859.974 365.212L886.133 350.148L859.974 334.943V365.212ZM828.049 348.459V317.486L801.327 332.972L828.049 348.459ZM857.724 365.634V334.662L831.002 350.148L857.724 365.634ZM830.299 525.849V556.118L856.458 541.053L830.299 525.849ZM859.974 538.801L886.415 523.455L859.974 508.25V538.801ZM856.739 506.42L830.299 491.075V521.625L856.739 506.42ZM857.724 539.223V508.25L831.002 523.737L857.724 539.223ZM860.677 506.139L887.399 521.625V490.652L860.677 506.139ZM859.974 504.168L886.415 488.822L859.974 473.617V504.168ZM856.739 471.646L830.299 456.3V486.851L856.739 471.646ZM857.724 504.59V473.617L831.002 489.104L857.724 504.59ZM859.974 469.534L886.555 454.189L859.974 438.702L859.974 469.534ZM856.88 437.013L830.299 421.667V452.358L856.88 437.013ZM857.724 469.816L857.724 438.843L831.002 454.329L857.724 469.816ZM859.974 434.619L886.555 419.274L859.974 403.928V434.619ZM856.88 402.098L830.299 386.752V417.444L856.88 402.098ZM857.724 435.042V404.069L831.002 419.555L857.724 435.042ZM859.974 399.845L886.415 384.641L859.974 369.295V399.845ZM857.724 400.127V369.154L831.002 384.641L857.724 400.127ZM830.299 560.06V590.61L856.739 575.405L830.299 560.06ZM859.974 573.153L885.993 558.089L859.974 542.884V573.153ZM860.677 540.913L887.399 556.399V525.426L860.677 540.913ZM857.724 573.575V542.602L831.002 558.089L857.724 573.575ZM859.974 746.741L886.415 731.396L859.974 716.191V746.741ZM856.739 714.361L830.299 699.015V729.565L856.739 714.361ZM857.724 747.164V716.191L831.002 731.677L857.724 747.164ZM860.677 714.079L887.399 729.565V698.593L860.677 714.079ZM859.974 712.108L886.415 696.762L859.974 681.558V712.108ZM856.739 679.587L830.299 664.241V694.791L856.739 679.587ZM857.724 712.53V681.558L831.002 697.044L857.724 712.53ZM859.974 677.334L886.555 661.988L859.974 646.643V677.334ZM856.88 644.813L830.299 629.467V660.158L856.88 644.813ZM857.724 677.756V646.784L831.002 662.27L857.724 677.756ZM859.974 642.56L886.555 627.214L859.974 611.869V642.56ZM856.88 610.038L830.299 594.693V625.384L856.88 610.038ZM857.724 642.982V612.009L831.002 627.496L857.724 642.982ZM859.974 607.645L886.415 592.44L859.974 577.235V607.645ZM857.724 608.067V577.095L831.002 592.581L857.724 608.067ZM887.399 -33.0706V-64.0435L860.677 -48.5571L887.399 -33.0706ZM887.399 71.1108V40.1379L860.677 55.6244L887.399 71.1108ZM887.399 36.3367V5.36385L860.677 20.8503L887.399 36.3367ZM887.399 1.42185V-29.551L860.677 -14.0646L887.399 1.42185ZM887.399 174.87V143.897L860.677 159.383L887.399 174.87ZM887.399 351.837L860.677 367.324L887.399 382.81V351.837ZM887.399 279.051V248.078L860.677 263.565L887.399 279.051ZM887.399 244.277V213.304L860.677 228.791L887.399 244.277ZM887.399 209.362V178.389L860.677 193.876L887.399 209.362ZM887.399 486.992V456.019L860.677 471.505L887.399 486.992ZM887.399 452.218L887.399 421.245L860.677 436.731L887.399 452.218ZM887.399 417.303V386.33L860.677 401.816L887.399 417.303ZM887.399 590.61V559.637L860.677 575.124L887.399 590.61ZM887.399 764.34V733.367L860.677 748.853L887.399 764.34ZM887.399 694.932V663.959L860.677 679.446L887.399 694.932ZM887.399 660.017V629.044L860.677 644.531L887.399 660.017ZM887.399 625.243V594.271L860.677 609.757L887.399 625.243ZM711.598 109.968V140.237L737.757 125.172L711.598 109.968ZM741.273 123.061L767.714 107.715L741.273 92.3694V123.061ZM738.038 90.5392L711.598 75.1936V105.744L738.038 90.5392ZM739.023 123.342V92.3694L712.16 107.856L739.023 123.342ZM741.976 90.3984L768.698 105.885V74.912L741.976 90.3984ZM741.273 88.2866L767.714 72.941L741.273 57.5954V88.2866ZM738.038 55.9059L711.598 40.5603V71.1108L738.038 55.9059ZM739.023 88.709V57.7361L712.301 73.2226L739.023 88.709ZM741.273 53.6533L767.854 38.3077L741.273 22.9621V53.6533ZM738.179 21.1319L711.598 5.78621V36.4775L738.179 21.1319ZM739.023 54.0757V23.1029L712.301 38.5893L739.023 54.0757ZM741.273 18.7385L767.854 3.39285L741.273 -11.9528V18.7385ZM738.179 -13.783L711.598 -29.1286V1.56264L738.179 -13.783ZM739.023 19.1609V-11.812L712.16 3.67442L739.023 19.1609ZM741.273 -16.0356L767.714 -31.2404L741.273 -46.4453V-16.0356ZM739.023 -15.6132V-46.5861L712.16 -31.0996L739.023 -15.6132ZM711.598 144.179V174.729L738.038 159.524L711.598 144.179ZM741.273 157.272L767.432 142.208L741.273 127.143V157.272ZM741.976 125.032L768.698 140.518V109.545L741.976 125.032ZM739.023 157.694V126.721L712.16 142.208L739.023 157.694ZM711.598 317.908V348.036L737.616 332.972L711.598 317.908ZM741.273 330.86L767.714 315.515L741.273 300.169V330.86ZM738.038 298.48L711.598 283.134V313.685L738.038 298.48ZM739.023 331.283V300.31L712.16 315.796L739.023 331.283ZM741.976 298.339L768.698 313.825V282.852L741.976 298.339ZM741.273 296.227L767.714 280.882L741.273 265.536V296.227ZM738.038 263.846L711.598 248.501V279.051L738.038 263.846ZM739.023 296.649V265.677L712.301 281.163L739.023 296.649ZM741.273 261.594L767.854 246.248L741.273 230.903V261.594ZM738.179 229.072L711.598 213.727V244.418L738.179 229.072ZM739.023 261.875V230.903L712.16 246.389L739.023 261.875ZM741.273 226.679L767.854 211.333L741.273 195.988V226.679ZM738.179 194.157L711.598 178.812V209.503L738.179 194.157ZM739.023 227.101V196.128L712.16 211.615L739.023 227.101ZM741.273 191.905L767.573 176.559L741.132 161.354L741.273 191.905ZM739.023 192.186V161.214L712.16 176.7L739.023 192.186ZM711.598 352.119V382.67L738.038 367.465L711.598 352.119ZM741.273 365.212L767.432 350.148L741.273 335.084V365.212ZM741.976 332.972L768.698 348.459V317.486L741.976 332.972ZM709.488 348.459V317.486L682.766 332.972L709.488 348.459ZM739.023 365.634V334.662L712.301 350.148L739.023 365.634ZM711.598 525.849V556.118L737.757 541.053L711.598 525.849ZM741.273 538.801L767.714 523.455L741.273 508.11L741.273 538.801ZM738.038 506.42L711.598 491.075L711.598 521.625L738.038 506.42ZM739.023 539.223L739.023 508.25L712.16 523.737L739.023 539.223ZM741.976 506.139L768.698 521.625L768.698 490.652L741.976 506.139ZM741.273 504.168L767.714 488.822L741.273 473.476V504.168ZM738.038 471.646L711.598 456.3V486.851L738.038 471.646ZM739.023 504.59V473.617L712.301 489.104L739.023 504.59ZM741.273 469.534L767.854 454.189L741.273 438.843V469.534ZM738.179 437.013L711.598 421.667V452.358L738.179 437.013ZM739.023 469.816V438.843L712.16 454.329L739.023 469.816ZM741.273 434.619L767.854 419.274L741.273 403.928V434.619ZM738.179 402.098L711.598 386.752V417.444L738.179 402.098ZM739.023 435.042V404.069L712.16 419.555L739.023 435.042ZM741.273 399.845L767.714 384.641L741.273 369.436V399.845ZM739.023 400.127V369.154L712.16 384.641L739.023 400.127ZM711.598 560.06V590.61L738.038 575.405L711.598 560.06ZM741.273 573.153L767.292 558.089L741.132 543.024L741.273 573.153ZM741.976 540.913L768.698 556.399V525.426L741.976 540.913ZM739.023 573.575V542.602L712.16 558.089L739.023 573.575ZM741.273 746.741L767.714 731.396L741.273 716.05V746.741ZM738.038 714.361L711.598 699.015V729.565L738.038 714.361ZM739.023 747.164V716.191L712.16 731.677L739.023 747.164ZM741.976 714.079L768.698 729.565V698.593L741.976 714.079ZM741.273 712.108L767.714 696.762L741.273 681.417V712.108ZM738.038 679.587L711.598 664.241V694.791L738.038 679.587ZM739.023 712.53V681.558L712.301 697.044L739.023 712.53ZM741.273 677.334L767.854 661.988L741.273 646.643V677.334ZM738.179 644.813L711.598 629.467V660.158L738.179 644.813ZM739.023 677.756V646.784L712.16 662.27L739.023 677.756ZM741.273 642.56L767.854 627.214L741.273 611.869V642.56ZM738.179 610.038L711.598 594.693V625.384L738.179 610.038ZM739.023 642.982V612.009L712.16 627.496L739.023 642.982ZM741.273 607.645L767.714 592.44L741.273 577.235V607.645ZM739.023 608.067V577.095L712.16 592.581L739.023 608.067ZM768.698 -33.0706V-64.0435L741.976 -48.5571L768.698 -33.0706ZM770.948 140.096L797.108 125.032L770.948 109.968V140.096ZM771.652 107.856L798.373 123.342V92.3694L771.652 107.856ZM770.948 105.885L797.389 90.5392L770.948 75.1936V105.885ZM771.652 73.2226L798.373 88.709V57.7361L771.652 73.2226ZM770.948 71.1108L797.389 55.7651L770.948 40.4195V71.1108ZM771.652 38.5893L798.373 54.0757V23.1029L771.652 38.5893ZM768.698 71.1108V40.1379L741.836 55.6244L768.698 71.1108ZM770.948 36.4775L797.529 21.1319L770.948 5.78621V36.4775ZM771.652 3.67442L798.373 19.1609V-11.812L771.652 3.67442ZM768.698 36.3367V5.36385L741.836 20.8503L768.698 36.3367ZM770.948 1.70342L797.529 -13.6422L770.948 -28.9879V1.70342ZM771.652 -31.0996L798.373 -15.6132V-46.5861L771.652 -31.0996ZM768.698 1.42185V-29.551L741.976 -14.0646L768.698 1.42185ZM770.948 174.729L797.248 159.524L770.948 144.319V174.729ZM771.652 142.208L798.373 157.694V126.721L771.652 142.208ZM768.698 174.87V143.897L741.976 159.383L768.698 174.87ZM768.698 351.837L741.976 367.324L768.698 382.81V351.837ZM770.948 348.036L797.108 332.972L770.948 317.908V348.036ZM771.652 315.796L798.373 331.283V300.31L771.652 315.796ZM770.948 313.825L797.389 298.48L770.948 283.134V313.825ZM771.652 281.163L798.373 296.649V265.677L771.652 281.163ZM770.948 279.051L797.389 263.846L770.948 248.501V279.051ZM771.652 246.389L798.373 261.875V230.903L771.652 246.389ZM768.698 279.051V248.078L741.836 263.565L768.698 279.051ZM770.948 244.418L797.529 229.072L770.948 213.727V244.418ZM771.652 211.615L798.373 227.101V196.128L771.652 211.615ZM768.698 244.277V213.304L741.836 228.791L768.698 244.277ZM770.948 209.503L797.529 194.157L770.948 178.812V209.503ZM771.652 176.7L798.373 192.186V161.214L771.652 176.7ZM768.698 209.362V178.389L741.976 193.876L768.698 209.362ZM770.948 382.67L797.248 367.465L770.948 352.26V382.67ZM771.652 350.148L798.373 365.634V334.662L771.652 350.148ZM770.948 555.977L797.108 540.913L770.948 525.849V555.977ZM771.652 523.737L798.373 539.223L798.373 508.25L771.652 523.737ZM770.948 521.625L797.389 506.279L770.948 490.934L770.948 521.625ZM771.652 489.104L798.373 504.59V473.617L771.652 489.104ZM770.948 486.992L797.389 471.646L770.948 456.3V486.992ZM771.652 454.329L798.373 469.816V438.843L771.652 454.329ZM768.698 486.992V456.019L741.836 471.505L768.698 486.992ZM770.948 452.358L797.529 437.013L770.948 421.667V452.358ZM771.652 419.555L798.373 435.042V404.069L771.652 419.555ZM768.698 452.218V421.245L741.836 436.731L768.698 452.218ZM770.948 417.444L797.529 402.098L770.948 386.752V417.444ZM771.652 384.641L798.373 400.127V369.154L771.652 384.641ZM768.698 417.303V386.33L741.976 401.816L768.698 417.303ZM770.948 590.61L797.248 575.405L770.948 560.2V590.61ZM771.652 558.089L798.373 573.575V542.602L771.652 558.089ZM768.698 590.61V559.637L741.976 575.124L768.698 590.61ZM771.652 731.677L798.373 747.164V716.191L771.652 731.677ZM768.698 764.34V733.367L741.836 748.853L768.698 764.34ZM770.948 729.565L797.389 714.361L770.948 699.015V729.565ZM771.652 697.044L798.373 712.53V681.558L771.652 697.044ZM770.948 694.932L797.389 679.587L770.948 664.241V694.932ZM771.652 662.27L798.373 677.756V646.784L771.652 662.27ZM768.698 694.932V663.959L741.836 679.446L768.698 694.932ZM770.948 660.299L797.529 644.953L770.948 629.608V660.299ZM771.652 627.496L798.373 642.982V612.009L771.652 627.496ZM768.698 660.017V629.044L741.836 644.531L768.698 660.017ZM770.948 625.384L797.529 610.038L770.948 594.693V625.384ZM771.652 592.581L798.373 608.067V577.095L771.652 592.581ZM768.698 625.243V594.271L741.976 609.757L768.698 625.243ZM800.624 123.061L827.064 107.715L800.624 92.3694V123.061ZM801.327 90.3984L828.049 105.885V74.912L801.327 90.3984ZM800.624 88.2866L827.064 72.941L800.624 57.5954V88.2866ZM800.624 53.6533L827.205 38.3077L800.624 22.9621V53.6533ZM800.624 18.7385L827.205 3.39285L800.624 -11.9528V18.7385ZM800.624 -16.0356L827.064 -31.2404L800.624 -46.4453V-16.0356ZM800.624 157.272L826.783 142.208L800.624 127.143V157.272ZM801.327 125.032L828.049 140.518V109.545L801.327 125.032ZM800.624 330.86L827.064 315.515L800.624 300.169V330.86ZM801.327 298.339L828.049 313.825V282.852L801.327 298.339ZM800.624 296.227L827.064 280.882L800.624 265.536V296.227ZM800.624 261.594L827.205 246.248L800.624 230.903V261.594ZM800.624 226.679L827.205 211.333L800.624 195.988V226.679ZM800.624 191.905L826.923 176.559L800.483 161.354L800.624 191.905ZM800.624 365.212L826.783 350.148L800.624 335.084V365.212ZM800.624 538.801L827.064 523.455L800.624 508.11L800.624 538.801ZM801.327 506.139L828.049 521.625V490.652L801.327 506.139ZM800.624 504.168L827.064 488.822L800.624 473.476V504.168ZM800.624 469.534L827.205 454.189L800.624 438.843V469.534ZM800.624 434.619L827.205 419.274L800.624 403.928V434.619ZM800.624 399.845L827.064 384.641L800.624 369.436V399.845ZM800.624 573.153L826.642 558.089L800.483 543.024L800.624 573.153ZM801.327 540.913L828.049 556.399V525.426L801.327 540.913ZM800.624 746.741L827.064 731.396L800.624 716.05V746.741ZM801.327 714.079L828.049 729.565V698.593L801.327 714.079ZM800.624 712.108L827.064 696.762L800.624 681.417V712.108ZM800.624 677.334L827.205 661.988L800.624 646.643V677.334ZM800.624 642.56L827.205 627.214L800.624 611.869V642.56ZM800.624 607.645L827.064 592.44L800.624 577.235V607.645ZM828.049 -33.0706V-64.0435L801.327 -48.5571L828.049 -33.0706ZM828.049 71.1108V40.1379L801.327 55.6244L828.049 71.1108ZM828.049 36.3367V5.36385L801.327 20.8503L828.049 36.3367ZM828.049 1.42185V-29.551L801.327 -14.0646L828.049 1.42185ZM828.049 174.87V143.897L801.327 159.383L828.049 174.87ZM828.049 351.837L801.327 367.324L828.049 382.81V351.837ZM828.049 279.051V248.078L801.327 263.565L828.049 279.051ZM828.049 244.277V213.304L801.327 228.791L828.049 244.277ZM828.049 209.362V178.389L801.327 193.876L828.049 209.362ZM828.049 486.992V456.019L801.327 471.505L828.049 486.992ZM828.049 452.218V421.245L801.327 436.731L828.049 452.218ZM828.049 417.303V386.33L801.327 401.816L828.049 417.303ZM828.049 590.61V559.637L801.327 575.124L828.049 590.61ZM828.049 764.34V733.367L801.327 748.853L828.049 764.34ZM828.049 694.932V663.959L801.327 679.446L828.049 694.932ZM828.049 660.017V629.044L801.327 644.531L828.049 660.017ZM828.049 625.243V594.271L801.327 609.757L828.049 625.243ZM650.138 -33.0706V-64.0435L623.416 -48.5571L650.138 -33.0706ZM652.247 140.096L678.406 125.032L652.247 109.968V140.096ZM652.95 107.856L679.672 123.342V92.3694L652.95 107.856ZM650.138 140.518V109.545L623.275 125.032L650.138 140.518ZM652.247 105.885L678.688 90.5392L652.247 75.1936V105.885ZM652.95 73.2226L679.672 88.709V57.7361L652.95 73.2226ZM650.138 105.885V74.912L623.416 90.3984L650.138 105.885ZM652.247 71.1108L678.688 55.7651L652.247 40.4195V71.1108ZM652.95 38.5893L679.672 54.0757V23.1029L652.95 38.5893ZM650.138 71.1108V40.1379L623.275 55.6244L650.138 71.1108ZM652.247 36.4775L678.828 21.1319L652.247 5.78621V36.4775ZM652.95 3.67442L679.672 19.1609V-11.812L652.95 3.67442ZM650.138 36.3367V5.36385L623.275 20.8503L650.138 36.3367ZM652.247 1.70342L678.828 -13.6422L652.247 -28.9879V1.70342ZM652.95 -31.0996L679.672 -15.6132V-46.5861L652.95 -31.0996ZM650.138 1.42185V-29.551L623.416 -14.0646L650.138 1.42185ZM652.247 174.729L678.547 159.524L652.107 144.319L652.247 174.729ZM652.95 142.208L679.672 157.694V126.721L652.95 142.208ZM650.138 174.87V143.897L623.416 159.383L650.138 174.87ZM650.138 351.837L623.416 367.324L650.138 382.81V351.837ZM652.247 348.036L678.406 332.972L652.247 317.908V348.036ZM652.95 315.796L679.672 331.283V300.31L652.95 315.796ZM650.138 348.459V317.486L623.275 332.972L650.138 348.459ZM652.247 313.825L678.688 298.48L652.247 283.134V313.825ZM652.95 281.163L679.672 296.649V265.677L652.95 281.163ZM650.138 313.825V282.852L623.416 298.339L650.138 313.825ZM652.247 279.051L678.688 263.846L652.247 248.501V279.051ZM652.95 246.389L679.672 261.875V230.903L652.95 246.389ZM650.138 279.051V248.078L623.275 263.565L650.138 279.051ZM652.247 244.418L678.828 229.072L652.247 213.727V244.418ZM652.95 211.615L679.672 227.101V196.128L652.95 211.615ZM650.138 244.277V213.304L623.275 228.791L650.138 244.277ZM652.247 209.503L678.828 194.157L652.247 178.812V209.503ZM652.95 176.7L679.672 192.186V161.214L652.95 176.7ZM650.138 209.362V178.389L623.416 193.876L650.138 209.362ZM652.247 382.67L678.547 367.465L652.107 352.26L652.247 382.67ZM652.95 350.148L679.672 365.634V334.662L652.95 350.148ZM652.247 555.977L678.406 540.913L652.247 525.849V555.977ZM652.95 523.737L679.672 539.223V508.25L652.95 523.737ZM650.138 556.399V525.426L623.275 540.913L650.138 556.399ZM652.247 521.625L678.688 506.279L652.247 490.934V521.625ZM652.95 489.104L679.672 504.59V473.617L652.95 489.104ZM650.138 521.625V490.652L623.416 506.139L650.138 521.625ZM652.247 486.992L678.688 471.646L652.247 456.3V486.992ZM652.95 454.329L679.672 469.816V438.843L652.95 454.329ZM650.138 486.992V456.019L623.275 471.505L650.138 486.992ZM652.247 452.358L678.828 437.013L652.247 421.667V452.358ZM652.95 419.555L679.672 435.042V404.069L652.95 419.555ZM650.138 452.218V421.245L623.275 436.731L650.138 452.218ZM652.247 417.444L678.828 402.098L652.247 386.752V417.444ZM652.95 384.641L679.672 400.127V369.154L652.95 384.641ZM650.138 417.303V386.33L623.416 401.816L650.138 417.303ZM652.247 590.61L678.547 575.264L652.107 560.06L652.247 590.61ZM652.95 558.089L679.672 573.575V542.602L652.95 558.089ZM650.138 590.61V559.637L623.416 575.124L650.138 590.61ZM652.95 731.677L679.672 747.164V716.191L652.95 731.677ZM650.138 764.34V733.367L623.275 748.853L650.138 764.34ZM652.247 729.565L678.688 714.361L652.247 699.015V729.565ZM652.95 697.044L679.672 712.53V681.558L652.95 697.044ZM650.138 729.565V698.593L623.416 714.079L650.138 729.565ZM652.247 694.932L678.688 679.587L652.247 664.241V694.932ZM652.95 662.27L679.672 677.756V646.784L652.95 662.27ZM650.138 694.932V663.959L623.275 679.446L650.138 694.932ZM652.247 660.299L678.828 644.953L652.247 629.608V660.299ZM652.95 627.496L679.672 642.982L679.672 612.009L652.95 627.496ZM650.138 660.017L650.138 629.044L623.275 644.531L650.138 660.017ZM652.247 625.384L678.828 610.038L652.247 594.693V625.384ZM652.95 592.581L679.672 608.067V577.095L652.95 592.581ZM650.138 625.243V594.271L623.416 609.757L650.138 625.243ZM681.922 123.061L708.363 107.715L681.922 92.3694V123.061ZM682.626 90.3984L709.347 105.885V74.912L682.626 90.3984ZM681.922 88.2866L708.363 72.941L681.922 57.5954V88.2866ZM681.922 53.6533L708.504 38.3077L681.922 22.9621V53.6533ZM681.922 18.7385L708.504 3.39285L681.922 -11.9528V18.7385ZM681.922 -16.0356L708.363 -31.2404L681.922 -46.4453V-16.0356ZM681.922 157.272L708.082 142.208L681.922 127.143V157.272ZM682.626 125.032L709.347 140.518V109.545L682.626 125.032ZM681.922 330.86L708.363 315.515L681.922 300.169V330.86ZM682.626 298.339L709.347 313.825V282.852L682.626 298.339ZM681.922 296.227L708.363 280.882L681.922 265.536V296.227ZM681.922 261.594L708.504 246.248L681.922 230.903V261.594ZM681.922 226.679L708.504 211.333L681.922 195.988V226.679ZM681.922 191.905L708.222 176.559L681.782 161.354L681.922 191.905ZM681.922 365.212L708.082 350.148L681.922 335.084V365.212ZM681.922 538.801L708.363 523.455L681.922 508.11V538.801ZM682.626 506.139L709.347 521.625L709.347 490.652L682.626 506.139ZM681.922 504.168L708.363 488.822L681.922 473.476V504.168ZM681.922 469.534L708.504 454.189L681.922 438.843V469.534ZM681.922 434.619L708.504 419.274L681.922 403.928V434.619ZM681.922 399.845L708.363 384.641L681.922 369.436V399.845ZM681.922 573.153L708.082 558.089L681.922 543.024V573.153ZM682.626 540.913L709.347 556.399V525.426L682.626 540.913ZM681.922 746.741L708.363 731.396L681.922 716.05V746.741ZM682.626 714.079L709.347 729.565V698.593L682.626 714.079ZM681.922 712.108L708.363 696.762L681.922 681.417V712.108ZM681.922 677.334L708.504 661.988L681.922 646.643V677.334ZM681.922 577.235V607.786L708.363 592.581L681.922 577.235ZM709.488 -33.0706V-64.0435L682.766 -48.5571L709.488 -33.0706ZM709.488 71.1108V40.1379L682.766 55.6244L709.488 71.1108ZM709.488 36.3367V5.36385L682.766 20.8503L709.488 36.3367ZM709.488 1.42185V-29.551L682.766 -14.0646L709.488 1.42185ZM709.488 174.87V143.897L682.766 159.383L709.488 174.87ZM709.347 351.837L682.626 367.324L709.347 382.81V351.837ZM709.488 279.051V248.078L682.766 263.565L709.488 279.051ZM709.488 244.277V213.304L682.766 228.791L709.488 244.277ZM709.488 209.362V178.389L682.766 193.876L709.488 209.362ZM709.488 486.992V456.019L682.766 471.505L709.488 486.992ZM709.488 452.218V421.245L682.766 436.731L709.488 452.218ZM709.488 417.303V386.33L682.766 401.816L709.488 417.303ZM709.488 590.61V559.637L682.766 575.124L709.488 590.61ZM709.488 764.34V733.367L682.766 748.853L709.488 764.34ZM709.488 694.932V663.959L682.766 679.446L709.488 694.932ZM709.488 660.017V629.044L682.766 644.531L709.488 660.017ZM709.488 625.243V594.271L682.766 609.757L709.488 625.243ZM563.221 611.869L563.221 642.56L589.802 627.214L563.221 611.869ZM592.897 109.968V140.237L619.056 125.172L592.897 109.968ZM474.195 -29.1286V1.56264L500.777 -13.783L474.195 -29.1286ZM474.195 5.78621V36.4775L500.777 21.1319L474.195 5.78621ZM474.195 40.5603V71.1108L500.636 55.7651L474.195 40.5603ZM474.195 75.1936V105.744L500.636 90.3984L474.195 75.1936ZM474.195 109.968V140.237L500.355 125.172L474.195 109.968ZM474.195 144.179L474.195 174.729L500.636 159.524L474.195 144.179ZM474.195 178.812V209.503L500.777 194.157L474.195 178.812ZM474.195 213.727V244.418L500.777 229.072L474.195 213.727ZM474.195 248.501V279.051L500.636 263.846L474.195 248.501ZM474.195 283.134V313.685L500.636 298.339L474.195 283.134ZM474.195 317.908V348.036L500.355 332.972L474.195 317.908ZM472.086 348.459V317.486L445.364 332.972L472.086 348.459ZM474.195 352.119V382.67L500.636 367.465L474.195 352.119ZM474.195 386.752V417.444L500.777 402.098L474.195 386.752ZM474.195 421.526V452.218L500.777 437.013L474.195 421.526ZM474.195 456.441V486.992L500.636 471.646L474.195 456.441ZM474.195 491.075V521.625L500.636 506.279L474.195 491.075ZM474.195 525.849V556.118L500.355 541.053L474.195 525.849ZM474.195 560.06V590.61L500.636 575.405L474.195 560.06ZM474.195 594.693V625.384L500.777 610.038L474.195 594.693ZM474.195 629.467V660.158L500.777 644.813L474.195 629.467ZM474.195 664.382V694.932L500.636 679.587L474.195 664.382ZM474.195 699.015V729.565L500.636 714.361L474.195 699.015ZM619.337 90.5392L592.897 75.1936V105.744L619.337 90.5392ZM620.462 123.342V92.3694L593.74 107.856L620.462 123.342ZM619.337 55.9059L592.897 40.5603V71.1108L619.337 55.9059ZM620.462 88.709V57.7361L593.74 73.2226L620.462 88.709ZM619.478 21.1319L592.897 5.78621V36.4775L619.478 21.1319ZM620.462 54.0757V23.1029L593.74 38.5893L620.462 54.0757ZM619.478 -13.783L592.897 -29.1286V1.56264L619.478 -13.783ZM620.462 19.1609V-11.812L593.74 3.67442L620.462 19.1609ZM620.462 -15.6132V-46.5861L593.74 -31.0996L620.462 -15.6132ZM592.897 144.179V174.729L619.337 159.524L592.897 144.179ZM620.462 157.694V126.721L593.74 142.208L620.462 157.694ZM592.897 317.908V348.036L619.056 332.972L592.897 317.908ZM620.462 334.662L593.74 350.148L620.462 365.634V334.662ZM619.337 298.48L592.897 283.134V313.685L619.337 298.48ZM620.462 331.283V300.31L593.74 315.796L620.462 331.283ZM619.337 263.846L592.897 248.501V279.051L619.337 263.846ZM620.462 296.649V265.677L593.74 281.163L620.462 296.649ZM619.478 229.072L592.897 213.727V244.418L619.478 229.072ZM620.462 261.875V230.903L593.74 246.389L620.462 261.875ZM619.478 194.157L592.897 178.812V209.503L619.478 194.157ZM620.462 227.101V196.128L593.74 211.615L620.462 227.101ZM620.462 192.186V161.214L593.74 176.7L620.462 192.186ZM592.897 352.119V382.67L619.337 367.465L592.897 352.119ZM590.787 348.459V317.486L564.065 332.972L590.787 348.459ZM592.897 525.849V556.118L619.056 541.053L592.897 525.849ZM619.337 506.42L592.897 491.075V521.625L619.337 506.42ZM620.462 539.223V508.25L593.74 523.737L620.462 539.223ZM619.337 471.646L592.897 456.3V486.851L619.337 471.646ZM620.462 504.59V473.617L593.74 489.104L620.462 504.59ZM619.478 437.013L592.897 421.667V452.358L619.478 437.013ZM620.462 469.816V438.843L593.74 454.329L620.462 469.816ZM619.478 402.098L592.897 386.752V417.444L619.478 402.098ZM620.462 435.042V404.069L593.74 419.555L620.462 435.042ZM620.462 400.127V369.154L593.74 384.641L620.462 400.127ZM592.897 560.06V590.61L619.337 575.405L592.897 560.06ZM620.462 573.575V542.602L593.74 558.089L620.462 573.575ZM619.337 714.361L592.897 699.015V729.565L619.337 714.361ZM620.462 747.164V716.191L593.74 731.677L620.462 747.164ZM619.337 679.587L592.897 664.241V694.791L619.337 679.587ZM620.462 712.53V681.558L593.74 697.044L620.462 712.53ZM619.478 644.813L592.897 629.467V660.158L619.478 644.813ZM620.462 677.756V646.784L593.74 662.27L620.462 677.756ZM619.478 610.038L592.897 594.693V625.384L619.478 610.038ZM620.462 642.982L620.462 612.009L593.74 627.496L620.462 642.982ZM620.462 608.067V577.095L593.74 592.581L620.462 608.067ZM503.871 123.061L530.311 107.715L503.871 92.3694V123.061ZM501.761 123.342V92.3694L475.039 107.856L501.761 123.342ZM504.574 90.3984L531.296 105.885V74.912L504.574 90.3984ZM503.871 88.2866L530.311 72.941L503.871 57.5954V88.2866ZM501.761 88.709V57.7361L475.039 73.2226L501.761 88.709ZM503.871 53.6533L530.452 38.3077L503.871 22.9621V53.6533ZM501.761 54.0757V23.1029L475.039 38.5893L501.761 54.0757ZM503.871 18.7385L530.452 3.39285L503.871 -11.9528V18.7385ZM501.761 19.1609V-11.812L475.039 3.67442L501.761 19.1609ZM503.871 -16.0356L530.311 -31.2404L504.011 -46.4453L503.871 -16.0356ZM501.761 -15.6132V-46.5861L475.039 -31.0996L501.761 -15.6132ZM503.871 157.272L530.03 142.208L503.871 127.143V157.272ZM504.574 125.032L531.296 140.518V109.545L504.574 125.032ZM501.761 157.694V126.721L475.039 142.208L501.761 157.694ZM503.871 330.86L530.311 315.515L503.871 300.169V330.86ZM501.761 331.283V300.31L475.039 315.796L501.761 331.283ZM504.574 298.339L531.296 313.825V282.852L504.574 298.339ZM503.871 296.227L530.311 280.882L503.871 265.536V296.227ZM501.761 296.649V265.677L475.039 281.163L501.761 296.649ZM503.871 261.594L530.452 246.248L503.871 230.903V261.594ZM501.761 261.875V230.903L475.039 246.389L501.761 261.875ZM503.871 226.679L530.452 211.333L503.871 195.988V226.679ZM501.761 227.101V196.128L475.039 211.615L501.761 227.101ZM503.871 191.905L530.171 176.559L503.871 161.354L503.871 191.905ZM501.761 192.186L501.761 161.214L475.039 176.7L501.761 192.186ZM503.871 365.212L530.03 350.148L503.871 335.084V365.212ZM504.574 332.972L531.296 348.459V317.486L504.574 332.972ZM501.761 365.634V334.662L475.039 350.148L501.761 365.634ZM503.871 538.801L530.311 523.455L503.871 508.11V538.801ZM501.761 539.223V508.25L475.039 523.737L501.761 539.223ZM504.574 506.139L531.296 521.625V490.652L504.574 506.139ZM503.871 504.168L530.311 488.822L503.871 473.476V504.168ZM501.761 504.59V473.617L475.039 489.104L501.761 504.59ZM503.871 469.534L530.452 454.189L503.871 438.843V469.534ZM501.761 469.816V438.843L475.039 454.329L501.761 469.816ZM503.871 434.619L530.452 419.274L503.871 403.928V434.619ZM501.761 435.042V404.069L475.039 419.555L501.761 435.042ZM503.871 399.845L530.311 384.641L504.011 369.436L503.871 399.845ZM501.761 400.127V369.154L475.039 384.641L501.761 400.127ZM503.871 573.153L530.03 558.089L503.871 543.024V573.153ZM504.574 540.913L531.296 556.399V525.426L504.574 540.913ZM501.761 573.575V542.602L475.039 558.089L501.761 573.575ZM503.871 746.741L530.311 731.396L503.871 716.05V746.741ZM501.761 747.164V716.191L475.039 731.677L501.761 747.164ZM504.574 714.079L531.296 729.565V698.593L504.574 714.079ZM503.871 712.108L530.311 696.762L503.871 681.417V712.108ZM501.761 712.53V681.558L475.039 697.044L501.761 712.53ZM503.871 677.334L530.452 661.988L503.871 646.643V677.334ZM501.761 677.756V646.784L475.039 662.27L501.761 677.756ZM503.871 642.56L530.452 627.214L503.871 611.869L503.871 642.56ZM501.761 642.982L501.761 612.009L475.039 627.496L501.761 642.982ZM503.871 607.645L530.311 592.44L504.011 577.235L503.871 607.645ZM501.761 608.067V577.095L475.039 592.581L501.761 608.067ZM531.436 -33.0706V-64.0435L504.715 -48.5571L531.436 -33.0706ZM533.546 140.096L559.705 125.032L533.546 109.968V140.096ZM534.249 107.856L561.112 123.342V92.3694L534.249 107.856ZM533.546 105.885L559.987 90.5392L533.546 75.1936V105.885ZM534.249 73.2226L560.971 88.709V57.7361L534.249 73.2226ZM533.546 71.1108L559.987 55.7651L533.546 40.4195V71.1108ZM534.249 38.5893L561.112 54.0757V23.1029L534.249 38.5893ZM531.436 71.1108V40.1379L504.574 55.6244L531.436 71.1108ZM533.546 36.4775L560.127 21.1319L533.546 5.78621V36.4775ZM534.249 3.67442L560.971 19.1609V-11.812L534.249 3.67442ZM531.436 36.3367V5.36385L504.574 20.8503L531.436 36.3367ZM533.546 1.70342L560.127 -13.6422L533.546 -28.9879V1.70342ZM534.249 -31.0996L560.971 -15.6132V-46.5861L534.249 -31.0996ZM531.436 1.42185V-29.551L504.715 -14.0646L531.436 1.42185ZM533.546 174.729L559.987 159.524L533.687 144.319L533.546 174.729ZM534.249 142.208L560.971 157.694V126.721L534.249 142.208ZM531.436 174.87V143.897L504.715 159.383L531.436 174.87ZM531.436 351.837L504.715 367.324L531.436 382.81V351.837ZM533.546 348.036L559.705 332.972L533.546 317.908V348.036ZM534.249 315.796L561.112 331.283V300.31L534.249 315.796ZM533.546 313.825L559.987 298.48L533.546 283.134V313.825ZM534.249 281.163L560.971 296.649V265.677L534.249 281.163ZM533.546 279.051L559.987 263.846L533.546 248.501V279.051ZM534.249 246.389L561.112 261.875V230.903L534.249 246.389ZM531.436 279.051V248.078L504.574 263.565L531.436 279.051ZM533.546 244.418L560.127 229.072L533.546 213.727V244.418ZM534.249 211.615L560.971 227.101V196.128L534.249 211.615ZM531.436 244.277V213.304L504.574 228.791L531.436 244.277ZM533.546 209.503L560.127 194.157L533.546 178.812V209.503ZM534.249 176.7L560.971 192.186V161.214L534.249 176.7ZM531.436 209.362V178.389L504.715 193.876L531.436 209.362ZM533.546 382.67L559.987 367.465L533.687 352.26L533.546 382.67ZM534.249 350.148L560.971 365.634V334.662L534.249 350.148ZM533.546 555.977L559.705 540.913L533.546 525.849V555.977ZM534.249 523.737L561.112 539.223V508.25L534.249 523.737ZM533.546 521.625L559.987 506.279L533.546 490.934V521.625ZM534.249 489.104L560.971 504.59V473.617L534.249 489.104ZM533.546 486.992L559.987 471.646L533.546 456.3V486.992ZM534.249 454.329L561.112 469.816V438.843L534.249 454.329ZM531.436 486.992V456.019L504.574 471.505L531.436 486.992ZM533.546 452.358L560.127 437.013L533.546 421.667V452.358ZM534.249 419.555L560.971 435.042V404.069L534.249 419.555ZM531.436 452.218V421.245L504.574 436.731L531.436 452.218ZM533.546 417.444L560.127 402.098L533.546 386.752V417.444ZM534.249 384.641L560.971 400.127V369.154L534.249 384.641ZM531.436 417.303V386.33L504.715 401.816L531.436 417.303ZM533.546 590.61L559.987 575.405L533.687 560.2L533.546 590.61ZM534.249 558.089L560.971 573.575V542.602L534.249 558.089ZM531.436 590.61V559.637L504.715 575.124L531.436 590.61ZM534.249 731.677L561.112 747.164V716.191L534.249 731.677ZM531.436 764.34V733.367L504.574 748.853L531.436 764.34ZM533.546 729.565L559.987 714.361L533.546 699.015V729.565ZM534.249 697.044L560.971 712.53V681.558L534.249 697.044ZM533.546 694.932L559.987 679.587L533.546 664.241V694.932ZM534.249 662.27L561.112 677.756V646.784L534.249 662.27ZM531.436 694.932V663.959L504.574 679.446L531.436 694.932ZM533.546 660.299L560.127 644.953L533.546 629.608V660.299ZM534.249 627.496L560.971 642.982L560.971 612.009L534.249 627.496ZM531.436 660.017L531.436 629.044L504.574 644.531L531.436 660.017ZM533.546 625.384L560.127 610.038L533.546 594.693V625.384ZM534.249 592.581L560.971 608.067V577.095L534.249 592.581ZM531.436 625.243V594.271L504.715 609.757L531.436 625.243ZM563.221 123.061L589.662 107.715L563.221 92.3694V123.061ZM563.925 90.3984L590.646 105.885V74.912L563.925 90.3984ZM563.221 88.2866L589.662 72.941L563.221 57.7361V88.2866ZM563.221 53.6533L589.802 38.3077L563.221 22.8213V53.6533ZM563.221 18.7385L589.802 3.39285L563.221 -11.9528V18.7385ZM563.221 -16.0356L589.662 -31.2404L563.221 -46.5861V-16.0356ZM563.221 157.272L589.381 142.208L563.221 127.143V157.272ZM563.925 125.032L590.646 140.518V109.545L563.925 125.032ZM563.221 330.86L589.662 315.515L563.221 300.169V330.86ZM563.925 298.339L590.646 313.825V282.852L563.925 298.339ZM563.221 296.227L589.662 280.882L563.221 265.536V296.227ZM563.221 261.594L589.802 246.248L563.221 230.903V261.594ZM563.221 226.679L589.802 211.333L563.221 195.988V226.679ZM563.221 191.905L589.521 176.559L563.081 161.354L563.221 191.905ZM563.221 365.212L589.381 350.148L563.221 335.084V365.212ZM563.221 538.801L589.662 523.455L563.221 508.11V538.801ZM563.925 506.139L590.646 521.625V490.652L563.925 506.139ZM563.221 504.168L589.662 488.822L563.221 473.617V504.168ZM563.221 469.534L589.802 454.189L563.221 438.843V469.534ZM563.221 434.619L589.802 419.274L563.221 403.928V434.619ZM563.221 399.845L589.662 384.641L563.221 369.436V399.845ZM563.221 573.153L589.381 558.089L563.221 543.024V573.153ZM563.925 540.913L590.646 556.399V525.426L563.925 540.913ZM563.221 746.741L589.662 731.396L563.221 716.05V746.741ZM563.925 714.079L590.646 729.565V698.593L563.925 714.079ZM563.221 712.108L589.662 696.762L563.221 681.417V712.108ZM563.221 677.334L589.802 661.988L563.221 646.643V677.334ZM563.221 577.235V607.786L589.662 592.581L563.221 577.235ZM590.787 -33.0706V-64.0435L564.065 -48.5571L590.787 -33.0706ZM590.787 71.1108V40.1379L563.925 55.6244L590.787 71.1108ZM590.787 36.3367V5.36385L563.925 20.8503L590.787 36.3367ZM590.787 1.42185V-29.551L564.065 -14.0646L590.787 1.42185ZM590.787 174.87V143.897L564.065 159.383L590.787 174.87ZM590.787 351.837L564.065 367.324L590.787 382.81V351.837ZM590.787 279.051V248.078L563.925 263.565L590.787 279.051ZM590.787 244.277V213.304L563.925 228.791L590.787 244.277ZM590.787 209.362V178.389L564.065 193.876L590.787 209.362ZM590.787 486.992V456.019L563.925 471.505L590.787 486.992ZM590.787 452.218V421.245L563.925 436.731L590.787 452.218ZM590.787 417.303V386.33L564.065 401.816L590.787 417.303ZM590.787 590.61V559.637L564.065 575.124L590.787 590.61ZM590.787 764.34V733.367L563.925 748.853L590.787 764.34ZM590.787 694.932V663.959L563.925 679.446L590.787 694.932ZM590.787 660.017L590.787 629.044L563.925 644.531L590.787 660.017ZM590.787 625.243V594.271L564.065 609.757L590.787 625.243ZM325.819 611.869V642.56L352.4 627.214L325.819 611.869ZM355.494 109.968V140.237L381.654 125.172L355.494 109.968ZM385.17 123.061L411.61 107.715L385.17 92.3694V123.061ZM381.935 90.5392L355.494 75.1936V105.744L381.935 90.5392ZM383.06 123.342V92.3694L356.338 107.856L383.06 123.342ZM385.873 90.3984L412.595 105.885V74.912L385.873 90.3984ZM385.17 88.2866L411.61 72.941L385.17 57.5954V88.2866ZM381.935 55.9059L355.494 40.5603V71.1108L381.935 55.9059ZM383.06 88.709V57.7361L356.338 73.2226L383.06 88.709ZM385.17 53.6533L411.751 38.3077L385.17 22.9621V53.6533ZM382.076 21.1319L355.494 5.78621V36.4775L382.076 21.1319ZM383.06 54.0757V23.1029L356.338 38.5893L383.06 54.0757ZM385.17 18.7385L411.751 3.39285L385.17 -11.9528V18.7385ZM382.076 -13.783L355.494 -29.1286V1.56264L382.076 -13.783ZM383.06 19.1609V-11.812L356.338 3.67442L383.06 19.1609ZM385.17 -16.0356L411.61 -31.2404L385.17 -46.4453V-16.0356ZM296.144 -29.1286V1.56264L322.725 -13.783L296.144 -29.1286ZM296.144 5.78621V36.4775L322.725 21.1319L296.144 5.78621ZM296.144 40.5603V71.1108L322.584 55.7651L296.144 40.5603ZM296.144 75.1936V105.744L322.584 90.3984L296.144 75.1936ZM296.144 109.968V140.237L322.303 125.172L296.144 109.968ZM296.144 144.179V174.729L322.584 159.524L296.144 144.179ZM296.144 178.812V209.503L322.725 194.157L296.144 178.812ZM296.144 213.727V244.418L322.725 229.072L296.144 213.727ZM296.144 248.501V279.051L322.584 263.846L296.144 248.501ZM296.144 283.134V313.685L322.584 298.339L296.144 283.134ZM296.144 317.908V348.036L322.303 332.972L296.144 317.908ZM294.034 348.459V317.486L267.312 332.972L294.034 348.459ZM296.144 352.119V382.67L322.584 367.465L296.144 352.119ZM296.144 386.752L296.144 417.444L322.725 402.098L296.144 386.752ZM296.144 421.526V452.218L322.725 437.013L296.144 421.526ZM296.144 456.441V486.992L322.584 471.646L296.144 456.441ZM296.144 491.075V521.625L322.584 506.279L296.144 491.075ZM296.144 525.849V556.118L322.303 541.053L296.144 525.849ZM296.144 560.06V590.61L322.584 575.405L296.144 560.06ZM296.144 594.693V625.384L322.725 610.038L296.144 594.693ZM296.144 629.467V660.158L322.725 644.813L296.144 629.467ZM296.144 664.382V694.932L322.584 679.587L296.144 664.382ZM296.144 699.015V729.565L322.584 714.361L296.144 699.015ZM383.06 -15.6132V-46.5861L356.198 -31.0996L383.06 -15.6132ZM355.494 144.179V174.729L381.935 159.524L355.494 144.179ZM385.17 157.272L411.329 142.208L385.17 127.143V157.272ZM385.873 125.032L412.595 140.518V109.545L385.873 125.032ZM383.06 157.694V126.721L356.198 142.208L383.06 157.694ZM355.494 317.908V348.036L381.654 332.972L355.494 317.908ZM385.17 330.86L411.61 315.515L385.17 300.169V330.86ZM381.935 298.48L355.494 283.134V313.685L381.935 298.48ZM383.06 331.283V300.31L356.338 315.796L383.06 331.283ZM385.873 298.339L412.595 313.825V282.852L385.873 298.339ZM385.17 296.227L411.61 280.882L385.17 265.536V296.227ZM381.935 263.846L355.494 248.501V279.051L381.935 263.846ZM383.06 296.649V265.677L356.338 281.163L383.06 296.649ZM385.17 261.594L411.751 246.248L385.17 230.903V261.594ZM382.076 229.072L355.494 213.727V244.418L382.076 229.072ZM383.06 261.875V230.903L356.338 246.389L383.06 261.875ZM385.17 226.679L411.751 211.333L385.17 195.988V226.679ZM382.076 194.157L355.494 178.812V209.503L382.076 194.157ZM383.06 227.101V196.128L356.338 211.615L383.06 227.101ZM385.17 191.905L411.61 176.559L385.17 161.354V191.905ZM383.06 192.186V161.214L356.198 176.7L383.06 192.186ZM355.494 352.119V382.67L381.935 367.465L355.494 352.119ZM385.17 365.212L411.329 350.148L385.17 335.084V365.212ZM385.873 332.972L412.595 348.459V317.486L385.873 332.972ZM353.385 348.459V317.486L326.663 332.972L353.385 348.459ZM383.06 365.634V334.662L356.338 350.148L383.06 365.634ZM355.494 525.849V556.118L381.654 541.053L355.494 525.849ZM385.17 538.801L411.61 523.455L385.17 508.11V538.801ZM381.935 506.42L355.494 491.075V521.625L381.935 506.42ZM383.06 539.223V508.25L356.338 523.737L383.06 539.223ZM385.873 506.139L412.595 521.625V490.652L385.873 506.139ZM385.17 504.168L411.61 488.822L385.17 473.476V504.168ZM381.935 471.646L355.494 456.3V486.851L381.935 471.646ZM383.06 504.59V473.617L356.338 489.104L383.06 504.59ZM385.17 469.534L411.751 454.189L385.17 438.843V469.534ZM382.076 437.013L355.494 421.667V452.358L382.076 437.013ZM383.06 469.816V438.843L356.338 454.329L383.06 469.816ZM385.17 434.619L411.751 419.274L385.17 403.928V434.619ZM382.076 402.098L355.494 386.752L355.494 417.444L382.076 402.098ZM383.06 435.042V404.069L356.338 419.555L383.06 435.042ZM385.17 399.845L411.61 384.641L385.17 369.436L385.17 399.845ZM383.06 400.127L383.06 369.154L356.198 384.641L383.06 400.127ZM355.494 560.06V590.61L381.935 575.405L355.494 560.06ZM385.17 573.153L411.329 558.089L385.17 543.024V573.153ZM385.873 540.913L412.595 556.399V525.426L385.873 540.913ZM383.06 573.575V542.602L356.198 558.089L383.06 573.575ZM385.17 746.741L411.61 731.396L385.17 716.05V746.741ZM381.935 714.361L355.494 699.015V729.565L381.935 714.361ZM383.06 747.164V716.191L356.338 731.677L383.06 747.164ZM385.873 714.079L412.595 729.565V698.593L385.873 714.079ZM385.17 712.108L411.61 696.762L385.17 681.417V712.108ZM381.935 679.587L355.494 664.241V694.791L381.935 679.587ZM383.06 712.53V681.558L356.338 697.044L383.06 712.53ZM385.17 677.334L411.751 661.988L385.17 646.643V677.334ZM382.076 644.813L355.494 629.467V660.158L382.076 644.813ZM383.06 677.756V646.784L356.338 662.27L383.06 677.756ZM385.17 642.56L411.751 627.214L385.17 611.869V642.56ZM382.076 610.038L355.494 594.693V625.384L382.076 610.038ZM383.06 642.982V612.009L356.338 627.496L383.06 642.982ZM385.17 607.645L411.61 592.44L385.17 577.235V607.645ZM383.06 608.067V577.095L356.198 592.581L383.06 608.067ZM412.735 -33.0706V-64.0435L386.013 -48.5571L412.735 -33.0706ZM414.845 140.096L441.004 125.032L414.845 109.968V140.096ZM415.548 107.856L442.27 123.342V92.3694L415.548 107.856ZM414.845 105.885L441.285 90.5392L414.845 75.1936V105.885ZM415.548 73.2226L442.27 88.709V57.7361L415.548 73.2226ZM414.845 71.1108L441.285 55.7651L414.845 40.4195V71.1108ZM415.548 38.5893L442.27 54.0757V23.1029L415.548 38.5893ZM412.735 71.1108V40.1379L385.873 55.6244L412.735 71.1108ZM414.845 36.4775L441.426 21.1319L414.845 5.78621V36.4775ZM415.548 3.67442L442.27 19.1609V-11.812L415.548 3.67442ZM412.735 36.3367V5.36385L385.873 20.8503L412.735 36.3367ZM414.845 1.70342L441.426 -13.6422L414.845 -28.9879V1.70342ZM415.548 -31.0996L442.27 -15.6132V-46.5861L415.548 -31.0996ZM412.735 1.42185V-29.551L386.013 -14.0646L412.735 1.42185ZM414.845 174.729L441.285 159.524L414.986 144.319L414.845 174.729ZM415.548 142.208L442.27 157.694V126.721L415.548 142.208ZM412.735 174.87V143.897L386.013 159.383L412.735 174.87ZM412.735 351.837L386.013 367.324L412.735 382.81V351.837ZM414.845 348.036L441.004 332.972L414.845 317.908V348.036ZM415.548 315.796L442.27 331.283V300.31L415.548 315.796ZM414.845 313.825L441.285 298.48L414.845 283.134V313.825ZM415.548 281.163L442.27 296.649V265.677L415.548 281.163ZM414.845 279.051L441.285 263.846L414.845 248.501V279.051ZM415.548 246.389L442.27 261.875V230.903L415.548 246.389ZM412.735 279.051V248.078L385.873 263.565L412.735 279.051ZM414.845 244.418L441.426 229.072L414.845 213.727V244.418ZM415.548 211.615L442.27 227.101V196.128L415.548 211.615ZM412.735 244.277V213.304L385.873 228.791L412.735 244.277ZM414.845 209.503L441.426 194.157L414.845 178.812V209.503ZM415.548 176.7L442.27 192.186L442.27 161.214L415.548 176.7ZM412.735 209.362V178.389L386.013 193.876L412.735 209.362ZM414.845 382.67L441.285 367.465L414.986 352.26L414.845 382.67ZM415.548 350.148L442.27 365.634V334.662L415.548 350.148ZM414.845 555.977L441.004 540.913L414.845 525.849V555.977ZM415.548 523.737L442.27 539.223V508.25L415.548 523.737ZM414.845 521.625L441.285 506.279L414.845 490.934V521.625ZM415.548 489.104L442.27 504.59V473.617L415.548 489.104ZM414.845 486.992L441.285 471.646L414.845 456.3V486.992ZM415.548 454.329L442.27 469.816V438.843L415.548 454.329ZM412.735 486.992V456.019L385.873 471.505L412.735 486.992ZM414.845 452.358L441.426 437.013L414.845 421.667V452.358ZM415.548 419.555L442.27 435.042V404.069L415.548 419.555ZM412.735 452.218V421.245L385.873 436.731L412.735 452.218ZM414.845 417.444L441.426 402.098L414.845 386.752L414.845 417.444ZM415.548 384.641L442.27 400.127V369.154L415.548 384.641ZM412.735 417.303L412.735 386.33L386.013 401.816L412.735 417.303ZM414.845 590.61L441.285 575.405L414.986 560.2L414.845 590.61ZM415.548 558.089L442.27 573.575V542.602L415.548 558.089ZM412.735 590.61V559.637L386.013 575.124L412.735 590.61ZM415.548 731.677L442.27 747.164V716.191L415.548 731.677ZM412.735 764.34V733.367L385.873 748.853L412.735 764.34ZM414.845 729.565L441.285 714.361L414.845 699.015V729.565ZM415.548 697.044L442.27 712.53V681.558L415.548 697.044ZM414.845 694.932L441.285 679.587L414.845 664.241V694.932ZM415.548 662.27L442.27 677.756V646.784L415.548 662.27ZM412.735 694.932V663.959L385.873 679.446L412.735 694.932ZM414.845 660.299L441.426 644.953L414.845 629.608V660.299ZM415.548 627.496L442.27 642.982L442.27 612.009L415.548 627.496ZM412.735 660.017V629.044L385.873 644.531L412.735 660.017ZM414.845 625.384L441.426 610.038L414.845 594.693V625.384ZM415.548 592.581L442.27 608.067V577.095L415.548 592.581ZM412.735 625.243V594.271L386.013 609.757L412.735 625.243ZM444.52 123.061L470.961 107.715L444.52 92.3694V123.061ZM445.223 90.3984L471.945 105.885V74.912L445.223 90.3984ZM444.52 88.2866L470.961 72.941L444.52 57.5954V88.2866ZM444.52 53.6533L471.101 38.3077L444.52 22.9621V53.6533ZM444.52 18.7385L471.101 3.39285L444.52 -11.9528V18.7385ZM444.52 -16.0356L470.961 -31.2404L444.52 -46.4453V-16.0356ZM444.52 157.272L470.679 142.208L444.52 127.143V157.272ZM445.223 125.032L471.945 140.518V109.545L445.223 125.032ZM444.52 330.86L470.961 315.515L444.52 300.169V330.86ZM445.223 298.339L471.945 313.825V282.852L445.223 298.339ZM444.52 296.227L470.961 280.882L444.52 265.536V296.227ZM444.52 261.594L471.101 246.248L444.52 230.903V261.594ZM444.52 226.679L471.101 211.333L444.52 195.988V226.679ZM444.52 191.905L470.961 176.559L444.52 161.354L444.52 191.905ZM444.52 365.212L470.679 350.148L444.52 335.084V365.212ZM444.52 538.801L470.961 523.455L444.52 508.11V538.801ZM445.223 506.139L471.945 521.625V490.652L445.223 506.139ZM444.52 504.168L470.961 488.822L444.52 473.476V504.168ZM444.52 469.534L471.101 454.189L444.52 438.843V469.534ZM444.52 434.619L471.101 419.274L444.52 403.928V434.619ZM444.52 399.845L470.961 384.641L444.52 369.436V399.845ZM444.52 573.153L470.679 558.089L444.52 543.024V573.153ZM445.223 540.913L471.945 556.399V525.426L445.223 540.913ZM444.52 746.741L470.961 731.396L444.52 716.05V746.741ZM445.223 714.079L471.945 729.565V698.593L445.223 714.079ZM444.52 712.108L470.961 696.762L444.52 681.417V712.108ZM444.52 677.334L471.101 661.988L444.52 646.643V677.334ZM444.52 642.56L471.101 627.214L444.52 611.869L444.52 642.56ZM444.52 607.645L470.961 592.44L444.52 577.235V607.645ZM472.086 -33.0706V-64.0435L445.223 -48.5571L472.086 -33.0706ZM472.086 71.1108V40.1379L445.223 55.6244L472.086 71.1108ZM472.086 36.3367V5.36385L445.223 20.8503L472.086 36.3367ZM472.086 1.42185V-29.551L445.223 -14.0646L472.086 1.42185ZM472.086 174.87L472.086 143.897L445.223 159.383L472.086 174.87ZM472.086 351.837L445.364 367.324L472.227 382.81L472.086 351.837ZM472.086 279.051V248.078L445.223 263.565L472.086 279.051ZM472.086 244.277V213.304L445.223 228.791L472.086 244.277ZM472.086 209.362V178.389L445.223 193.876L472.086 209.362ZM472.086 486.992V456.019L445.223 471.505L472.086 486.992ZM472.086 452.218V421.245L445.223 436.731L472.086 452.218ZM472.086 417.303V386.33L445.223 401.816L472.086 417.303ZM472.086 590.61V559.637L445.223 575.124L472.086 590.61ZM472.086 764.34V733.367L445.223 748.853L472.086 764.34ZM472.086 694.932V663.959L445.223 679.446L472.086 694.932ZM472.086 660.017L472.086 629.044L445.223 644.531L472.086 660.017ZM472.086 625.243V594.271L445.223 609.757L472.086 625.243ZM325.819 123.061L352.26 107.715L325.819 92.3694V123.061ZM323.709 123.342V92.3694L296.988 107.856L323.709 123.342ZM326.522 90.3984L353.244 105.885V74.912L326.522 90.3984ZM325.819 88.2866L352.26 73.0818L325.819 57.7361V88.2866ZM323.709 88.709V57.7361L296.988 73.2226L323.709 88.709ZM325.819 53.6533L352.4 38.3077L325.819 22.9621V53.6533ZM323.709 54.0757V23.1029L296.988 38.5893L323.709 54.0757ZM325.819 18.7385L352.4 3.39285L325.819 -11.9528V18.7385ZM323.709 19.1609V-11.812L296.988 3.67442L323.709 19.1609ZM325.819 -16.0356L352.26 -31.2404L325.819 -46.4453V-16.0356ZM323.709 -15.6132V-46.5861L296.988 -31.0996L323.709 -15.6132ZM325.819 157.272L351.978 142.208L325.819 127.143V157.272ZM326.522 125.032L353.244 140.518V109.545L326.522 125.032ZM323.709 157.694V126.721L296.988 142.208L323.709 157.694ZM325.819 330.86L352.26 315.656L325.819 300.31V330.86ZM323.709 331.283V300.31L296.988 315.796L323.709 331.283ZM326.522 298.339L353.244 313.825V282.852L326.522 298.339ZM325.819 296.227L352.26 280.882L325.819 265.536V296.227ZM323.709 296.649V265.677L296.988 281.163L323.709 296.649ZM325.819 261.594L352.4 246.248L325.819 230.903V261.594ZM323.709 261.875V230.903L296.988 246.389L323.709 261.875ZM325.819 226.679L352.4 211.333L325.819 195.988V226.679ZM323.709 227.101V196.128L296.988 211.615L323.709 227.101ZM325.819 191.905L352.26 176.559L325.819 161.354V191.905ZM323.709 192.186V161.214L296.988 176.7L323.709 192.186ZM325.819 365.212L351.978 350.148L325.819 335.084V365.212ZM323.709 365.634V334.662L296.988 350.148L323.709 365.634ZM325.819 538.801L352.26 523.596L325.819 508.25V538.801ZM323.709 539.223V508.25L296.988 523.737L323.709 539.223ZM326.522 506.139L353.244 521.625V490.652L326.522 506.139ZM325.819 504.168L352.26 488.822L325.819 473.476V504.168ZM323.709 504.59V473.617L296.988 489.104L323.709 504.59ZM325.819 469.534L352.4 454.189L325.819 438.843V469.534ZM323.709 469.816V438.843L296.988 454.329L323.709 469.816ZM325.819 434.619L352.4 419.274L325.819 403.928V434.619ZM323.709 435.042V404.069L296.988 419.555L323.709 435.042ZM325.819 399.845L352.26 384.5L325.819 369.295L325.819 399.845ZM323.709 400.127L323.709 369.154L296.988 384.641L323.709 400.127ZM325.819 573.153L351.978 558.089L325.819 543.024V573.153ZM326.522 540.913L353.244 556.399V525.426L326.522 540.913ZM323.709 573.575V542.602L296.988 558.089L323.709 573.575ZM325.819 746.741L352.26 731.396L325.819 716.05V746.741ZM323.709 747.164V716.191L296.988 731.677L323.709 747.164ZM326.522 714.079L353.244 729.565V698.593L326.522 714.079ZM325.819 712.108L352.26 696.762L325.819 681.417V712.108ZM323.709 712.53V681.558L296.988 697.044L323.709 712.53ZM325.819 677.334L352.4 661.988L325.819 646.643V677.334ZM323.709 677.756V646.784L296.988 662.27L323.709 677.756ZM323.709 642.982V612.009L296.988 627.496L323.709 642.982ZM325.819 577.235V607.786L352.26 592.44L325.819 577.235ZM323.709 608.067V577.095L296.988 592.581L323.709 608.067ZM353.385 -33.0706V-64.0435L326.663 -48.5571L353.385 -33.0706ZM353.385 71.1108V40.1379L326.522 55.6244L353.385 71.1108ZM353.385 36.3367V5.36385L326.522 20.8503L353.385 36.3367ZM353.385 1.42185V-29.551L326.663 -14.0646L353.385 1.42185ZM353.385 174.87V143.897L326.663 159.383L353.385 174.87ZM353.385 351.837L326.663 367.324L353.385 382.81V351.837ZM353.385 279.051V248.078L326.522 263.565L353.385 279.051ZM353.385 244.277V213.304L326.522 228.791L353.385 244.277ZM353.385 209.362V178.389L326.663 193.876L353.385 209.362ZM353.385 486.992V456.019L326.522 471.505L353.385 486.992ZM353.385 452.218V421.245L326.522 436.731L353.385 452.218ZM353.385 417.303L353.385 386.33L326.663 401.816L353.385 417.303ZM353.385 590.61V559.637L326.663 575.124L353.385 590.61ZM353.385 764.34V733.367L326.522 748.853L353.385 764.34ZM353.385 694.932V663.959L326.522 679.446L353.385 694.932ZM353.385 660.017V629.044L326.522 644.531L353.385 660.017ZM353.385 625.243V594.271L326.663 609.757L353.385 625.243ZM207.118 611.869V642.56L233.699 627.214L207.118 611.869ZM236.793 109.968V140.237L262.952 125.172L236.793 109.968ZM266.469 123.061L292.909 107.715L266.469 92.3694V123.061ZM263.234 90.5392L236.793 75.1936V105.744L263.234 90.5392ZM264.359 123.342V92.3694L237.637 107.856L264.359 123.342ZM267.172 90.3984L293.894 105.885V74.912L267.172 90.3984ZM266.469 88.2866L292.909 72.941L266.469 57.7361V88.2866ZM263.234 55.9059L236.793 40.5603V71.1108L263.234 55.9059ZM264.359 88.709V57.7361L237.637 73.2226L264.359 88.709ZM266.469 53.6533L293.05 38.3077L266.469 22.8213V53.6533ZM263.374 21.1319L236.793 5.78621V36.4775L263.374 21.1319ZM264.359 54.0757V23.1029L237.637 38.5893L264.359 54.0757ZM266.469 18.7385L293.05 3.39285L266.469 -11.9528V18.7385ZM263.374 -13.783L236.793 -29.1286V1.56264L263.374 -13.783ZM264.359 19.1609V-11.812L237.637 3.67442L264.359 19.1609ZM266.469 -16.0356L292.909 -31.2404L266.469 -46.5861V-16.0356ZM177.443 -29.1286V1.56264L204.024 -13.783L177.443 -29.1286ZM177.443 5.78621V36.4775L204.024 21.1319L177.443 5.78621ZM177.443 40.5603V71.1108L203.883 55.7651L177.443 40.5603ZM177.443 75.1936V105.744L203.883 90.3984L177.443 75.1936ZM177.443 109.968V140.237L203.602 125.172L177.443 109.968ZM177.443 144.179V174.729L203.883 159.524L177.443 144.179ZM177.443 178.812V209.503L204.024 194.157L177.443 178.812ZM177.443 213.727V244.418L204.024 229.072L177.443 213.727ZM177.443 248.501V279.051L203.883 263.846L177.443 248.501ZM177.443 283.134V313.685L203.883 298.339L177.443 283.134ZM177.443 317.908V348.036L203.602 332.972L177.443 317.908ZM175.333 348.459V317.486L148.611 332.972L175.333 348.459ZM177.443 352.119V382.67L203.883 367.465L177.443 352.119ZM177.443 386.752L177.443 417.444L204.024 402.098L177.443 386.752ZM177.443 421.526V452.218L204.024 437.013L177.443 421.526ZM177.443 456.441V486.992L203.883 471.646L177.443 456.441ZM177.443 491.075V521.625L203.883 506.279L177.443 491.075ZM177.443 525.849V556.118L203.602 541.053L177.443 525.849ZM177.443 560.06V590.61L203.883 575.405L177.443 560.06ZM177.443 594.693V625.384L204.024 610.038L177.443 594.693ZM177.443 629.467V660.158L204.024 644.813L177.443 629.467ZM177.443 664.382V694.932L203.883 679.587L177.443 664.382ZM177.443 699.015V729.565L203.883 714.361L177.443 699.015ZM264.359 -15.6132V-46.5861L237.637 -31.0996L264.359 -15.6132ZM236.793 144.179V174.729L263.234 159.524L236.793 144.179ZM266.469 157.272L292.628 142.208L266.469 127.143V157.272ZM267.172 125.032L293.894 140.518V109.545L267.172 125.032ZM264.359 157.694V126.721L237.637 142.208L264.359 157.694ZM236.793 317.908V348.036L262.952 332.972L236.793 317.908ZM266.469 330.86L292.909 315.515L266.469 300.169V330.86ZM263.234 298.48L236.793 283.134V313.685L263.234 298.48ZM264.359 331.283V300.31L237.637 315.796L264.359 331.283ZM267.172 298.339L293.894 313.825V282.852L267.172 298.339ZM266.469 296.227L292.909 280.882L266.469 265.536V296.227ZM263.234 263.846L236.793 248.501V279.051L263.234 263.846ZM264.359 296.649V265.677L237.637 281.163L264.359 296.649ZM266.469 261.594L293.05 246.248L266.469 230.903V261.594ZM263.374 229.072L236.793 213.727V244.418L263.374 229.072ZM264.359 261.875V230.903L237.637 246.389L264.359 261.875ZM266.469 226.679L293.05 211.333L266.469 195.988V226.679ZM263.374 194.157L236.793 178.812V209.503L263.374 194.157ZM264.359 227.101V196.128L237.637 211.615L264.359 227.101ZM266.469 191.905L292.909 176.559L266.469 161.354V191.905ZM264.359 192.186V161.214L237.637 176.7L264.359 192.186ZM236.793 352.119V382.67L263.234 367.465L236.793 352.119ZM266.469 365.212L292.628 350.148L266.469 335.084V365.212ZM234.684 348.459V317.486L207.962 332.972L234.684 348.459ZM264.359 365.634V334.662L237.637 350.148L264.359 365.634ZM236.793 525.849V556.118L262.952 541.053L236.793 525.849ZM266.469 538.801L292.909 523.455L266.469 508.11V538.801ZM263.234 506.42L236.793 491.075V521.625L263.234 506.42ZM264.359 539.223V508.25L237.637 523.737L264.359 539.223ZM267.172 506.139L293.894 521.625V490.652L267.172 506.139ZM266.469 504.168L292.909 488.822L266.469 473.617V504.168ZM263.234 471.646L236.793 456.3V486.851L263.234 471.646ZM264.359 504.59V473.617L237.637 489.104L264.359 504.59ZM266.469 469.534L293.05 454.189L266.469 438.843V469.534ZM263.374 437.013L236.793 421.667V452.358L263.374 437.013ZM264.359 469.816V438.843L237.637 454.329L264.359 469.816ZM266.469 434.619L293.05 419.274L266.469 403.928V434.619ZM263.374 402.098L236.793 386.752L236.793 417.444L263.374 402.098ZM264.359 435.042V404.069L237.637 419.555L264.359 435.042ZM266.469 399.845L292.909 384.641L266.469 369.436L266.469 399.845ZM264.359 400.127L264.359 369.154L237.637 384.641L264.359 400.127ZM236.793 560.06V590.61L263.234 575.405L236.793 560.06ZM266.469 573.153L292.628 558.089L266.469 543.024V573.153ZM267.172 540.913L293.894 556.399V525.426L267.172 540.913ZM264.359 573.575V542.602L237.637 558.089L264.359 573.575ZM266.469 746.741L292.909 731.396L266.469 716.05V746.741ZM263.234 714.361L236.793 699.015V729.565L263.234 714.361ZM264.359 747.164V716.191L237.637 731.677L264.359 747.164ZM267.172 714.079L293.894 729.565V698.593L267.172 714.079ZM266.469 712.108L292.909 696.762L266.469 681.417V712.108ZM263.234 679.587L236.793 664.241V694.791L263.234 679.587ZM264.359 712.53V681.558L237.637 697.044L264.359 712.53ZM266.469 677.334L293.05 661.988L266.469 646.643V677.334ZM263.374 644.813L236.793 629.467V660.158L263.374 644.813ZM264.359 677.756V646.784L237.637 662.27L264.359 677.756ZM266.469 642.56L293.05 627.214L266.469 611.869V642.56ZM263.374 610.038L236.793 594.693V625.384L263.374 610.038ZM264.359 642.982V612.009L237.637 627.496L264.359 642.982ZM266.469 607.645L292.909 592.44L266.469 577.235V607.645ZM264.359 608.067V577.095L237.637 592.581L264.359 608.067ZM294.034 -33.0706V-64.0435L267.172 -48.5571L294.034 -33.0706ZM294.034 71.1108V40.1379L267.172 55.6244L294.034 71.1108ZM294.034 36.3367V5.36385L267.172 20.8503L294.034 36.3367ZM294.034 1.42185V-29.551L267.172 -14.0646L294.034 1.42185ZM294.034 174.87V143.897L267.172 159.383L294.034 174.87ZM294.034 351.837L267.312 367.324L294.175 382.81L294.034 351.837ZM294.034 279.051V248.078L267.172 263.565L294.034 279.051ZM294.034 244.277V213.304L267.172 228.791L294.034 244.277ZM294.034 209.362V178.389L267.172 193.876L294.034 209.362ZM294.034 486.992V456.019L267.172 471.505L294.034 486.992ZM294.034 452.218V421.245L267.172 436.731L294.034 452.218ZM294.034 417.303L294.034 386.33L267.172 401.816L294.034 417.303ZM294.034 590.61V559.637L267.172 575.124L294.034 590.61ZM294.034 764.34V733.367L267.172 748.853L294.034 764.34ZM294.034 694.932V663.959L267.172 679.446L294.034 694.932ZM294.034 660.017V629.044L267.172 644.531L294.034 660.017ZM294.034 625.243V594.271L267.172 609.757L294.034 625.243ZM207.118 123.061L233.558 107.715L207.118 92.3694V123.061ZM205.008 123.342V92.3694L178.146 107.856L205.008 123.342ZM207.962 90.3984L234.684 105.885V74.912L207.962 90.3984ZM207.118 88.2866L233.558 72.941L207.118 57.5954V88.2866ZM205.008 88.709V57.7361L178.286 73.2226L205.008 88.709ZM207.118 53.6533L233.699 38.3077L207.118 22.9621V53.6533ZM205.008 54.0757V23.1029L178.146 38.5893L205.008 54.0757ZM207.118 18.7385L233.699 3.39285L207.118 -11.9528V18.7385ZM205.008 19.1609V-11.812L178.146 3.67442L205.008 19.1609ZM207.118 -16.0356L233.558 -31.2404L207.118 -46.4453V-16.0356ZM205.008 -15.6132V-46.5861L178.146 -31.0996L205.008 -15.6132ZM207.118 157.272L233.277 142.208L207.118 127.143V157.272ZM207.962 125.032L234.684 140.518V109.545L207.962 125.032ZM205.008 157.694V126.721L178.146 142.208L205.008 157.694ZM207.118 330.86L233.558 315.515L207.118 300.169V330.86ZM205.008 331.283V300.31L178.146 315.796L205.008 331.283ZM207.962 298.339L234.684 313.825V282.852L207.962 298.339ZM207.118 296.227L233.558 280.882L207.118 265.536V296.227ZM205.008 296.649V265.677L178.286 281.163L205.008 296.649ZM207.118 261.594L233.699 246.248L207.118 230.903V261.594ZM205.008 261.875V230.903L178.146 246.389L205.008 261.875ZM207.118 226.679L233.699 211.333L207.118 195.988V226.679ZM205.008 227.101V196.128L178.146 211.615L205.008 227.101ZM207.118 191.905L233.558 176.559L207.118 161.354V191.905ZM205.008 192.186V161.214L178.146 176.7L205.008 192.186ZM207.118 365.212L233.277 350.148L207.118 335.084V365.212ZM205.008 365.634V334.662L178.286 350.148L205.008 365.634ZM207.118 538.801L233.558 523.455L207.118 508.11V538.801ZM205.008 539.223V508.25L178.146 523.737L205.008 539.223ZM207.962 506.139L234.684 521.625V490.652L207.962 506.139ZM207.118 504.168L233.558 488.822L207.118 473.476V504.168ZM205.008 504.59V473.617L178.286 489.104L205.008 504.59ZM207.118 469.534L233.699 454.189L207.118 438.843V469.534ZM205.008 469.816V438.843L178.146 454.329L205.008 469.816ZM207.118 434.619L233.699 419.274L207.118 403.928V434.619ZM205.008 435.042V404.069L178.146 419.555L205.008 435.042ZM207.118 399.845L233.558 384.641L207.118 369.436L207.118 399.845ZM205.008 400.127L205.008 369.154L178.146 384.641L205.008 400.127ZM207.118 573.153L233.277 558.089L207.118 543.024V573.153ZM207.962 540.913L234.684 556.399V525.426L207.962 540.913ZM205.008 573.575V542.602L178.146 558.089L205.008 573.575ZM207.118 746.741L233.558 731.396L207.118 716.05V746.741ZM205.008 747.164V716.191L178.146 731.677L205.008 747.164ZM207.962 714.079L234.684 729.565V698.593L207.962 714.079ZM207.118 712.108L233.558 696.762L207.118 681.417V712.108ZM205.008 712.53V681.558L178.286 697.044L205.008 712.53ZM207.118 677.334L233.699 661.988L207.118 646.643V677.334ZM205.008 677.756V646.784L178.146 662.27L205.008 677.756ZM205.008 642.982V612.009L178.146 627.496L205.008 642.982ZM207.118 577.235V607.786L233.558 592.581L207.118 577.235ZM205.008 608.067V577.095L178.146 592.581L205.008 608.067ZM234.684 -33.0706V-64.0435L207.962 -48.5571L234.684 -33.0706ZM234.684 71.1108V40.1379L207.821 55.6244L234.684 71.1108ZM234.684 36.3367V5.36385L207.821 20.8503L234.684 36.3367ZM234.684 1.42185V-29.551L207.962 -14.0646L234.684 1.42185ZM234.684 174.87V143.897L207.962 159.383L234.684 174.87ZM234.684 351.837L207.962 367.324L234.684 382.81V351.837ZM234.684 279.051V248.078L207.821 263.565L234.684 279.051ZM234.684 244.277V213.304L207.821 228.791L234.684 244.277ZM234.684 209.362V178.389L207.962 193.876L234.684 209.362ZM234.684 486.992V456.019L207.821 471.505L234.684 486.992ZM234.684 452.218V421.245L207.821 436.731L234.684 452.218ZM234.684 417.303L234.684 386.33L207.962 401.816L234.684 417.303ZM234.684 590.61V559.637L207.962 575.124L234.684 590.61ZM234.684 764.34V733.367L207.821 748.853L234.684 764.34ZM234.684 694.932V663.959L207.821 679.446L234.684 694.932ZM234.684 660.017V629.044L207.821 644.531L234.684 660.017ZM234.684 625.243V594.271L207.962 609.757L234.684 625.243ZM118.092 109.968V140.237L144.251 125.172L118.092 109.968ZM147.767 123.061L174.208 107.715L147.767 92.3694V123.061ZM144.533 90.5392L118.092 75.1936V105.744L144.533 90.5392ZM145.658 123.342V92.3694L118.936 107.856L145.658 123.342ZM148.611 90.3984L175.333 105.885V74.912L148.611 90.3984ZM147.767 88.2866L174.208 72.941L147.767 57.5954V88.2866ZM144.673 55.9059L118.233 40.5603V71.1108L144.673 55.9059ZM145.658 88.709V57.7361L118.936 73.2226L145.658 88.709ZM147.767 53.6533L174.349 38.3077L147.767 22.9621V53.6533ZM144.814 21.1319L118.233 5.78621V36.4775L144.814 21.1319ZM145.658 54.0757V23.1029L118.936 38.5893L145.658 54.0757ZM147.767 18.7385L174.349 3.39285L147.767 -11.9528V18.7385ZM144.814 -13.783L118.233 -29.1286V1.56264L144.814 -13.783ZM145.658 19.1609V-11.812L118.936 3.67442L145.658 19.1609ZM147.767 -16.0356L174.208 -31.2404L147.767 -46.4453V-16.0356ZM145.658 -15.6132V-46.5861L118.936 -31.0996L145.658 -15.6132ZM118.092 144.179V174.729L144.533 159.524L118.092 144.179ZM147.767 157.272L173.927 142.208L147.767 127.143V157.272ZM148.611 125.032L175.333 140.518V109.545L148.611 125.032ZM145.658 157.694V126.721L118.936 142.208L145.658 157.694ZM118.092 317.908V348.036L144.251 332.972L118.092 317.908ZM147.767 330.86L174.208 315.515L147.767 300.169V330.86ZM144.533 298.48L118.092 283.134V313.685L144.533 298.48ZM145.658 331.283V300.31L118.936 315.796L145.658 331.283ZM148.611 298.339L175.333 313.825V282.852L148.611 298.339ZM147.767 296.227L174.208 280.882L147.767 265.536V296.227ZM144.673 263.846L118.233 248.501V279.051L144.673 263.846ZM145.658 296.649V265.677L118.936 281.163L145.658 296.649ZM147.767 261.594L174.349 246.248L147.767 230.903V261.594ZM144.814 229.072L118.233 213.727V244.418L144.814 229.072ZM145.658 261.875V230.903L118.936 246.389L145.658 261.875ZM147.767 226.679L174.349 211.333L147.767 195.988V226.679ZM144.814 194.157L118.233 178.812V209.503L144.814 194.157ZM145.658 227.101V196.128L118.936 211.615L145.658 227.101ZM147.767 191.905L174.208 176.559L147.767 161.354V191.905ZM145.658 192.186V161.214L118.936 176.7L145.658 192.186ZM118.092 352.119V382.67L144.533 367.465L118.092 352.119ZM147.767 365.212L173.927 350.148L147.767 335.084V365.212ZM115.982 348.459V317.486L89.1201 332.972L115.982 348.459ZM145.658 365.634V334.662L118.936 350.148L145.658 365.634ZM118.092 525.849V556.118L144.251 541.053L118.092 525.849ZM147.767 538.801L174.208 523.455L147.767 508.11V538.801ZM144.533 506.42L118.092 491.075V521.625L144.533 506.42ZM145.658 539.223V508.25L118.936 523.737L145.658 539.223ZM148.611 506.139L175.333 521.625V490.652L148.611 506.139ZM147.767 504.168L174.208 488.822L147.767 473.476V504.168ZM144.673 471.646L118.233 456.3V486.851L144.673 471.646ZM145.658 504.59V473.617L118.936 489.104L145.658 504.59ZM147.767 469.534L174.349 454.189L147.767 438.843V469.534ZM144.814 437.013L118.233 421.667V452.358L144.814 437.013ZM145.658 469.816V438.843L118.936 454.329L145.658 469.816ZM147.767 434.619L174.349 419.274L147.767 403.928V434.619ZM144.814 402.098L118.233 386.752L118.233 417.444L144.814 402.098ZM145.658 435.042V404.069L118.936 419.555L145.658 435.042ZM147.767 399.845L174.208 384.641L147.767 369.436L147.767 399.845ZM145.658 400.127L145.658 369.154L118.936 384.641L145.658 400.127ZM118.092 560.06V590.61L144.533 575.405L118.092 560.06ZM147.767 573.153L173.927 558.089L147.767 543.024V573.153ZM148.611 540.913L175.333 556.399V525.426L148.611 540.913ZM145.658 573.575V542.602L118.936 558.089L145.658 573.575ZM147.767 746.741L174.208 731.396L147.767 716.05V746.741ZM144.533 714.361L118.092 699.015V729.565L144.533 714.361ZM145.658 747.164V716.191L118.936 731.677L145.658 747.164ZM148.611 714.079L175.333 729.565V698.593L148.611 714.079ZM147.767 712.108L174.208 696.762L147.767 681.417V712.108ZM144.673 679.587L118.233 664.241V694.791L144.673 679.587ZM145.658 712.53V681.558L118.936 697.044L145.658 712.53ZM147.767 677.334L174.349 661.988L147.767 646.643V677.334ZM144.814 644.813L118.233 629.467V660.158L144.814 644.813ZM145.658 677.756V646.784L118.936 662.27L145.658 677.756ZM147.767 642.56L174.349 627.214L147.767 611.869V642.56ZM144.814 610.038L118.233 594.693V625.384L144.814 610.038ZM145.658 642.982V612.009L118.936 627.496L145.658 642.982ZM147.767 607.645L174.208 592.44L147.767 577.235V607.645ZM145.658 608.067V577.095L118.936 592.581L145.658 608.067ZM175.333 -33.0706V-64.0435L148.611 -48.5571L175.333 -33.0706ZM175.333 71.1108V40.1379L148.611 55.6244L175.333 71.1108ZM175.333 36.3367V5.36385L148.611 20.8503L175.333 36.3367ZM175.333 1.42185V-29.551L148.611 -14.0646L175.333 1.42185ZM175.333 174.87V143.897L148.611 159.383L175.333 174.87ZM175.333 351.837L148.611 367.324L175.333 382.81V351.837ZM175.333 279.051V248.078L148.611 263.565L175.333 279.051ZM175.333 244.277V213.304L148.611 228.791L175.333 244.277ZM175.333 209.362V178.389L148.611 193.876L175.333 209.362ZM175.333 486.992V456.019L148.611 471.505L175.333 486.992ZM175.333 452.218V421.245L148.611 436.731L175.333 452.218ZM175.333 417.303L175.333 386.33L148.611 401.816L175.333 417.303ZM175.333 590.61V559.637L148.611 575.124L175.333 590.61ZM175.333 764.34V733.367L148.611 748.853L175.333 764.34ZM175.333 694.932V663.959L148.611 679.446L175.333 694.932ZM175.333 660.017V629.044L148.611 644.531L175.333 660.017ZM175.333 625.243V594.271L148.611 609.757L175.333 625.243ZM29.0662 746.741L55.5068 731.396L29.0662 716.05V746.741ZM29.9101 714.079L56.6319 729.565V698.593L29.9101 714.079ZM29.0662 712.108L55.5068 696.762L29.0662 681.417V712.108ZM29.0662 677.334L55.6474 661.988L29.0662 646.643V677.334ZM29.0662 642.56L55.6474 627.214L29.0662 611.869V642.56ZM29.0662 607.645L55.5068 592.44L29.0662 577.235V607.645ZM29.0662 573.153L55.2255 558.089L29.0662 543.024V573.153ZM29.0662 538.801L55.5068 523.455L29.0662 508.11V538.801ZM29.9101 506.139L56.6319 521.625V490.652L29.9101 506.139ZM29.0662 504.168L55.5068 488.822L29.0662 473.476V504.168ZM29.0662 469.534L55.6474 454.189L29.0662 438.843V469.534ZM29.0662 434.619L55.6474 419.274L29.0662 403.928V434.619ZM29.0662 399.845L55.5068 384.5L29.0662 369.295L29.0662 399.845ZM29.0662 365.212L55.2255 350.148L29.0662 335.084V365.212ZM29.0662 330.86L55.5068 315.515L29.0662 300.169V330.86ZM29.9101 298.339L56.6319 313.825V282.852L29.9101 298.339ZM29.0662 296.227L55.5068 280.882L29.0662 265.536V296.227ZM29.0662 261.594L55.6474 246.248L29.0662 230.903V261.594ZM29.0662 226.679L55.6474 211.333L29.0662 195.988V226.679ZM29.0662 191.905L55.5068 176.559L29.0662 161.354V191.905ZM29.0662 157.272L55.2255 142.208L29.0662 127.143V157.272ZM29.0662 123.061L55.5068 107.715L29.0662 92.3694V123.061ZM29.9101 90.3984L56.6319 105.885V74.912L29.9101 90.3984ZM29.0662 88.2866L55.5068 72.941L29.0662 57.5954V88.2866ZM29.0662 53.6533L55.6474 38.3077L29.0662 22.9621V53.6533ZM29.0662 18.7385L55.7881 3.39285L29.2068 -11.9528L29.0662 18.7385ZM29.0662 -16.0356L55.5068 -31.2404L29.0662 -46.4453V-16.0356ZM26.9567 123.342V92.3694L0.0941162 107.856L26.9567 123.342ZM26.9567 88.709V57.7361L0.234802 73.2226L26.9567 88.709ZM26.9567 54.0757V23.1029L0.0941162 38.5893L26.9567 54.0757ZM26.9567 19.1609V-11.812L0.0941162 3.67442L26.9567 19.1609ZM26.9567 -15.6132V-46.5861L0.234802 -31.0996L26.9567 -15.6132ZM26.9567 157.694V126.721L0.234802 142.208L26.9567 157.694ZM26.9567 331.283V300.31L0.0941162 315.796L26.9567 331.283ZM26.9567 334.662L0.234802 350.148L26.9567 365.634V334.662ZM26.9567 296.649V265.677L0.234802 281.163L26.9567 296.649ZM26.9567 261.875V230.903L0.0941162 246.389L26.9567 261.875ZM26.9567 227.101V196.128L0.0941162 211.615L26.9567 227.101ZM26.9567 192.186V161.214L0.234802 176.7L26.9567 192.186ZM26.9567 539.223V508.25L0.0941162 523.737L26.9567 539.223ZM26.9567 504.59V473.617L0.234802 489.104L26.9567 504.59ZM26.9567 469.816V438.843L0.0941162 454.329L26.9567 469.816ZM26.9567 435.042V404.069L0.0941162 419.555L26.9567 435.042ZM26.9567 400.127L26.9567 369.154L0.234802 384.641L26.9567 400.127ZM26.9567 573.575V542.602L0.234802 558.089L26.9567 573.575ZM26.9567 747.164V716.191L0.0941162 731.677L26.9567 747.164ZM26.9567 712.53V681.558L0.234802 697.044L26.9567 712.53ZM26.9567 677.756V646.784L0.0941162 662.27L26.9567 677.756ZM26.9567 642.982V612.009L0.0941162 627.496L26.9567 642.982ZM26.9567 608.067V577.095L0.234802 592.581L26.9567 608.067ZM56.6319 -33.0706V-64.0435L31.7384 -48.5571L56.6319 -33.0706ZM58.7415 140.096L84.9008 125.032L58.7415 109.968V140.096ZM59.5854 107.856L86.3072 123.342V92.3694L59.5854 107.856ZM56.6319 140.518V109.545L29.7695 125.032L56.6319 140.518ZM58.7415 105.885L85.182 90.5392L58.7415 75.1936V105.885ZM59.5854 73.2226L86.3072 88.709V57.7361L59.5854 73.2226ZM58.7415 71.1108L85.182 55.7651L58.7415 40.4195V71.1108ZM59.5854 38.5893L86.3072 54.0757V23.1029L59.5854 38.5893ZM56.6319 71.1108V40.1379L29.7695 55.6244L56.6319 71.1108ZM58.7415 36.4775L85.3227 21.1319L58.7415 5.78621V36.4775ZM59.5854 3.67442L86.3072 19.1609V-11.812L59.5854 3.67442ZM56.6319 36.3367V5.36385L29.7695 20.8503L56.6319 36.3367ZM58.7415 1.70342L85.3227 -13.6422L58.7415 -28.9879V1.70342ZM59.5854 -31.0996L86.3072 -15.6132V-46.5861L59.5854 -31.0996ZM56.6319 1.42185V-29.551L29.9101 -14.0646L56.6319 1.42185ZM58.7415 174.729L85.0414 159.524L58.7415 144.319V174.729ZM59.5854 142.208L86.3072 157.694V126.721L59.5854 142.208ZM56.6319 174.87V143.897L29.9101 159.383L56.6319 174.87ZM56.6319 351.837L29.9101 367.324L56.6319 382.81V351.837ZM58.7415 348.036L84.9008 332.972L58.7415 317.908V348.036ZM59.5854 315.796L86.3072 331.283V300.31L59.5854 315.796ZM56.6319 348.459V317.486L29.7695 332.972L56.6319 348.459ZM58.7415 313.825L85.182 298.48L58.7415 283.134V313.825ZM59.5854 281.163L86.3072 296.649V265.677L59.5854 281.163ZM58.7415 279.051L85.3227 263.846L58.8822 248.501L58.7415 279.051ZM59.5854 246.389L86.3072 261.875V230.903L59.5854 246.389ZM56.6319 279.051V248.078L29.7695 263.565L56.6319 279.051ZM58.7415 244.418L85.3227 229.072L58.7415 213.727V244.418ZM59.5854 211.615L86.3072 227.101V196.128L59.5854 211.615ZM56.6319 244.277V213.304L29.7695 228.791L56.6319 244.277ZM58.7415 209.503L85.3227 194.157L58.7415 178.812V209.503ZM59.5854 176.7L86.3072 192.186V161.214L59.5854 176.7ZM56.6319 209.362V178.389L29.9101 193.876L56.6319 209.362ZM58.7415 382.67L85.0414 367.465L58.7415 352.26V382.67ZM59.5854 350.148L86.3072 365.634V334.662L59.5854 350.148ZM58.7415 555.977L84.9008 540.913L58.7415 525.849V555.977ZM59.5854 523.737L86.3072 539.223V508.25L59.5854 523.737ZM56.6319 556.399V525.426L29.7695 540.913L56.6319 556.399ZM58.7415 521.625L85.182 506.279L58.7415 490.934V521.625ZM59.5854 489.104L86.3072 504.59V473.617L59.5854 489.104ZM58.7415 486.992L85.182 471.646L58.7415 456.3V486.992ZM59.5854 454.329L86.3072 469.816V438.843L59.5854 454.329ZM56.6319 486.992V456.019L29.7695 471.505L56.6319 486.992ZM58.7415 452.358L85.4633 437.013L58.8822 421.667L58.7415 452.358ZM59.5854 419.555L86.3072 435.042V404.069L59.5854 419.555ZM56.6319 452.218V421.245L29.7695 436.731L56.6319 452.218ZM58.7415 417.444L85.3227 402.098L58.7415 386.752L58.7415 417.444ZM59.5854 384.641L86.3072 400.127L86.3072 369.154L59.5854 384.641ZM56.6319 417.303L56.6319 386.33L29.9101 401.816L56.6319 417.303ZM58.7415 590.61L85.0414 575.405L58.7415 560.2V590.61ZM59.5854 558.089L86.3072 573.575V542.602L59.5854 558.089ZM56.6319 590.61V559.637L29.9101 575.124L56.6319 590.61ZM59.5854 731.677L86.3072 747.164V716.191L59.5854 731.677ZM56.6319 764.34V733.367L29.7695 748.853L56.6319 764.34ZM58.7415 729.565L85.3227 714.361L58.8822 699.015V729.565H58.7415ZM59.5854 697.044L86.3072 712.53V681.558L59.5854 697.044ZM58.7415 694.932L85.182 679.587L58.7415 664.241V694.932ZM59.5854 662.27L86.3072 677.756V646.784L59.5854 662.27ZM56.6319 694.932V663.959L29.7695 679.446L56.6319 694.932ZM58.7415 660.299L85.3227 644.953L58.7415 629.608V660.299ZM59.5854 627.496L86.3072 642.982V612.009L59.5854 627.496ZM56.6319 660.017V629.044L29.7695 644.531L56.6319 660.017ZM58.7415 625.384L85.3227 610.038L58.7415 594.693V625.384ZM59.5854 592.581L86.3072 608.067V577.095L59.5854 592.581ZM56.6319 625.243V594.271L29.9101 609.757L56.6319 625.243ZM88.4168 123.061L114.857 107.715L88.4168 92.3694V123.061ZM89.2606 90.3984L115.982 105.885V74.912L89.2606 90.3984ZM88.4168 88.2866L114.857 72.941L88.4168 57.5954V88.2866ZM88.4168 53.6533L114.998 38.3077L88.4168 22.9621V53.6533ZM88.4168 18.7385L115.139 3.39285L88.5574 -11.9528V18.7385H88.4168ZM88.4168 -16.0356L114.857 -31.2404L88.4168 -46.4453V-16.0356ZM88.4168 157.272L114.576 142.208L88.4168 127.143V157.272ZM89.2606 125.032L116.123 140.518V109.545L89.2606 125.032ZM88.4168 330.86L114.857 315.515L88.4168 300.169V330.86ZM89.2606 298.339L115.982 313.825V282.852L89.2606 298.339ZM88.4168 296.227L114.857 280.882L88.4168 265.536V296.227ZM88.4168 261.594L114.998 246.248L88.4168 230.903V261.594ZM88.4168 226.679L114.998 211.333L88.4168 195.988V226.679ZM88.4168 191.905L114.857 176.559L88.4168 161.354V191.905ZM88.4168 365.212L114.576 350.148L88.4168 335.084V365.212ZM88.4168 538.801L114.857 523.455L88.4168 508.11V538.801ZM89.2606 506.139L115.982 521.625V490.652L89.2606 506.139ZM88.4168 504.168L114.857 488.822L88.4168 473.476V504.168ZM88.4168 469.534L114.998 454.189L88.4168 438.843V469.534ZM88.4168 434.619L114.998 419.274L88.4168 403.928V434.619ZM88.4168 399.845L114.857 384.641L88.4168 369.436L88.4168 399.845ZM88.4168 573.153L114.576 558.089L88.4168 543.024V573.153ZM89.2606 540.913L116.123 556.399V525.426L89.2606 540.913ZM88.4168 746.741L114.857 731.396L88.4168 716.05V746.741ZM89.2606 714.079L115.982 729.565V698.593L89.2606 714.079ZM88.4168 712.108L114.857 696.762L88.4168 681.417V712.108ZM88.4168 677.334L114.998 661.988L88.4168 646.643V677.334ZM88.4168 577.235V607.786L114.857 592.581L88.4168 577.235ZM115.982 -33.0706V-64.0435L89.2606 -48.5571L115.982 -33.0706ZM115.982 71.1108V40.1379L89.1201 55.6244L115.982 71.1108ZM115.982 36.3367V5.36385L89.1201 20.8503L115.982 36.3367ZM115.982 1.42185V-29.551L89.2606 -14.0646L115.982 1.42185ZM115.982 174.87V143.897L89.2606 159.383L115.982 174.87ZM115.982 351.837L89.2606 367.324L115.982 382.81V351.837ZM115.982 279.051V248.078L89.1201 263.565L115.982 279.051ZM115.982 244.277V213.304L89.1201 228.791L115.982 244.277ZM115.982 209.362V178.389L89.2606 193.876L115.982 209.362ZM115.982 486.992V456.019L89.1201 471.505L115.982 486.992ZM115.982 452.218V421.245L89.1201 436.731L115.982 452.218ZM115.982 417.303L115.982 386.33L89.2606 401.816L115.982 417.303ZM115.982 590.61V559.637L89.2606 575.124L115.982 590.61ZM115.982 764.34V733.367L89.1201 748.853L115.982 764.34ZM115.982 694.932V663.959L89.1201 679.446L115.982 694.932ZM115.982 660.017V629.044L89.1201 644.531L115.982 660.017ZM115.982 625.243V594.271L89.2606 609.757L115.982 625.243Z" fill="url(#paint0_linear_4_44)"/>
<defs>
<linearGradient id="paint0_linear_4_44" x1="55.2858" y1="676.84" x2="560.832" y2="277.112" gradientUnits="userSpaceOnUse">
<stop stop-color="white"/>
<stop offset="1" stop-color="white" stop-opacity="0"/>
</linearGradient>
</defs>
</svg>
