<svg width="625" height="177" viewBox="0 0 625 177" fill="none" xmlns="http://www.w3.org/2000/svg">
<path d="M356.574 175.553L356.569 175.552C353.929 174.923 350.856 173.982 347.355 172.732L346.93 172.58L347.037 172.142L351.899 152.323L352.044 151.732L352.596 151.989C354.44 152.85 356.15 153.459 357.728 153.824C359.447 154.192 360.968 154.373 362.294 154.373C365.276 154.373 367.897 153.305 370.178 151.144L370.187 151.136C372.592 148.972 374.549 145.633 376.029 141.07L376.033 141.06L376.036 141.05L378.96 133.193L339.394 35.9641L339.113 35.2756H339.857H365.847H366.197L366.317 35.6045L392.181 106.588L414.921 35.6231L415.032 35.2756H415.397H439.331H440.04L439.802 35.9439L399.788 147.935L356.574 175.553ZM356.574 175.553C359.35 176.184 362.068 176.5 364.725 176.5M356.574 175.553L364.725 176.5M364.725 176.5C369.79 176.5 374.603 175.36 379.159 173.082C383.714 170.805 387.756 167.519 391.286 163.233M364.725 176.5L391.286 163.233M391.286 163.233C394.821 159.067 397.652 153.965 399.788 147.936L391.286 163.233ZM29.1733 134.681V135.181H29.6733H43.8839C50.798 135.181 56.3865 133.861 60.6067 131.176C64.8277 128.49 68.5567 123.789 71.819 117.139L71.8192 117.139L71.825 117.126L124.741 1.20763L125.064 0.5H124.286H97.1736H96.8464L96.7154 0.799829L66.103 70.8707L30.8679 0.775438L30.7295 0.5H30.4212H2H1.16002L1.56048 1.23837L54.1703 98.2413L51.2824 104.558L51.2788 104.566L51.2756 104.574C50.0449 107.527 48.6499 109.628 47.1136 110.928C45.6203 112.192 43.3267 112.866 40.1442 112.866H29.6733H29.1733V113.366V134.681ZM157.683 132.148L157.691 132.151C164.118 134.797 171.351 136.115 179.384 136.115C186.663 136.115 193.205 135.049 199.004 132.906L199.009 132.904C204.92 130.64 210.022 127.556 214.31 123.647C218.719 119.742 222.065 115.326 224.34 110.398L224.58 109.877L224.032 109.71L199.537 102.231L199.114 102.102L198.934 102.506C197.972 104.671 196.465 106.605 194.399 108.306C192.326 110.013 189.946 111.357 187.253 112.336L187.246 112.338C184.689 113.312 181.945 113.801 179.01 113.801C174.368 113.801 170.164 112.582 166.384 110.145C162.595 107.577 159.534 104.152 157.203 99.8605C155.001 95.454 153.894 90.4245 153.894 84.7607C153.894 78.9666 155.003 73.9375 157.204 69.6582L157.207 69.6531C159.413 65.2403 162.407 61.8869 166.183 59.5727L166.186 59.5704C170.095 57.1275 174.366 55.9071 179.01 55.9071C183.166 55.9071 186.944 56.8839 190.355 58.8326L190.355 58.8328L190.367 58.8392C193.771 60.6629 196.51 63.3378 198.586 66.8779L198.786 67.2185L199.163 67.1032L223.658 59.6246L224.224 59.4518L223.959 58.9227C220.174 51.3544 214.435 45.2406 206.756 40.5832C199.06 35.9156 189.867 33.5929 179.197 33.5929C168.527 33.5929 159.273 35.9156 151.455 40.5813C143.651 45.2378 137.604 51.4722 133.322 59.2799L133.321 59.2824C129.165 66.9636 127.09 75.4597 127.09 84.7607C127.09 91.5516 128.285 98.0322 130.677 104.199L130.68 104.207C133.196 110.37 136.718 115.905 141.246 120.81L141.251 120.815C145.788 125.604 151.268 129.381 157.683 132.148ZM231.698 135.054V135.563L232.206 135.554C239.358 135.429 245.592 134.3 250.896 132.153C256.225 129.996 260.662 126.444 264.204 121.511C267.869 116.454 270.695 109.656 272.698 101.141C274.703 92.6233 275.952 81.9317 276.451 69.075L276.451 69.0719L276.809 58.1506H302.19V133.746V134.246H302.69H327.745H328.245V133.746V35.7756V35.2756H327.745H254.261H253.782L253.762 35.7544L252.453 66.6038L252.453 66.605C252.08 75.9405 251.333 83.5796 250.217 89.5296L250.216 89.5396C249.223 95.4947 247.802 100.106 245.971 103.401L245.968 103.407C244.252 106.594 242.253 108.818 239.987 110.129C237.695 111.456 235.095 112.184 232.177 112.306L231.698 112.326V112.806V135.054ZM452.444 133.746V134.246H452.944H478H478.5V133.746V58.1506H517.827H518.327V57.6506V35.7756V35.2756H517.827H452.944H452.444V35.7756V133.746ZM531.692 133.746V134.246H532.192H555.565H555.827L555.976 134.03L598.444 72.5292V133.746V134.246H598.944H624H624.5V133.746V35.7756V35.2756H624H601.188H600.924L600.775 35.4941L557.748 98.6568V35.9626V35.4626H557.248H532.192H531.692V35.9626V133.746Z" stroke="#272827"/>
</svg>
