<svg width="1228" height="171" viewBox="0 0 1228 171" fill="none" xmlns="http://www.w3.org/2000/svg">
<mask id="path-1-outside-1_11_40" maskUnits="userSpaceOnUse" x="0" y="0" width="1228" height="171" fill="black">
<rect fill="white" width="1228" height="171"/>
<path d="M53.4985 133.623C45.5306 133.623 38.2657 132.452 31.7039 130.109C25.1421 127.649 19.4005 124.251 14.4792 119.916C9.5578 115.582 5.39808 110.485 2 104.628L22.037 93.205C24.1461 97.0711 26.7826 100.469 29.9463 103.397C33.11 106.209 36.6839 108.377 40.6678 109.9C44.769 111.423 49.1045 112.184 53.6743 112.184C59.2987 112.184 64.3958 111.13 68.9657 109.021C73.5355 106.795 77.4023 103.808 80.566 100.059C83.8469 96.1925 86.3076 91.7992 87.9481 86.8787C89.7057 81.841 90.5845 76.569 90.5845 71.0628L100.427 77.7406H42.9528V59.8159H99.8999L90.4087 66.318C90.1744 61.3975 89.237 56.6527 87.5965 52.0837C85.9561 47.5146 83.554 43.4728 80.3903 39.9582C77.2265 36.4435 73.4183 33.6904 68.9657 31.6987C64.513 29.59 59.4159 28.5356 53.6743 28.5356C49.2216 28.5356 45.0033 29.2971 41.0194 30.8201C37.0354 32.2259 33.5201 34.3347 30.4736 37.1464C27.427 39.9582 24.8492 43.4142 22.74 47.5146L3.58187 34.3347C8.6204 26.3682 15.1236 19.8661 23.0915 14.8285C31.1766 9.67364 41.4295 7.09623 53.8501 7.09623C63.5756 7.09623 72.2466 8.85356 79.863 12.3682C87.4794 15.8828 93.924 20.6276 99.1969 26.6025C104.47 32.5774 108.454 39.3138 111.149 46.8117C113.961 54.3096 115.367 62.1004 115.367 70.1841C115.367 78.6192 113.902 86.6443 110.973 94.2594C108.161 101.874 104.001 108.669 98.4938 114.644C93.1038 120.502 86.6005 125.13 78.9842 128.527C71.3678 131.925 62.8725 133.623 53.4985 133.623Z"/>
<path d="M152.961 132.569V61.046H123.784V40.4854H205.866V61.046H176.513V132.569H152.961Z"/>
<path d="M212.39 105.331C212.39 99.3556 214.03 94.1423 217.311 89.6904C220.709 85.1213 225.396 81.6067 231.372 79.1464C237.348 76.6862 244.203 75.4561 251.936 75.4561C255.803 75.4561 259.728 75.749 263.712 76.3347C267.696 76.9205 271.153 77.8577 274.082 79.1464V74.2259C274.082 68.3682 272.325 63.8577 268.809 60.6946C265.411 57.5314 260.314 55.9498 253.518 55.9498C248.48 55.9498 243.675 56.8284 239.105 58.5858C234.536 60.3431 229.731 62.9205 224.693 66.318L217.135 50.8536C223.228 46.8703 229.439 43.8828 235.766 41.8912C242.211 39.8996 248.948 38.9038 255.979 38.9038C269.102 38.9038 279.297 42.1841 286.561 48.7448C293.944 55.3054 297.635 64.6778 297.635 76.8619V106.209C297.635 108.669 298.045 110.427 298.865 111.481C299.802 112.536 301.267 113.18 303.259 113.414V132.569C301.15 132.921 299.216 133.213 297.459 133.448C295.818 133.682 294.412 133.799 293.24 133.799C288.553 133.799 284.98 132.745 282.519 130.636C280.175 128.527 278.711 125.95 278.125 122.904L277.598 118.159C273.614 123.314 268.634 127.297 262.658 130.109C256.682 132.921 250.589 134.326 244.378 134.326C238.285 134.326 232.778 133.096 227.857 130.636C223.052 128.059 219.244 124.603 216.432 120.268C213.737 115.816 212.39 110.837 212.39 105.331ZM269.688 110.075C270.977 108.669 272.032 107.264 272.852 105.858C273.672 104.452 274.082 103.163 274.082 101.992V92.6778C271.27 91.5063 268.224 90.6276 264.943 90.0418C261.662 89.3389 258.557 88.9874 255.627 88.9874C249.534 88.9874 244.496 90.3347 240.512 93.0293C236.645 95.6067 234.711 99.0628 234.711 103.397C234.711 105.741 235.356 107.967 236.645 110.075C237.934 112.184 239.809 113.883 242.269 115.172C244.73 116.46 247.659 117.105 251.057 117.105C254.573 117.105 258.029 116.46 261.427 115.172C264.825 113.766 267.579 112.067 269.688 110.075Z"/>
<path d="M319.643 132.569V40.4854H402.252V132.569H378.7V61.046H343.196V132.569H319.643Z"/>
<path d="M423.659 132.569V40.4854H447.212V69.4812H463.382C474.513 69.4812 483.009 72.2929 488.867 77.9163C494.726 83.5397 497.655 90.9791 497.655 100.234C497.655 106.444 496.367 112.008 493.789 116.929C491.328 121.849 487.696 125.715 482.891 128.527C478.087 131.222 472.111 132.569 464.964 132.569H423.659ZM447.212 114.644H461.273C464.553 114.644 467.19 114 469.182 112.711C471.174 111.423 472.639 109.724 473.576 107.615C474.631 105.506 475.158 103.105 475.158 100.41C475.158 97.8326 474.689 95.5481 473.752 93.5565C472.814 91.4477 471.291 89.8075 469.182 88.636C467.19 87.3473 464.495 86.7029 461.097 86.7029H447.212V114.644ZM512.068 132.569V40.6611H535.62V132.569H512.068Z"/>
<path d="M654.612 134.326C647.464 134.326 641.137 132.745 635.629 129.582C630.239 126.301 626.021 121.908 622.974 116.402V170H599.422V40.4854H619.986V56.3013C623.502 50.9121 627.954 46.6946 633.344 43.6485C638.734 40.4854 644.886 38.9038 651.799 38.9038C658.01 38.9038 663.693 40.1339 668.849 42.5941C674.121 45.0544 678.691 48.5105 682.558 52.9623C686.425 57.2971 689.413 62.3347 691.522 68.0753C693.748 73.6987 694.861 79.7908 694.861 86.3515C694.861 95.2552 693.104 103.339 689.589 110.603C686.19 117.866 681.445 123.665 675.352 128C669.376 132.218 662.462 134.326 654.612 134.326ZM646.702 114.293C650.335 114.293 653.616 113.531 656.545 112.008C659.474 110.485 661.994 108.435 664.103 105.858C666.329 103.163 667.97 100.176 669.024 96.8954C670.196 93.4979 670.782 89.9833 670.782 86.3515C670.782 82.4854 670.137 78.9121 668.849 75.6318C667.677 72.3515 665.919 69.4812 663.576 67.0209C661.232 64.4435 658.479 62.4519 655.315 61.046C652.268 59.6402 648.929 58.9372 645.296 58.9372C643.07 58.9372 640.785 59.3473 638.442 60.1674C636.215 60.8703 634.047 61.9247 631.938 63.3305C629.829 64.7364 627.954 66.3766 626.314 68.251C624.791 70.1255 623.677 72.1757 622.974 74.4017V96.0167C624.38 99.4142 626.255 102.519 628.599 105.331C631.059 108.142 633.872 110.368 637.035 112.008C640.199 113.531 643.421 114.293 646.702 114.293Z"/>
<path d="M704.491 105.331C704.491 99.3556 706.132 94.1423 709.413 89.6904C712.811 85.1213 717.498 81.6067 723.474 79.1464C729.45 76.6862 736.304 75.4561 744.038 75.4561C747.905 75.4561 751.83 75.749 755.814 76.3347C759.798 76.9205 763.255 77.8577 766.184 79.1464V74.2259C766.184 68.3682 764.426 63.8577 760.911 60.6946C757.513 57.5314 752.416 55.9498 745.62 55.9498C740.581 55.9498 735.777 56.8284 731.207 58.5858C726.637 60.3431 721.833 62.9205 716.795 66.318L709.237 50.8536C715.33 46.8703 721.54 43.8828 727.868 41.8912C734.312 39.8996 741.05 38.9038 748.081 38.9038C761.204 38.9038 771.398 42.1841 778.663 48.7448C786.045 55.3054 789.736 64.6778 789.736 76.8619V106.209C789.736 108.669 790.146 110.427 790.967 111.481C791.904 112.536 793.369 113.18 795.361 113.414V132.569C793.252 132.921 791.318 133.213 789.56 133.448C787.92 133.682 786.514 133.799 785.342 133.799C780.655 133.799 777.081 132.745 774.621 130.636C772.277 128.527 770.812 125.95 770.227 122.904L769.699 118.159C765.715 123.314 760.735 127.297 754.759 130.109C748.784 132.921 742.69 134.326 736.48 134.326C730.387 134.326 724.88 133.096 719.958 130.636C715.154 128.059 711.346 124.603 708.534 120.268C705.839 115.816 704.491 110.837 704.491 105.331ZM761.79 110.075C763.079 108.669 764.133 107.264 764.954 105.858C765.774 104.452 766.184 103.163 766.184 101.992V92.6778C763.372 91.5063 760.325 90.6276 757.044 90.0418C753.763 89.3389 750.658 88.9874 747.729 88.9874C741.636 88.9874 736.597 90.3347 732.613 93.0293C728.747 95.6067 726.813 99.0628 726.813 103.397C726.813 105.741 727.458 107.967 728.747 110.075C730.035 112.184 731.91 113.883 734.371 115.172C736.832 116.46 739.761 117.105 743.159 117.105C746.674 117.105 750.131 116.46 753.529 115.172C756.927 113.766 759.681 112.067 761.79 110.075Z"/>
<path d="M857.619 134.326C841.801 134.326 829.79 129.699 821.588 120.444C813.503 111.071 809.46 97.4226 809.46 79.4979C809.46 68.251 810.456 58.7615 812.448 51.0293C814.44 43.2971 817.37 36.9121 821.236 31.8745C825.103 26.8368 829.966 22.7364 835.825 19.5732C841.801 16.41 848.655 13.8912 856.389 12.0167L895.936 2L896.287 21.1548L857.268 31.3473C851.643 32.9874 846.722 35.272 842.504 38.2008C838.285 41.0126 834.887 44.7029 832.309 49.272C829.849 53.7239 828.267 59.3473 827.564 66.1423C831.079 60.4017 835.883 55.8912 841.976 52.6109C848.069 49.2134 855.451 47.5146 864.122 47.5146C872.325 47.5146 879.531 49.272 885.741 52.7866C891.952 56.3013 896.756 61.1632 900.154 67.3724C903.669 73.5816 905.427 80.7866 905.427 88.9874C905.427 97.7741 903.552 105.623 899.802 112.536C896.17 119.331 890.78 124.661 883.632 128.527C876.602 132.393 867.931 134.326 857.619 134.326ZM857.619 114.293C864.884 114.293 870.626 112.126 874.844 107.791C879.18 103.339 881.347 97.4812 881.347 90.2176C881.347 83.1883 879.238 77.4477 875.02 72.9958C870.801 68.5439 865.001 66.318 857.619 66.318C853.049 66.318 848.948 67.2552 845.316 69.1297C841.801 71.0042 838.988 73.7573 836.879 77.3891C834.77 80.9038 833.715 85.1799 833.715 90.2176C833.715 94.9038 834.653 99.0628 836.528 102.695C838.402 106.326 841.097 109.197 844.613 111.305C848.245 113.297 852.581 114.293 857.619 114.293Z"/>
<path d="M963.617 134.326C956.117 134.326 949.38 133.096 943.404 130.636C937.428 128.059 932.331 124.544 928.112 120.092C924.011 115.64 920.848 110.544 918.621 104.803C916.395 99.0628 915.282 93.0293 915.282 86.7029C915.282 80.2594 916.395 74.1674 918.621 68.4268C920.848 62.6862 924.011 57.59 928.112 53.1381C932.331 48.6862 937.428 45.2301 943.404 42.7699C949.38 40.1925 956.117 38.9038 963.617 38.9038C971.116 38.9038 977.795 40.1925 983.654 42.7699C989.629 45.2301 994.727 48.6862 998.945 53.1381C1003.16 57.59 1006.33 62.6862 1008.44 68.4268C1010.66 74.1674 1011.78 80.2594 1011.78 86.7029C1011.78 93.0293 1010.66 99.0628 1008.44 104.803C1006.33 110.544 1003.16 115.64 998.945 120.092C994.844 124.544 989.805 128.059 983.829 130.636C977.853 133.096 971.116 134.326 963.617 134.326ZM939.537 86.7029C939.537 92.0921 940.592 96.8954 942.701 101.113C944.81 105.213 947.681 108.435 951.313 110.778C954.946 113.121 959.047 114.293 963.617 114.293C968.069 114.293 972.112 113.121 975.744 110.778C979.377 108.318 982.247 105.038 984.357 100.937C986.583 96.7197 987.696 91.9163 987.696 86.5272C987.696 81.2552 986.583 76.5105 984.357 72.2929C982.247 68.0753 979.377 64.795 975.744 62.4519C972.112 60.1088 968.069 58.9372 963.617 58.9372C959.047 58.9372 954.946 60.1674 951.313 62.6276C947.681 64.9707 944.81 68.251 942.701 72.4686C940.592 76.569 939.537 81.3138 939.537 86.7029Z"/>
<path d="M1048.94 132.569V61.046H1019.76V40.4854H1101.84V61.046H1072.49V132.569H1048.94Z"/>
<path d="M1115.04 132.569V40.4854H1138.59V69.4812H1154.76C1165.89 69.4812 1174.39 72.2929 1180.25 77.9163C1186.11 83.5397 1189.04 90.9791 1189.04 100.234C1189.04 106.444 1187.75 112.008 1185.17 116.929C1182.71 121.849 1179.08 125.715 1174.27 128.527C1169.47 131.222 1163.49 132.569 1156.34 132.569H1115.04ZM1138.59 114.644H1152.65C1155.93 114.644 1158.57 114 1160.56 112.711C1162.55 111.423 1164.02 109.724 1164.96 107.615C1166.01 105.506 1166.54 103.105 1166.54 100.41C1166.54 97.8326 1166.07 95.5481 1165.13 93.5565C1164.19 91.4477 1162.67 89.8075 1160.56 88.636C1158.57 87.3473 1155.87 86.7029 1152.48 86.7029H1138.59V114.644ZM1203.45 132.569V40.6611H1227V132.569H1203.45Z"/>
</mask>
<path d="M53.4985 133.623C45.5306 133.623 38.2657 132.452 31.7039 130.109C25.1421 127.649 19.4005 124.251 14.4792 119.916C9.5578 115.582 5.39808 110.485 2 104.628L22.037 93.205C24.1461 97.0711 26.7826 100.469 29.9463 103.397C33.11 106.209 36.6839 108.377 40.6678 109.9C44.769 111.423 49.1045 112.184 53.6743 112.184C59.2987 112.184 64.3958 111.13 68.9657 109.021C73.5355 106.795 77.4023 103.808 80.566 100.059C83.8469 96.1925 86.3076 91.7992 87.9481 86.8787C89.7057 81.841 90.5845 76.569 90.5845 71.0628L100.427 77.7406H42.9528V59.8159H99.8999L90.4087 66.318C90.1744 61.3975 89.237 56.6527 87.5965 52.0837C85.9561 47.5146 83.554 43.4728 80.3903 39.9582C77.2265 36.4435 73.4183 33.6904 68.9657 31.6987C64.513 29.59 59.4159 28.5356 53.6743 28.5356C49.2216 28.5356 45.0033 29.2971 41.0194 30.8201C37.0354 32.2259 33.5201 34.3347 30.4736 37.1464C27.427 39.9582 24.8492 43.4142 22.74 47.5146L3.58187 34.3347C8.6204 26.3682 15.1236 19.8661 23.0915 14.8285C31.1766 9.67364 41.4295 7.09623 53.8501 7.09623C63.5756 7.09623 72.2466 8.85356 79.863 12.3682C87.4794 15.8828 93.924 20.6276 99.1969 26.6025C104.47 32.5774 108.454 39.3138 111.149 46.8117C113.961 54.3096 115.367 62.1004 115.367 70.1841C115.367 78.6192 113.902 86.6443 110.973 94.2594C108.161 101.874 104.001 108.669 98.4938 114.644C93.1038 120.502 86.6005 125.13 78.9842 128.527C71.3678 131.925 62.8725 133.623 53.4985 133.623Z" stroke="#272827" stroke-width="2" mask="url(#path-1-outside-1_11_40)"/>
<path d="M152.961 132.569V61.046H123.784V40.4854H205.866V61.046H176.513V132.569H152.961Z" stroke="#272827" stroke-width="2" mask="url(#path-1-outside-1_11_40)"/>
<path d="M212.39 105.331C212.39 99.3556 214.03 94.1423 217.311 89.6904C220.709 85.1213 225.396 81.6067 231.372 79.1464C237.348 76.6862 244.203 75.4561 251.936 75.4561C255.803 75.4561 259.728 75.749 263.712 76.3347C267.696 76.9205 271.153 77.8577 274.082 79.1464V74.2259C274.082 68.3682 272.325 63.8577 268.809 60.6946C265.411 57.5314 260.314 55.9498 253.518 55.9498C248.48 55.9498 243.675 56.8284 239.105 58.5858C234.536 60.3431 229.731 62.9205 224.693 66.318L217.135 50.8536C223.228 46.8703 229.439 43.8828 235.766 41.8912C242.211 39.8996 248.948 38.9038 255.979 38.9038C269.102 38.9038 279.297 42.1841 286.561 48.7448C293.944 55.3054 297.635 64.6778 297.635 76.8619V106.209C297.635 108.669 298.045 110.427 298.865 111.481C299.802 112.536 301.267 113.18 303.259 113.414V132.569C301.15 132.921 299.216 133.213 297.459 133.448C295.818 133.682 294.412 133.799 293.24 133.799C288.553 133.799 284.98 132.745 282.519 130.636C280.175 128.527 278.711 125.95 278.125 122.904L277.598 118.159C273.614 123.314 268.634 127.297 262.658 130.109C256.682 132.921 250.589 134.326 244.378 134.326C238.285 134.326 232.778 133.096 227.857 130.636C223.052 128.059 219.244 124.603 216.432 120.268C213.737 115.816 212.39 110.837 212.39 105.331ZM269.688 110.075C270.977 108.669 272.032 107.264 272.852 105.858C273.672 104.452 274.082 103.163 274.082 101.992V92.6778C271.27 91.5063 268.224 90.6276 264.943 90.0418C261.662 89.3389 258.557 88.9874 255.627 88.9874C249.534 88.9874 244.496 90.3347 240.512 93.0293C236.645 95.6067 234.711 99.0628 234.711 103.397C234.711 105.741 235.356 107.967 236.645 110.075C237.934 112.184 239.809 113.883 242.269 115.172C244.73 116.46 247.659 117.105 251.057 117.105C254.573 117.105 258.029 116.46 261.427 115.172C264.825 113.766 267.579 112.067 269.688 110.075Z" stroke="#272827" stroke-width="2" mask="url(#path-1-outside-1_11_40)"/>
<path d="M319.643 132.569V40.4854H402.252V132.569H378.7V61.046H343.196V132.569H319.643Z" stroke="#272827" stroke-width="2" mask="url(#path-1-outside-1_11_40)"/>
<path d="M423.659 132.569V40.4854H447.212V69.4812H463.382C474.513 69.4812 483.009 72.2929 488.867 77.9163C494.726 83.5397 497.655 90.9791 497.655 100.234C497.655 106.444 496.367 112.008 493.789 116.929C491.328 121.849 487.696 125.715 482.891 128.527C478.087 131.222 472.111 132.569 464.964 132.569H423.659ZM447.212 114.644H461.273C464.553 114.644 467.19 114 469.182 112.711C471.174 111.423 472.639 109.724 473.576 107.615C474.631 105.506 475.158 103.105 475.158 100.41C475.158 97.8326 474.689 95.5481 473.752 93.5565C472.814 91.4477 471.291 89.8075 469.182 88.636C467.19 87.3473 464.495 86.7029 461.097 86.7029H447.212V114.644ZM512.068 132.569V40.6611H535.62V132.569H512.068Z" stroke="#272827" stroke-width="2" mask="url(#path-1-outside-1_11_40)"/>
<path d="M654.612 134.326C647.464 134.326 641.137 132.745 635.629 129.582C630.239 126.301 626.021 121.908 622.974 116.402V170H599.422V40.4854H619.986V56.3013C623.502 50.9121 627.954 46.6946 633.344 43.6485C638.734 40.4854 644.886 38.9038 651.799 38.9038C658.01 38.9038 663.693 40.1339 668.849 42.5941C674.121 45.0544 678.691 48.5105 682.558 52.9623C686.425 57.2971 689.413 62.3347 691.522 68.0753C693.748 73.6987 694.861 79.7908 694.861 86.3515C694.861 95.2552 693.104 103.339 689.589 110.603C686.19 117.866 681.445 123.665 675.352 128C669.376 132.218 662.462 134.326 654.612 134.326ZM646.702 114.293C650.335 114.293 653.616 113.531 656.545 112.008C659.474 110.485 661.994 108.435 664.103 105.858C666.329 103.163 667.97 100.176 669.024 96.8954C670.196 93.4979 670.782 89.9833 670.782 86.3515C670.782 82.4854 670.137 78.9121 668.849 75.6318C667.677 72.3515 665.919 69.4812 663.576 67.0209C661.232 64.4435 658.479 62.4519 655.315 61.046C652.268 59.6402 648.929 58.9372 645.296 58.9372C643.07 58.9372 640.785 59.3473 638.442 60.1674C636.215 60.8703 634.047 61.9247 631.938 63.3305C629.829 64.7364 627.954 66.3766 626.314 68.251C624.791 70.1255 623.677 72.1757 622.974 74.4017V96.0167C624.38 99.4142 626.255 102.519 628.599 105.331C631.059 108.142 633.872 110.368 637.035 112.008C640.199 113.531 643.421 114.293 646.702 114.293Z" stroke="#272827" stroke-width="2" mask="url(#path-1-outside-1_11_40)"/>
<path d="M704.491 105.331C704.491 99.3556 706.132 94.1423 709.413 89.6904C712.811 85.1213 717.498 81.6067 723.474 79.1464C729.45 76.6862 736.304 75.4561 744.038 75.4561C747.905 75.4561 751.83 75.749 755.814 76.3347C759.798 76.9205 763.255 77.8577 766.184 79.1464V74.2259C766.184 68.3682 764.426 63.8577 760.911 60.6946C757.513 57.5314 752.416 55.9498 745.62 55.9498C740.581 55.9498 735.777 56.8284 731.207 58.5858C726.637 60.3431 721.833 62.9205 716.795 66.318L709.237 50.8536C715.33 46.8703 721.54 43.8828 727.868 41.8912C734.312 39.8996 741.05 38.9038 748.081 38.9038C761.204 38.9038 771.398 42.1841 778.663 48.7448C786.045 55.3054 789.736 64.6778 789.736 76.8619V106.209C789.736 108.669 790.146 110.427 790.967 111.481C791.904 112.536 793.369 113.18 795.361 113.414V132.569C793.252 132.921 791.318 133.213 789.56 133.448C787.92 133.682 786.514 133.799 785.342 133.799C780.655 133.799 777.081 132.745 774.621 130.636C772.277 128.527 770.812 125.95 770.227 122.904L769.699 118.159C765.715 123.314 760.735 127.297 754.759 130.109C748.784 132.921 742.69 134.326 736.48 134.326C730.387 134.326 724.88 133.096 719.958 130.636C715.154 128.059 711.346 124.603 708.534 120.268C705.839 115.816 704.491 110.837 704.491 105.331ZM761.79 110.075C763.079 108.669 764.133 107.264 764.954 105.858C765.774 104.452 766.184 103.163 766.184 101.992V92.6778C763.372 91.5063 760.325 90.6276 757.044 90.0418C753.763 89.3389 750.658 88.9874 747.729 88.9874C741.636 88.9874 736.597 90.3347 732.613 93.0293C728.747 95.6067 726.813 99.0628 726.813 103.397C726.813 105.741 727.458 107.967 728.747 110.075C730.035 112.184 731.91 113.883 734.371 115.172C736.832 116.46 739.761 117.105 743.159 117.105C746.674 117.105 750.131 116.46 753.529 115.172C756.927 113.766 759.681 112.067 761.79 110.075Z" stroke="#272827" stroke-width="2" mask="url(#path-1-outside-1_11_40)"/>
<path d="M857.619 134.326C841.801 134.326 829.79 129.699 821.588 120.444C813.503 111.071 809.46 97.4226 809.46 79.4979C809.46 68.251 810.456 58.7615 812.448 51.0293C814.44 43.2971 817.37 36.9121 821.236 31.8745C825.103 26.8368 829.966 22.7364 835.825 19.5732C841.801 16.41 848.655 13.8912 856.389 12.0167L895.936 2L896.287 21.1548L857.268 31.3473C851.643 32.9874 846.722 35.272 842.504 38.2008C838.285 41.0126 834.887 44.7029 832.309 49.272C829.849 53.7239 828.267 59.3473 827.564 66.1423C831.079 60.4017 835.883 55.8912 841.976 52.6109C848.069 49.2134 855.451 47.5146 864.122 47.5146C872.325 47.5146 879.531 49.272 885.741 52.7866C891.952 56.3013 896.756 61.1632 900.154 67.3724C903.669 73.5816 905.427 80.7866 905.427 88.9874C905.427 97.7741 903.552 105.623 899.802 112.536C896.17 119.331 890.78 124.661 883.632 128.527C876.602 132.393 867.931 134.326 857.619 134.326ZM857.619 114.293C864.884 114.293 870.626 112.126 874.844 107.791C879.18 103.339 881.347 97.4812 881.347 90.2176C881.347 83.1883 879.238 77.4477 875.02 72.9958C870.801 68.5439 865.001 66.318 857.619 66.318C853.049 66.318 848.948 67.2552 845.316 69.1297C841.801 71.0042 838.988 73.7573 836.879 77.3891C834.77 80.9038 833.715 85.1799 833.715 90.2176C833.715 94.9038 834.653 99.0628 836.528 102.695C838.402 106.326 841.097 109.197 844.613 111.305C848.245 113.297 852.581 114.293 857.619 114.293Z" stroke="#272827" stroke-width="2" mask="url(#path-1-outside-1_11_40)"/>
<path d="M963.617 134.326C956.117 134.326 949.38 133.096 943.404 130.636C937.428 128.059 932.331 124.544 928.112 120.092C924.011 115.64 920.848 110.544 918.621 104.803C916.395 99.0628 915.282 93.0293 915.282 86.7029C915.282 80.2594 916.395 74.1674 918.621 68.4268C920.848 62.6862 924.011 57.59 928.112 53.1381C932.331 48.6862 937.428 45.2301 943.404 42.7699C949.38 40.1925 956.117 38.9038 963.617 38.9038C971.116 38.9038 977.795 40.1925 983.654 42.7699C989.629 45.2301 994.727 48.6862 998.945 53.1381C1003.16 57.59 1006.33 62.6862 1008.44 68.4268C1010.66 74.1674 1011.78 80.2594 1011.78 86.7029C1011.78 93.0293 1010.66 99.0628 1008.44 104.803C1006.33 110.544 1003.16 115.64 998.945 120.092C994.844 124.544 989.805 128.059 983.829 130.636C977.853 133.096 971.116 134.326 963.617 134.326ZM939.537 86.7029C939.537 92.0921 940.592 96.8954 942.701 101.113C944.81 105.213 947.681 108.435 951.313 110.778C954.946 113.121 959.047 114.293 963.617 114.293C968.069 114.293 972.112 113.121 975.744 110.778C979.377 108.318 982.247 105.038 984.357 100.937C986.583 96.7197 987.696 91.9163 987.696 86.5272C987.696 81.2552 986.583 76.5105 984.357 72.2929C982.247 68.0753 979.377 64.795 975.744 62.4519C972.112 60.1088 968.069 58.9372 963.617 58.9372C959.047 58.9372 954.946 60.1674 951.313 62.6276C947.681 64.9707 944.81 68.251 942.701 72.4686C940.592 76.569 939.537 81.3138 939.537 86.7029Z" stroke="#272827" stroke-width="2" mask="url(#path-1-outside-1_11_40)"/>
<path d="M1048.94 132.569V61.046H1019.76V40.4854H1101.84V61.046H1072.49V132.569H1048.94Z" stroke="#272827" stroke-width="2" mask="url(#path-1-outside-1_11_40)"/>
<path d="M1115.04 132.569V40.4854H1138.59V69.4812H1154.76C1165.89 69.4812 1174.39 72.2929 1180.25 77.9163C1186.11 83.5397 1189.04 90.9791 1189.04 100.234C1189.04 106.444 1187.75 112.008 1185.17 116.929C1182.71 121.849 1179.08 125.715 1174.27 128.527C1169.47 131.222 1163.49 132.569 1156.34 132.569H1115.04ZM1138.59 114.644H1152.65C1155.93 114.644 1158.57 114 1160.56 112.711C1162.55 111.423 1164.02 109.724 1164.96 107.615C1166.01 105.506 1166.54 103.105 1166.54 100.41C1166.54 97.8326 1166.07 95.5481 1165.13 93.5565C1164.19 91.4477 1162.67 89.8075 1160.56 88.636C1158.57 87.3473 1155.87 86.7029 1152.48 86.7029H1138.59V114.644ZM1203.45 132.569V40.6611H1227V132.569H1203.45Z" stroke="#272827" stroke-width="2" mask="url(#path-1-outside-1_11_40)"/>
</svg>
